{"glyphs":{"0":{"ha":835,"x_min":56,"x_max":779,"o":"m 382 632 q 296 612 333 632 q 233 556 258 592 q 195 474 208 521 q 182 374 182 428 q 201 268 182 322 q 256 169 219 214 q 342 95 292 124 q 458 67 393 67 q 544 88 508 67 q 603 144 581 108 q 638 226 626 179 q 649 324 649 272 q 631 425 649 371 q 580 525 614 479 q 496 601 546 571 q 382 632 446 632 m 422 703 q 554 680 490 703 q 668 613 618 657 q 749 503 718 568 q 779 354 779 438 q 750 203 779 271 q 672 87 721 135 q 558 13 624 39 q 422 -12 493 -12 q 283 13 350 -12 q 166 87 217 39 q 85 203 115 135 q 56 354 56 271 q 88 503 56 438 q 172 613 119 568 q 289 680 224 657 q 422 703 354 703 z "},"1":{"ha":539,"x_min":104,"x_max":435,"o":"m 332 176 q 337 119 332 142 q 353 83 342 96 q 382 63 364 69 q 428 56 400 57 q 433 26 432 40 q 435 -4 435 11 q 390 -1 414 -3 l 344 0 l 269 0 q 187 -1 232 0 q 104 -4 142 -1 q 106 26 104 11 q 111 56 107 40 q 185 83 164 58 q 207 176 207 107 l 207 518 q 203 574 207 551 q 188 611 199 597 q 158 631 176 625 q 111 639 140 638 q 104 699 104 667 q 142 697 121 697 q 187 695 164 696 q 231 694 210 694 l 269 694 q 358 695 314 694 q 435 699 401 696 q 428 639 435 667 q 352 611 372 636 q 332 518 332 586 l 332 176 z "},"2":{"ha":746,"x_min":90,"x_max":656,"o":"m 386 703 q 458 694 421 703 q 527 663 496 685 q 578 607 558 642 q 597 522 597 572 q 590 464 597 490 q 564 410 582 438 q 517 353 546 383 q 444 283 488 322 q 363 208 408 251 q 275 125 324 171 l 478 125 q 525 127 507 125 q 553 138 543 129 q 569 164 564 147 q 575 210 574 181 q 640 200 615 210 q 644 108 640 147 q 656 29 647 68 q 638 7 649 17 q 611 -3 628 -3 q 477 -1 544 -1 q 338 0 410 0 l 281 0 q 218 -1 250 0 q 157 -2 186 -1 q 108 -3 128 -3 q 94 22 97 10 q 90 54 90 35 q 210 165 150 110 q 328 269 271 219 q 392 333 367 304 q 434 390 418 363 q 456 444 450 417 q 463 504 463 472 q 453 551 463 529 q 428 589 444 572 q 390 615 411 606 q 343 625 368 625 q 254 586 285 625 q 210 446 224 547 q 170 448 192 446 q 135 456 149 450 q 138 497 136 474 q 139 545 139 521 q 138 593 139 569 q 132 636 136 617 q 184 667 158 654 q 240 688 210 679 q 306 699 271 696 q 386 703 342 703 z "},"3":{"ha":713,"x_min":69,"x_max":643,"o":"m 365 694 q 503 695 451 694 q 592 697 554 696 q 606 673 603 688 q 608 642 610 658 q 503 511 563 586 q 372 344 443 436 q 472 331 424 347 q 559 279 521 314 q 620 192 597 244 q 643 69 643 139 q 617 -47 643 8 q 544 -145 592 -103 q 427 -212 496 -187 q 272 -237 358 -237 q 151 -219 203 -237 q 69 -175 100 -201 q 74 -152 69 -164 q 89 -129 78 -140 q 151 -155 107 -142 q 265 -168 194 -168 q 348 -154 306 -168 q 424 -113 390 -140 q 481 -45 458 -86 q 503 50 503 -4 q 453 185 503 131 q 301 239 403 239 q 257 229 275 239 q 239 254 246 240 q 232 278 232 268 q 372 458 315 383 q 464 583 428 532 l 294 583 q 244 580 264 583 q 209 566 224 576 q 184 537 194 556 q 164 486 174 518 q 133 490 149 486 q 107 504 118 494 q 120 602 118 556 q 122 697 122 649 q 217 695 157 696 q 365 694 276 694 z "},"4":{"ha":829,"x_min":63,"x_max":760,"o":"m 599 0 l 599 -211 q 567 -215 586 -211 q 530 -222 547 -218 q 499 -231 513 -226 q 483 -237 485 -236 q 468 -192 468 -222 l 468 0 l 458 0 q 264 -3 351 0 q 88 -8 176 -6 q 71 15 79 0 q 63 44 63 29 q 108 105 82 69 q 165 183 135 140 q 229 273 196 225 q 297 369 263 321 q 364 465 331 417 q 428 556 397 513 q 488 638 460 600 q 536 703 515 675 q 570 699 553 703 q 599 689 588 696 l 599 110 l 719 110 q 760 97 747 110 q 742 49 750 78 q 735 0 735 19 l 599 0 m 468 110 l 468 496 l 211 110 l 468 110 z "},"5":{"ha":668,"x_min":83,"x_max":585,"o":"m 186 697 q 253 695 222 696 q 313 694 285 694 l 426 694 q 483 714 467 694 q 499 761 499 733 q 528 767 511 765 q 561 768 546 768 q 554 687 556 731 q 553 594 553 643 q 532 576 546 583 q 490 569 518 569 l 428 569 q 348 569 389 569 q 272 567 307 568 q 222 565 236 567 l 189 425 q 351 379 278 406 q 476 313 424 353 q 556 220 528 274 q 585 93 585 167 q 552 -49 585 13 q 469 -153 519 -111 q 359 -216 419 -194 q 243 -237 299 -237 q 148 -225 190 -237 q 83 -193 106 -212 q 101 -147 83 -169 q 158 -161 119 -154 q 238 -168 196 -168 q 317 -153 279 -168 q 383 -108 354 -137 q 429 -37 413 -79 q 446 56 446 4 q 416 160 446 115 q 340 235 386 204 q 236 285 293 267 q 125 308 179 303 q 108 328 114 315 q 101 351 101 340 l 186 697 z "},"6":{"ha":696,"x_min":49,"x_max":640,"o":"m 575 843 q 401 788 476 822 q 276 694 326 753 q 200 549 226 636 q 183 475 190 515 q 228 503 207 490 q 281 529 256 519 q 330 544 306 539 q 381 549 354 549 q 570 483 500 549 q 640 294 640 418 q 617 169 640 225 q 553 72 593 113 q 460 10 513 32 q 347 -12 407 -12 q 123 76 197 -12 q 49 333 49 164 q 98 593 49 489 q 223 761 147 697 q 389 853 299 825 q 561 886 479 882 q 572 869 568 878 q 575 843 575 860 m 249 456 q 178 421 218 447 q 175 339 175 382 q 194 199 175 254 q 242 110 214 143 q 303 65 271 78 q 360 51 335 51 q 431 69 401 51 q 480 115 461 88 q 508 177 499 143 q 517 243 517 211 q 497 353 517 310 q 448 422 478 396 q 383 457 418 447 q 318 467 349 467 q 249 456 283 467 z "},"7":{"ha":674,"x_min":69,"x_max":618,"o":"m 421 694 q 496 695 461 694 q 556 697 531 696 q 597 697 582 697 q 610 685 604 693 q 618 667 615 676 q 511 480 565 575 q 400 275 457 385 q 345 154 367 210 q 310 47 324 99 q 292 -58 297 -6 q 288 -168 288 -110 q 233 -206 260 -186 q 189 -244 206 -225 q 169 -235 176 -242 q 163 -219 163 -228 q 174 -114 163 -175 q 204 14 185 -53 q 238 104 214 49 q 298 231 263 160 q 380 388 333 303 q 482 568 426 472 l 261 568 q 210 565 232 568 q 174 552 189 563 q 147 523 158 542 q 126 472 136 504 q 97 476 113 472 q 69 489 81 481 q 88 590 82 542 q 93 697 93 639 q 201 694 147 694 l 421 694 z "},"8":{"ha":706,"x_min":76,"x_max":629,"o":"m 192 415 q 264 465 224 440 q 150 561 190 515 q 103 683 103 614 q 118 758 103 722 q 163 822 133 794 q 238 867 193 850 q 342 885 283 885 q 527 838 460 885 q 594 700 594 792 q 578 624 594 657 q 538 566 563 592 q 481 519 513 540 q 435 493 457 506 q 478 463 457 478 q 560 389 526 426 q 612 309 594 351 q 629 217 629 267 q 608 122 629 164 q 549 49 586 79 q 459 3 511 19 q 346 -12 407 -12 q 235 4 285 -12 q 151 49 186 21 q 96 116 115 78 q 76 196 76 154 q 90 283 76 244 q 128 355 103 322 q 192 415 154 388 m 450 324 q 315 432 403 374 q 263 388 285 410 q 224 338 239 364 q 202 280 208 311 q 196 207 196 249 q 211 129 196 161 q 251 78 226 97 q 307 51 276 60 q 369 43 338 43 q 413 51 389 43 q 457 75 436 58 q 492 119 478 92 q 506 189 506 147 q 450 324 506 265 m 367 536 q 385 525 375 531 q 446 585 426 553 q 469 682 469 622 q 433 792 469 754 q 349 829 397 829 q 266 800 297 829 q 233 711 235 771 q 263 619 232 657 q 367 536 293 581 z "},"9":{"ha":721,"x_min":56,"x_max":672,"o":"m 518 157 q 531 200 525 178 q 447 149 488 165 q 340 129 399 129 q 230 148 282 129 q 140 201 178 167 q 78 285 101 236 q 56 393 56 333 q 80 526 56 468 q 146 623 104 583 q 244 683 188 663 q 365 703 300 703 q 599 610 525 703 q 672 336 672 517 q 646 169 672 244 q 576 32 619 93 q 477 -76 533 -29 q 360 -157 421 -124 q 238 -210 299 -190 q 125 -236 176 -229 q 113 -212 115 -224 q 111 -186 111 -201 q 302 -94 221 -144 q 438 18 383 -44 q 518 157 492 81 m 488 232 q 542 265 518 243 q 544 326 544 296 q 530 469 544 410 q 490 567 515 529 q 427 624 464 606 q 346 642 390 642 q 281 626 310 642 q 230 583 251 610 q 197 519 208 556 q 185 442 185 482 q 206 324 185 368 q 261 256 228 281 q 333 224 294 232 q 407 217 372 217 q 488 232 449 217 z "},"\u0000":{"ha":694,"x_min":0,"x_max":0,"o":""},"\r":{"ha":694,"x_min":0,"x_max":0,"o":""}," ":{"ha":278,"x_min":0,"x_max":0,"o":""},"a":{"ha":671,"x_min":69,"x_max":629,"o":"m 425 315 q 350 303 389 311 q 279 281 311 296 q 226 238 247 265 q 204 165 204 211 q 229 90 204 114 q 286 67 254 67 q 333 78 308 67 q 378 113 357 89 q 412 173 399 136 q 425 263 425 210 l 425 315 m 550 207 q 565 118 550 140 q 629 96 579 96 q 627 62 629 81 q 619 31 625 43 q 542 13 583 25 q 472 -12 501 1 q 448 8 458 -7 q 438 56 438 24 q 439 90 438 76 q 440 114 440 104 q 424 78 435 96 q 389 38 414 60 q 331 3 365 17 q 250 -10 297 -10 q 115 29 160 -10 q 69 138 69 68 q 109 248 69 206 q 205 316 149 290 q 322 353 261 342 q 425 372 382 365 q 424 443 425 415 q 419 490 422 471 q 410 521 417 508 q 396 544 404 533 q 307 586 363 586 q 253 569 275 586 q 216 528 231 553 q 195 476 201 504 q 188 425 189 449 q 149 427 172 425 q 115 435 126 429 q 117 512 118 469 q 108 586 115 554 q 225 631 164 614 q 351 649 286 649 q 432 634 399 649 q 492 594 465 619 q 521 556 510 576 q 538 506 532 535 q 547 442 544 478 q 550 356 550 406 l 550 207 z "},"à":{"ha":671,"x_min":69,"x_max":629,"o":"m 425 315 q 350 303 389 311 q 279 281 311 296 q 226 238 247 265 q 204 165 204 211 q 229 90 204 114 q 286 67 254 67 q 333 78 308 67 q 378 113 357 89 q 412 173 399 136 q 425 263 425 210 l 425 315 m 550 207 q 565 118 550 140 q 629 96 579 96 q 627 62 629 81 q 619 31 625 43 q 542 13 583 25 q 472 -12 501 1 q 448 8 458 -7 q 438 56 438 24 q 439 90 438 76 q 440 114 440 104 q 424 78 435 96 q 389 38 414 60 q 331 3 365 17 q 250 -10 297 -10 q 115 29 160 -10 q 69 138 69 68 q 109 248 69 206 q 205 316 149 290 q 322 353 261 342 q 425 372 382 365 q 424 443 425 415 q 419 490 422 471 q 410 521 417 508 q 396 544 404 533 q 307 586 363 586 q 253 569 275 586 q 216 528 231 553 q 195 476 201 504 q 188 425 189 449 q 149 427 172 425 q 115 435 126 429 q 117 512 118 469 q 108 586 115 554 q 225 631 164 614 q 351 649 286 649 q 432 634 399 649 q 492 594 465 619 q 521 556 510 576 q 538 506 532 535 q 547 442 544 478 q 550 356 550 406 l 550 207 m 392 746 q 365 740 379 739 q 336 743 350 740 q 246 874 288 818 q 160 978 204 931 q 223 993 188 992 q 293 989 258 994 q 335 869 311 929 q 392 746 358 808 z "},"á":{"ha":671,"x_min":69,"x_max":629,"o":"m 425 315 q 350 303 389 311 q 279 281 311 296 q 226 238 247 265 q 204 165 204 211 q 229 90 204 114 q 286 67 254 67 q 333 78 308 67 q 378 113 357 89 q 412 173 399 136 q 425 263 425 210 l 425 315 m 550 207 q 565 118 550 140 q 629 96 579 96 q 627 62 629 81 q 619 31 625 43 q 542 13 583 25 q 472 -12 501 1 q 448 8 458 -7 q 438 56 438 24 q 439 90 438 76 q 440 114 440 104 q 424 78 435 96 q 389 38 414 60 q 331 3 365 17 q 250 -10 297 -10 q 115 29 160 -10 q 69 138 69 68 q 109 248 69 206 q 205 316 149 290 q 322 353 261 342 q 425 372 382 365 q 424 443 425 415 q 419 490 422 471 q 410 521 417 508 q 396 544 404 533 q 307 586 363 586 q 253 569 275 586 q 216 528 231 553 q 195 476 201 504 q 188 425 189 449 q 149 427 172 425 q 115 435 126 429 q 117 512 118 469 q 108 586 115 554 q 225 631 164 614 q 351 649 286 649 q 432 634 399 649 q 492 594 465 619 q 521 556 510 576 q 538 506 532 535 q 547 442 544 478 q 550 356 550 406 l 550 207 m 293 746 q 348 874 326 815 q 383 985 369 932 q 440 999 414 996 q 486 1001 465 1003 q 509 997 499 1000 q 526 992 519 994 q 432 870 481 939 q 343 738 383 801 q 317 738 331 736 q 293 746 304 740 z "},"â":{"ha":671,"x_min":69,"x_max":629,"o":"m 425 315 q 350 303 389 311 q 279 281 311 296 q 226 238 247 265 q 204 165 204 211 q 229 90 204 114 q 286 67 254 67 q 333 78 308 67 q 378 113 357 89 q 412 173 399 136 q 425 263 425 210 l 425 315 m 550 207 q 565 118 550 140 q 629 96 579 96 q 627 62 629 81 q 619 31 625 43 q 542 13 583 25 q 472 -12 501 1 q 448 8 458 -7 q 438 56 438 24 q 439 90 438 76 q 440 114 440 104 q 424 78 435 96 q 389 38 414 60 q 331 3 365 17 q 250 -10 297 -10 q 115 29 160 -10 q 69 138 69 68 q 109 248 69 206 q 205 316 149 290 q 322 353 261 342 q 425 372 382 365 q 424 443 425 415 q 419 490 422 471 q 410 521 417 508 q 396 544 404 533 q 307 586 363 586 q 253 569 275 586 q 216 528 231 553 q 195 476 201 504 q 188 425 189 449 q 149 427 172 425 q 115 435 126 429 q 117 512 118 469 q 108 586 115 554 q 225 631 164 614 q 351 649 286 649 q 432 634 399 649 q 492 594 465 619 q 521 556 510 576 q 538 506 532 535 q 547 442 544 478 q 550 356 550 406 l 550 207 m 85 771 q 197 867 138 811 q 303 979 256 922 q 326 983 314 982 q 347 985 339 985 q 436 874 385 933 q 550 751 488 814 q 508 726 536 733 q 461 760 486 742 l 411 796 q 361 830 386 814 q 314 858 336 846 q 269 832 297 850 q 208 793 240 814 q 147 751 176 772 q 100 718 117 731 q 88 744 90 728 q 85 771 85 761 z "},"ã":{"ha":671,"x_min":69,"x_max":629,"o":"m 425 315 q 350 303 389 311 q 279 281 311 296 q 226 238 247 265 q 204 165 204 211 q 229 90 204 114 q 286 67 254 67 q 333 78 308 67 q 378 113 357 89 q 412 173 399 136 q 425 263 425 210 l 425 315 m 550 207 q 565 118 550 140 q 629 96 579 96 q 627 62 629 81 q 619 31 625 43 q 542 13 583 25 q 472 -12 501 1 q 448 8 458 -7 q 438 56 438 24 q 439 90 438 76 q 440 114 440 104 q 424 78 435 96 q 389 38 414 60 q 331 3 365 17 q 250 -10 297 -10 q 115 29 160 -10 q 69 138 69 68 q 109 248 69 206 q 205 316 149 290 q 322 353 261 342 q 425 372 382 365 q 424 443 425 415 q 419 490 422 471 q 410 521 417 508 q 396 544 404 533 q 307 586 363 586 q 253 569 275 586 q 216 528 231 553 q 195 476 201 504 q 188 425 189 449 q 149 427 172 425 q 115 435 126 429 q 117 512 118 469 q 108 586 115 554 q 225 631 164 614 q 351 649 286 649 q 432 634 399 649 q 492 594 465 619 q 521 556 510 576 q 538 506 532 535 q 547 442 544 478 q 550 356 550 406 l 550 207 m 128 718 q 114 744 114 726 q 193 844 156 818 q 265 871 231 871 q 313 862 290 871 q 359 842 336 853 q 404 823 382 832 q 450 814 426 814 q 492 824 471 814 q 535 857 513 833 q 548 855 540 857 q 561 846 556 853 q 492 740 525 768 q 426 713 458 713 q 380 722 403 713 q 333 742 357 731 q 285 763 310 754 q 235 772 261 772 q 183 760 210 772 q 128 718 157 749 z "},"ä":{"ha":671,"x_min":69,"x_max":629,"o":"m 425 315 q 350 303 389 311 q 279 281 311 296 q 226 238 247 265 q 204 165 204 211 q 229 90 204 114 q 286 67 254 67 q 333 78 308 67 q 378 113 357 89 q 412 173 399 136 q 425 263 425 210 l 425 315 m 550 207 q 565 118 550 140 q 629 96 579 96 q 627 62 629 81 q 619 31 625 43 q 542 13 583 25 q 472 -12 501 1 q 448 8 458 -7 q 438 56 438 24 q 439 90 438 76 q 440 114 440 104 q 424 78 435 96 q 389 38 414 60 q 331 3 365 17 q 250 -10 297 -10 q 115 29 160 -10 q 69 138 69 68 q 109 248 69 206 q 205 316 149 290 q 322 353 261 342 q 425 372 382 365 q 424 443 425 415 q 419 490 422 471 q 410 521 417 508 q 396 544 404 533 q 307 586 363 586 q 253 569 275 586 q 216 528 231 553 q 195 476 201 504 q 188 425 189 449 q 149 427 172 425 q 115 435 126 429 q 117 512 118 469 q 108 586 115 554 q 225 631 164 614 q 351 649 286 649 q 432 634 399 649 q 492 594 465 619 q 521 556 510 576 q 538 506 532 535 q 547 442 544 478 q 550 356 550 406 l 550 207 m 208 739 q 151 759 172 739 q 129 810 129 779 q 147 865 129 840 q 206 889 165 889 q 266 867 247 889 q 285 813 285 844 q 263 760 285 781 q 208 739 240 739 m 476 889 q 533 869 511 889 q 556 818 556 850 q 539 765 556 789 q 481 740 522 740 q 419 762 440 740 q 399 818 399 783 q 420 870 399 851 q 476 889 442 889 z "},"å":{"ha":671,"x_min":69,"x_max":629,"o":"m 425 315 q 350 303 389 311 q 279 281 311 296 q 226 238 247 265 q 204 165 204 211 q 229 90 204 114 q 286 67 254 67 q 333 78 308 67 q 378 113 357 89 q 412 173 399 136 q 425 263 425 210 l 425 315 m 550 207 q 565 118 550 140 q 629 96 579 96 q 627 62 629 81 q 619 31 625 43 q 542 13 583 25 q 472 -12 501 1 q 448 8 458 -7 q 438 56 438 24 q 439 90 438 76 q 440 114 440 104 q 424 78 435 96 q 389 38 414 60 q 331 3 365 17 q 250 -10 297 -10 q 115 29 160 -10 q 69 138 69 68 q 109 248 69 206 q 205 316 149 290 q 322 353 261 342 q 425 372 382 365 q 424 443 425 415 q 419 490 422 471 q 410 521 417 508 q 396 544 404 533 q 307 586 363 586 q 253 569 275 586 q 216 528 231 553 q 195 476 201 504 q 188 425 189 449 q 149 427 172 425 q 115 435 126 429 q 117 512 118 469 q 108 586 115 554 q 225 631 164 614 q 351 649 286 649 q 432 634 399 649 q 492 594 465 619 q 521 556 510 576 q 538 506 532 535 q 547 442 544 478 q 550 356 550 406 l 550 207 m 193 853 q 235 946 193 908 q 338 983 276 983 q 388 976 363 983 q 431 954 413 969 q 462 916 450 939 q 474 863 474 893 q 432 768 474 806 q 328 731 390 731 q 277 739 301 731 q 234 763 253 747 q 204 802 215 779 q 193 853 193 825 m 269 858 q 288 804 269 826 q 342 782 307 782 q 381 799 364 782 q 399 849 399 817 q 381 907 399 878 q 328 936 364 936 q 285 915 301 936 q 269 858 269 894 z "},"æ":{"ha":950,"x_min":53,"x_max":901,"o":"m 683 333 q 531 322 604 329 l 531 319 q 539 233 531 278 q 567 151 547 188 q 619 90 588 114 q 696 65 650 65 q 803 92 764 65 q 867 150 843 118 q 888 131 876 143 q 901 108 899 119 q 797 19 856 46 q 665 -8 738 -8 q 547 21 596 -8 q 464 96 497 50 q 436 142 449 118 q 432 128 435 135 q 407 74 421 93 q 238 -8 353 -8 q 99 28 146 -8 q 53 135 53 65 q 89 247 53 203 q 179 316 125 290 q 296 354 233 342 q 401 372 353 365 l 401 446 q 366 551 401 517 q 285 586 331 586 q 231 571 251 586 q 196 533 210 556 q 176 481 182 510 q 165 425 169 451 q 126 427 150 425 q 93 435 103 429 q 94 512 96 469 q 86 586 93 554 q 201 631 144 614 q 329 649 258 649 q 428 622 385 649 q 486 561 461 601 q 561 624 519 604 q 674 649 617 649 q 769 625 728 649 q 838 565 810 601 q 881 483 867 528 q 899 393 896 438 q 891 365 896 379 q 876 340 886 351 q 683 333 775 338 m 365 121 q 401 303 401 176 l 401 310 q 240 269 296 299 q 182 161 182 238 q 191 114 182 132 q 213 85 200 96 q 242 69 226 74 q 274 65 258 65 q 365 121 329 65 m 531 385 q 631 393 579 390 q 764 400 692 397 q 758 462 764 429 q 737 522 751 494 q 699 568 722 550 q 639 586 675 586 q 557 535 583 586 q 531 399 531 483 l 531 385 z "},"b":{"ha":760,"x_min":14,"x_max":704,"o":"m 358 -12 q 196 15 263 -12 q 88 82 129 42 q 110 138 101 100 q 118 258 118 176 l 118 799 q 115 842 118 824 q 101 872 113 860 q 69 891 90 885 q 14 897 49 897 q 17 925 14 913 q 26 949 19 938 q 68 953 42 949 q 122 963 94 957 q 175 978 150 969 q 213 996 200 988 q 234 979 225 992 q 243 940 243 967 l 243 578 q 239 529 243 553 q 236 515 238 524 q 254 546 247 536 q 281 579 264 561 q 324 613 299 597 q 379 638 349 628 q 444 649 410 649 q 635 575 567 649 q 704 340 704 501 q 679 203 704 267 q 609 91 654 139 q 500 15 564 43 q 358 -12 436 -12 m 243 100 q 283 71 263 83 q 365 51 317 51 q 429 63 394 51 q 494 104 464 74 q 546 187 525 135 q 567 322 567 239 q 551 435 567 389 q 512 508 535 481 q 461 549 489 536 q 411 561 433 561 q 351 547 381 561 q 297 501 321 533 q 258 419 272 469 q 243 296 243 368 l 243 100 z "},"c":{"ha":621,"x_min":56,"x_max":572,"o":"m 572 108 q 479 18 535 49 q 344 -12 424 -12 q 240 8 292 -12 q 147 70 188 29 q 81 172 106 111 q 56 315 56 233 q 74 438 56 378 q 130 544 93 497 q 220 620 167 592 q 344 649 274 649 q 554 586 475 649 q 546 507 547 546 q 544 428 544 468 q 515 419 533 421 q 481 417 496 417 q 433 540 472 497 q 333 583 394 583 q 224 519 264 583 q 185 336 185 456 q 198 235 185 283 q 236 149 211 186 q 298 89 261 111 q 383 67 335 67 q 538 147 476 67 q 558 131 549 142 q 572 108 568 121 z "},"ç":{"ha":625,"x_min":56,"x_max":572,"o":"m 572 108 q 479 18 535 49 q 365 -12 431 -8 l 324 -69 q 412 -112 379 -79 q 444 -196 444 -146 q 427 -257 444 -231 q 383 -301 410 -283 q 324 -327 356 -318 q 267 -336 293 -336 q 259 -315 261 -326 q 257 -292 257 -303 q 333 -272 299 -292 q 367 -215 367 -251 q 341 -160 367 -181 q 276 -140 315 -140 q 258 -119 265 -132 q 251 -87 251 -106 l 300 -8 q 239 8 269 -4 q 147 70 188 29 q 81 172 106 111 q 56 315 56 233 q 74 438 56 378 q 130 544 93 497 q 220 620 167 592 q 344 649 274 649 q 554 586 475 649 q 546 507 547 546 q 544 428 544 468 q 515 419 533 421 q 481 417 496 417 q 433 540 472 497 q 333 583 394 583 q 224 519 264 583 q 185 336 185 456 q 198 235 185 283 q 236 149 211 186 q 298 89 261 111 q 383 67 335 67 q 538 147 476 67 q 558 131 549 142 q 572 108 568 121 z "},"d":{"ha":781,"x_min":56,"x_max":735,"o":"m 401 649 q 471 642 442 649 q 517 629 492 636 l 517 799 q 514 842 517 824 q 500 872 511 860 q 468 891 489 885 q 413 897 447 897 q 415 925 413 913 q 425 949 418 938 q 467 953 440 949 q 521 963 493 957 q 574 978 549 969 q 611 996 599 988 q 633 979 624 992 q 642 940 642 967 l 642 176 q 660 113 643 133 q 735 90 676 93 q 733 60 735 75 q 726 31 732 46 q 688 27 711 31 q 642 18 665 24 q 599 4 619 13 q 565 -12 578 -4 q 542 6 553 -8 q 531 56 531 19 q 532 106 531 81 q 538 150 533 124 q 525 125 532 136 q 506 90 513 101 q 478 57 496 75 q 436 24 461 39 q 381 -2 411 8 q 315 -12 350 -12 q 124 61 193 -12 q 56 296 56 135 q 81 433 56 368 q 151 545 106 497 q 260 621 196 593 q 401 649 324 649 m 501 217 q 517 318 514 258 l 517 535 q 475 565 497 551 q 394 585 443 585 q 331 574 365 585 q 265 532 296 563 q 214 449 235 501 q 193 314 193 397 q 209 201 193 247 q 248 128 225 156 q 298 88 271 100 q 349 75 325 75 q 409 89 379 75 q 463 135 439 103 q 501 217 488 167 z "},"ð":{"ha":739,"x_min":60,"x_max":681,"o":"m 278 810 q 121 882 208 849 q 123 904 121 893 q 136 929 125 915 q 340 865 242 911 q 360 856 350 861 l 517 943 q 532 908 526 924 q 536 874 538 892 q 444 825 483 846 q 429 817 438 821 q 514 750 475 786 q 635 584 590 679 q 681 371 681 489 q 656 197 681 269 q 588 78 632 125 q 485 10 544 32 q 357 -11 426 -11 q 128 69 196 -11 q 60 296 60 149 q 90 441 60 382 q 165 537 119 500 q 268 590 211 574 q 379 607 325 607 q 463 590 422 607 q 506 567 486 581 q 435 686 479 633 q 343 769 396 732 q 290 738 318 754 q 192 681 249 714 q 176 717 183 696 q 171 750 169 739 l 278 810 m 540 356 q 529 481 540 424 q 482 517 508 500 q 367 543 436 543 q 299 531 331 543 q 244 491 268 518 q 207 421 221 464 q 193 315 193 378 q 243 128 193 189 q 372 67 293 67 q 425 81 396 67 q 480 128 454 94 q 523 217 506 161 q 540 356 540 272 z "},"e":{"ha":658,"x_min":56,"x_max":603,"o":"m 282 310 q 193 306 236 308 q 200 246 194 275 q 233 156 210 196 q 294 90 256 115 q 394 65 333 65 q 485 85 440 65 q 564 146 529 106 q 585 126 575 139 q 597 103 594 114 q 488 14 549 40 q 350 -12 426 -12 q 221 14 276 -12 q 128 85 165 40 q 74 190 92 129 q 56 318 56 250 q 76 444 56 385 q 133 550 96 504 q 223 622 169 596 q 343 649 276 649 q 458 626 411 649 q 536 564 506 603 q 583 473 567 525 q 603 361 599 421 q 582 314 597 333 l 511 314 q 405 313 464 314 q 282 310 346 313 m 203 461 q 192 376 194 426 l 458 376 q 425 525 458 468 q 331 582 392 582 q 281 572 306 582 q 235 534 256 561 q 203 461 215 507 z "},"è":{"ha":658,"x_min":56,"x_max":603,"o":"m 282 310 q 193 306 236 308 q 200 246 194 275 q 233 156 210 196 q 294 90 256 115 q 394 65 333 65 q 485 85 440 65 q 564 146 529 106 q 585 126 575 139 q 597 103 594 114 q 488 14 549 40 q 350 -12 426 -12 q 221 14 276 -12 q 128 85 165 40 q 74 190 92 129 q 56 318 56 250 q 76 444 56 385 q 133 550 96 504 q 223 622 169 596 q 343 649 276 649 q 458 626 411 649 q 536 564 506 603 q 583 473 567 525 q 603 361 599 421 q 582 314 597 333 l 511 314 q 405 313 464 314 q 282 310 346 313 m 203 461 q 192 376 194 426 l 458 376 q 425 525 458 468 q 331 582 392 582 q 281 572 306 582 q 235 534 256 561 q 203 461 215 507 m 368 746 q 341 740 356 739 q 313 743 326 740 q 222 874 264 818 q 136 978 181 931 q 199 993 164 992 q 269 989 235 994 q 311 869 288 929 q 368 746 335 808 z "},"é":{"ha":658,"x_min":56,"x_max":603,"o":"m 282 310 q 193 306 236 308 q 200 246 194 275 q 233 156 210 196 q 294 90 256 115 q 394 65 333 65 q 485 85 440 65 q 564 146 529 106 q 585 126 575 139 q 597 103 594 114 q 488 14 549 40 q 350 -12 426 -12 q 221 14 276 -12 q 128 85 165 40 q 74 190 92 129 q 56 318 56 250 q 76 444 56 385 q 133 550 96 504 q 223 622 169 596 q 343 649 276 649 q 458 626 411 649 q 536 564 506 603 q 583 473 567 525 q 603 361 599 421 q 582 314 597 333 l 511 314 q 405 313 464 314 q 282 310 346 313 m 203 461 q 192 376 194 426 l 458 376 q 425 525 458 468 q 331 582 392 582 q 281 572 306 582 q 235 534 256 561 q 203 461 215 507 m 311 746 q 366 874 344 815 q 401 985 388 932 q 458 999 432 996 q 504 1001 483 1003 q 527 997 517 1000 q 544 992 538 994 q 450 870 499 939 q 361 738 401 801 q 335 738 349 736 q 311 746 322 740 z "},"ê":{"ha":658,"x_min":56,"x_max":603,"o":"m 282 310 q 193 306 236 308 q 200 246 194 275 q 233 156 210 196 q 294 90 256 115 q 394 65 333 65 q 485 85 440 65 q 564 146 529 106 q 585 126 575 139 q 597 103 594 114 q 488 14 549 40 q 350 -12 426 -12 q 221 14 276 -12 q 128 85 165 40 q 74 190 92 129 q 56 318 56 250 q 76 444 56 385 q 133 550 96 504 q 223 622 169 596 q 343 649 276 649 q 458 626 411 649 q 536 564 506 603 q 583 473 567 525 q 603 361 599 421 q 582 314 597 333 l 511 314 q 405 313 464 314 q 282 310 346 313 m 203 461 q 192 376 194 426 l 458 376 q 425 525 458 468 q 331 582 392 582 q 281 572 306 582 q 235 534 256 561 q 203 461 215 507 m 111 771 q 223 867 164 811 q 329 979 282 922 q 353 983 340 982 q 374 985 365 985 q 463 874 411 933 q 576 751 514 814 q 535 726 563 733 q 488 760 513 742 l 438 796 q 388 830 413 814 q 340 858 363 846 q 295 832 324 850 q 235 793 267 814 q 173 751 203 772 q 126 718 143 731 q 114 744 117 728 q 111 771 111 761 z "},"ë":{"ha":658,"x_min":56,"x_max":603,"o":"m 282 310 q 193 306 236 308 q 200 246 194 275 q 233 156 210 196 q 294 90 256 115 q 394 65 333 65 q 485 85 440 65 q 564 146 529 106 q 585 126 575 139 q 597 103 594 114 q 488 14 549 40 q 350 -12 426 -12 q 221 14 276 -12 q 128 85 165 40 q 74 190 92 129 q 56 318 56 250 q 76 444 56 385 q 133 550 96 504 q 223 622 169 596 q 343 649 276 649 q 458 626 411 649 q 536 564 506 603 q 583 473 567 525 q 603 361 599 421 q 582 314 597 333 l 511 314 q 405 313 464 314 q 282 310 346 313 m 203 461 q 192 376 194 426 l 458 376 q 425 525 458 468 q 331 582 392 582 q 281 572 306 582 q 235 534 256 561 q 203 461 215 507 m 213 739 q 155 759 176 739 q 133 810 133 779 q 151 865 133 840 q 210 889 169 889 q 270 867 251 889 q 289 813 289 844 q 267 760 289 781 q 213 739 244 739 m 481 889 q 538 869 515 889 q 560 818 560 850 q 543 765 560 789 q 485 740 526 740 q 424 762 444 740 q 403 818 403 783 q 424 870 403 851 q 481 889 446 889 z "},"f":{"ha":475,"x_min":50,"x_max":583,"o":"m 286 622 l 428 622 q 425 591 428 608 q 414 560 422 574 q 286 543 340 560 l 286 204 q 293 131 286 158 q 315 86 300 103 q 353 63 331 69 q 410 56 376 57 q 417 -4 417 36 q 338 -1 385 -1 q 242 0 290 0 l 190 0 q 139 -1 164 0 q 93 -2 114 -1 q 58 -4 72 -3 q 65 56 58 36 q 141 83 121 58 q 161 176 161 107 l 161 547 q 101 557 131 554 q 50 560 71 560 q 69 622 50 597 l 161 622 l 161 678 q 186 815 161 756 q 252 913 211 874 q 345 972 293 953 q 451 992 397 992 q 533 981 506 992 q 583 957 560 971 q 579 872 581 913 q 578 794 578 832 q 539 786 560 789 q 499 783 518 783 q 474 878 499 840 q 390 915 449 915 q 310 865 333 915 q 286 721 286 814 l 286 622 z "},"g":{"ha":710,"x_min":57,"x_max":654,"o":"m 329 649 q 417 636 378 649 l 644 636 q 652 595 650 618 q 654 550 654 572 q 615 558 638 554 q 570 566 593 563 q 525 572 547 569 l 519 572 l 525 567 q 569 494 556 533 q 583 426 583 456 q 567 335 583 378 q 519 261 551 293 q 440 211 488 229 q 332 193 393 193 q 236 207 282 193 q 225 211 231 210 q 201 182 210 196 q 190 146 190 161 q 197 115 190 126 q 224 98 203 104 q 285 90 246 92 q 392 88 325 88 q 509 79 461 88 q 587 53 557 71 q 630 5 617 35 q 643 -67 643 -25 q 617 -163 643 -114 q 546 -253 592 -212 q 437 -320 500 -294 q 299 -346 374 -346 q 113 -298 169 -346 q 57 -158 57 -250 q 85 -67 57 -106 q 158 -8 110 -32 q 133 3 144 -3 q 102 40 111 18 q 93 94 93 63 q 119 183 93 140 q 167 242 139 215 l 156 250 q 100 320 121 278 q 79 418 79 363 q 95 508 79 465 q 142 581 111 550 q 220 631 174 613 q 329 649 267 649 m 299 -24 q 222 -21 254 -24 q 189 -64 199 -42 q 176 -129 176 -92 q 211 -236 176 -200 q 332 -272 246 -272 q 414 -260 378 -272 q 476 -226 450 -247 q 515 -178 501 -206 q 528 -121 528 -150 q 519 -76 528 -94 q 485 -46 510 -57 q 415 -29 460 -35 q 299 -24 369 -24 m 315 586 q 267 574 288 586 q 233 540 247 561 q 213 492 219 519 q 207 436 207 465 q 244 303 207 349 q 349 257 282 257 q 424 294 394 257 q 453 406 453 332 q 444 476 453 443 q 417 533 435 508 q 374 572 399 557 q 315 586 349 586 z "},"h":{"ha":826,"x_min":49,"x_max":778,"o":"m 689 176 q 709 80 689 104 q 771 56 729 56 q 776 29 775 43 q 778 -4 778 15 q 708 -1 747 -1 q 626 0 669 0 q 538 -1 583 0 q 461 -4 493 -3 q 468 56 461 36 q 541 81 518 56 q 564 176 564 107 l 564 388 q 554 469 564 436 q 527 521 544 501 q 486 549 510 540 q 435 557 463 557 q 379 544 407 557 q 329 504 351 532 q 292 433 307 476 q 278 325 278 389 l 278 176 q 299 81 278 107 q 374 56 319 56 q 379 29 378 43 q 381 -4 381 15 q 305 -1 351 -3 q 215 0 258 0 q 126 -1 172 0 q 50 -4 81 -1 q 57 56 50 36 q 132 81 111 56 q 153 176 153 107 l 153 799 q 150 842 153 824 q 136 872 147 860 q 104 891 125 885 q 49 897 83 897 q 51 925 49 913 q 61 949 54 938 q 103 953 76 949 q 157 963 129 957 q 210 978 185 969 q 247 996 235 988 q 269 979 260 992 q 278 940 278 967 l 278 588 q 276 550 278 571 q 268 506 275 529 q 276 522 272 513 q 289 542 281 531 q 319 576 300 558 q 365 608 339 593 q 422 632 390 622 q 490 642 453 642 q 565 630 529 642 q 629 592 601 618 q 673 522 657 565 q 689 415 689 479 l 689 176 z "},"i":{"ha":419,"x_min":50,"x_max":368,"o":"m 124 886 q 149 947 124 924 q 206 971 174 971 q 266 947 243 971 q 289 886 289 924 q 265 830 289 854 q 206 806 240 806 q 147 829 169 806 q 124 886 124 853 m 279 176 q 298 81 279 107 q 361 56 317 56 q 367 23 365 40 q 368 -4 368 6 q 292 -1 332 -1 q 211 0 251 0 q 128 -1 171 0 q 51 -4 86 -1 q 53 26 51 10 q 58 56 54 42 q 134 81 114 56 q 154 176 154 107 l 154 451 q 151 494 154 476 q 138 525 149 513 q 106 544 126 538 q 50 550 85 550 q 53 578 50 565 q 63 601 56 590 q 104 606 78 601 q 158 616 131 610 q 211 631 186 622 q 249 649 236 640 q 270 632 261 644 q 279 593 279 619 l 279 176 z "},"ì":{"ha":444,"x_min":-15,"x_max":368,"o":"m 217 746 q 190 740 204 739 q 161 743 175 740 q 71 874 113 818 q -15 978 29 931 q 48 993 13 992 q 118 989 83 994 q 160 869 136 929 q 217 746 183 808 m 279 176 q 298 81 279 107 q 361 56 317 56 q 367 23 365 40 q 368 -4 368 6 q 292 -1 332 -1 q 211 0 251 0 q 128 -1 171 0 q 51 -4 86 -1 q 53 26 51 10 q 58 56 54 42 q 134 81 114 56 q 154 176 154 107 l 154 451 q 151 494 154 476 q 138 525 149 513 q 106 544 126 538 q 50 550 85 550 q 53 578 50 565 q 63 601 56 590 q 104 606 78 601 q 158 616 131 610 q 211 631 186 622 q 249 649 236 640 q 270 632 261 644 q 279 593 279 619 l 279 176 z "},"í":{"ha":450,"x_min":50,"x_max":407,"o":"m 174 746 q 228 874 207 815 q 264 985 250 932 q 320 999 294 996 q 367 1001 346 1003 q 390 997 379 1000 q 407 992 400 994 q 313 870 361 939 q 224 738 264 801 q 198 738 211 736 q 174 746 185 740 m 279 176 q 298 81 279 107 q 361 56 317 56 q 367 23 365 40 q 368 -4 368 6 q 292 -1 332 -1 q 211 0 251 0 q 128 -1 171 0 q 51 -4 86 -1 q 53 26 51 10 q 58 56 54 42 q 134 81 114 56 q 154 176 154 107 l 154 451 q 151 494 154 476 q 138 525 149 513 q 106 544 126 538 q 50 550 85 550 q 53 578 50 565 q 63 601 56 590 q 104 606 78 601 q 158 616 131 610 q 211 631 186 622 q 249 649 236 640 q 270 632 261 644 q 279 593 279 619 l 279 176 z "},"î":{"ha":435,"x_min":-19,"x_max":446,"o":"m -19 771 q 92 867 33 811 q 199 979 151 922 q 222 983 210 982 q 243 985 235 985 q 332 874 281 933 q 446 751 383 814 q 404 726 432 733 q 357 760 382 742 l 307 796 q 257 830 282 814 q 210 858 232 846 q 165 832 193 850 q 104 793 136 814 q 42 751 72 772 q -4 718 13 731 q -17 744 -14 728 q -19 771 -19 761 m 279 176 q 298 81 279 107 q 361 56 317 56 q 367 23 365 40 q 368 -4 368 6 q 292 -1 332 -1 q 211 0 251 0 q 128 -1 171 0 q 51 -4 86 -1 q 53 26 51 10 q 58 56 54 42 q 134 81 114 56 q 154 176 154 107 l 154 451 q 151 494 154 476 q 138 525 149 513 q 106 544 126 538 q 50 550 85 550 q 53 578 50 565 q 63 601 56 590 q 104 606 78 601 q 158 616 131 610 q 211 631 186 622 q 249 649 236 640 q 270 632 261 644 q 279 593 279 619 l 279 176 z "},"ï":{"ha":414,"x_min":-10,"x_max":417,"o":"m 69 739 q 12 759 33 739 q -10 810 -10 779 q 8 865 -10 840 q 67 889 26 889 q 127 867 108 889 q 146 813 146 844 q 124 760 146 781 q 69 739 101 739 m 338 889 q 394 869 372 889 q 417 818 417 850 q 400 765 417 789 q 342 740 383 740 q 281 762 301 740 q 260 818 260 783 q 281 870 260 851 q 338 889 303 889 m 279 176 q 298 81 279 107 q 361 56 317 56 q 367 23 365 40 q 368 -4 368 6 q 292 -1 332 -1 q 211 0 251 0 q 128 -1 171 0 q 51 -4 86 -1 q 53 26 51 10 q 58 56 54 42 q 134 81 114 56 q 154 176 154 107 l 154 451 q 151 494 154 476 q 138 525 149 513 q 106 544 126 538 q 50 550 85 550 q 53 578 50 565 q 63 601 56 590 q 104 606 78 601 q 158 616 131 610 q 211 631 186 622 q 249 649 236 640 q 270 632 261 644 q 279 593 279 619 l 279 176 z "},"ı":{"ha":444,"x_min":50,"x_max":368,"o":"m 279 176 q 298 81 279 107 q 361 56 317 56 q 367 23 365 40 q 368 -4 368 6 q 292 -1 332 -1 q 211 0 251 0 q 128 -1 171 0 q 51 -4 86 -1 q 53 26 51 10 q 58 56 54 42 q 134 81 114 56 q 154 176 154 107 l 154 451 q 151 494 154 476 q 138 525 149 513 q 106 544 126 538 q 50 550 85 550 q 53 578 50 565 q 63 601 56 590 q 104 606 78 601 q 158 616 131 610 q 211 631 186 622 q 249 649 236 640 q 270 632 261 644 q 279 593 279 619 l 279 176 z "},"j":{"ha":393,"x_min":18,"x_max":289,"o":"m 154 451 q 151 494 154 476 q 138 525 149 513 q 106 544 126 538 q 50 550 85 550 q 53 578 50 565 q 63 601 56 590 q 104 606 78 601 q 158 616 131 610 q 211 631 186 622 q 249 649 236 640 q 270 632 261 644 q 279 593 279 619 l 279 32 q 258 -99 279 -39 q 203 -206 236 -158 q 128 -290 169 -254 q 49 -346 88 -325 q 29 -331 38 -340 q 18 -307 21 -321 q 86 -219 60 -260 q 128 -140 113 -179 q 149 -59 143 -101 q 154 36 154 -17 l 154 451 m 124 886 q 149 947 124 924 q 206 971 174 971 q 266 947 243 971 q 289 886 289 924 q 265 830 289 854 q 206 806 240 806 q 147 829 169 806 q 124 886 124 853 z "},"ȷ":{"ha":382,"x_min":18,"x_max":279,"o":"m 154 451 q 151 494 154 476 q 138 525 149 513 q 106 544 126 538 q 50 550 85 550 q 53 578 50 565 q 63 601 56 590 q 104 606 78 601 q 158 616 131 610 q 211 631 186 622 q 249 649 236 640 q 270 632 261 644 q 279 593 279 619 l 279 32 q 258 -99 279 -39 q 203 -206 236 -158 q 128 -290 169 -254 q 49 -346 88 -325 q 29 -331 38 -340 q 18 -307 21 -321 q 86 -219 60 -260 q 128 -140 113 -179 q 149 -59 143 -101 q 154 36 154 -17 l 154 451 z "},"k":{"ha":757,"x_min":49,"x_max":729,"o":"m 153 799 q 150 842 153 824 q 136 872 147 860 q 104 891 125 885 q 49 897 83 897 q 51 925 49 913 q 61 949 54 938 q 103 953 76 949 q 157 963 129 957 q 210 978 185 969 q 247 996 235 988 q 269 979 260 992 q 278 940 278 967 l 278 363 l 371 449 q 439 518 418 492 q 460 560 460 544 q 419 582 460 582 q 411 639 411 608 q 492 636 456 636 l 614 636 q 686 639 649 636 q 684 609 686 625 q 676 581 682 593 q 597 561 636 579 q 507 496 558 543 l 386 386 q 410 358 397 372 q 461 300 435 332 q 518 231 488 268 q 585 147 549 193 q 625 101 608 118 q 657 75 642 83 q 689 64 672 67 q 729 60 706 61 q 722 0 729 19 q 631 -3 672 0 q 544 -12 590 -6 q 492 63 526 17 q 417 160 458 108 q 333 260 376 211 q 278 322 304 294 l 278 176 q 297 81 278 107 q 360 56 315 56 q 365 23 364 40 q 367 -4 367 6 q 290 -1 331 -1 q 210 0 250 0 q 127 -1 169 0 q 50 -4 85 -1 q 51 26 50 10 q 57 56 53 42 q 133 81 113 56 q 153 176 153 107 l 153 799 z "},"l":{"ha":417,"x_min":49,"x_max":367,"o":"m 153 799 q 150 842 153 824 q 136 872 147 860 q 104 891 125 885 q 49 897 83 897 q 51 925 49 913 q 61 949 54 938 q 103 953 76 949 q 157 963 129 957 q 210 978 185 969 q 247 996 235 988 q 269 979 260 992 q 278 940 278 967 l 278 176 q 297 81 278 107 q 360 56 315 56 q 365 23 364 40 q 367 -4 367 6 q 290 -1 331 -1 q 210 0 250 0 q 127 -1 169 0 q 50 -4 85 -1 q 51 26 50 10 q 57 56 53 42 q 133 81 113 56 q 153 176 153 107 l 153 799 z "},"m":{"ha":1228,"x_min":50,"x_max":1179,"o":"m 63 601 q 106 607 81 603 q 156 618 131 611 q 205 633 182 625 q 242 649 228 640 q 263 632 254 644 q 272 593 272 619 q 269 540 272 569 q 267 506 269 526 q 275 525 272 518 q 289 549 285 543 q 319 583 300 565 q 363 615 338 600 q 419 639 388 629 q 488 649 451 649 q 594 622 546 649 q 665 532 643 596 q 671 497 669 518 q 679 518 675 510 q 694 542 686 531 q 724 576 706 558 q 769 608 743 593 q 826 632 794 622 q 893 642 857 642 q 967 630 932 642 q 1030 592 1003 618 q 1073 522 1057 565 q 1089 415 1089 479 l 1089 176 q 1094 117 1089 140 q 1109 81 1099 94 q 1135 63 1119 68 q 1172 56 1151 57 q 1178 29 1176 43 q 1179 -4 1179 15 q 1108 -1 1147 -1 q 1028 0 1069 0 q 942 -1 986 0 q 863 -4 897 -1 q 869 56 863 36 q 945 83 925 58 q 965 176 965 107 l 965 388 q 956 469 965 436 q 929 521 946 501 q 889 549 913 540 q 838 557 865 557 q 783 544 811 557 q 733 504 756 532 q 697 433 711 476 q 683 325 683 389 l 683 176 q 689 117 683 140 q 706 81 694 94 q 735 63 717 68 q 781 56 754 57 q 786 29 785 43 q 788 -4 788 15 q 707 -1 751 -1 q 622 0 663 0 q 538 -1 582 0 q 457 -4 494 -1 q 464 56 457 36 q 540 83 519 58 q 560 176 560 107 l 560 394 q 550 476 560 443 q 524 528 540 508 q 483 556 507 547 q 432 564 460 564 q 378 551 406 564 q 328 511 350 539 q 292 440 306 483 q 278 332 278 396 l 278 176 q 299 83 278 107 q 375 56 319 58 q 381 29 379 43 q 382 -4 382 15 q 299 -1 346 -1 q 217 0 253 0 q 133 -1 181 0 q 51 -4 85 -1 q 58 56 51 36 q 134 83 114 58 q 154 176 154 107 l 154 451 q 151 494 154 476 q 136 524 147 513 q 105 542 125 536 q 50 550 85 549 q 53 578 50 565 q 63 601 56 590 z "},"n":{"ha":828,"x_min":50,"x_max":779,"o":"m 690 176 q 710 80 690 104 q 772 56 731 56 q 778 29 776 43 q 779 -4 779 15 q 710 -1 749 -1 q 628 0 671 0 q 540 -1 585 0 q 463 -4 494 -3 q 469 56 463 36 q 542 81 519 56 q 565 176 565 107 l 565 388 q 556 469 565 436 q 528 521 546 501 q 488 549 511 540 q 436 557 464 557 q 381 544 408 557 q 331 504 353 532 q 294 433 308 476 q 279 325 279 389 l 279 176 q 300 81 279 107 q 375 56 321 56 q 381 29 379 43 q 382 -4 382 15 q 306 -1 353 -3 q 217 0 260 0 q 128 -1 174 0 q 51 -4 82 -1 q 58 56 51 36 q 133 81 113 56 q 154 176 154 107 l 154 451 q 151 494 154 476 q 136 524 147 513 q 105 542 125 536 q 50 550 85 549 q 53 578 50 565 q 63 601 56 590 q 109 608 83 603 q 160 619 135 613 q 209 633 186 625 q 249 649 232 640 q 270 631 261 644 q 279 588 279 618 q 278 550 279 571 q 269 506 276 529 q 278 522 274 513 q 290 542 282 531 q 321 576 301 558 q 366 608 340 593 q 423 632 392 622 q 492 642 454 642 q 567 630 531 642 q 631 592 603 618 q 674 522 658 565 q 690 415 690 479 l 690 176 z "},"ñ":{"ha":828,"x_min":50,"x_max":779,"o":"m 203 718 q 189 744 189 726 q 268 844 231 818 q 340 871 306 871 q 388 862 365 871 q 434 842 411 853 q 479 823 457 832 q 525 814 501 814 q 567 824 546 814 q 610 857 588 833 q 623 855 615 857 q 636 846 631 853 q 567 740 600 768 q 501 713 533 713 q 455 722 478 713 q 408 742 432 731 q 360 763 385 754 q 310 772 336 772 q 258 760 285 772 q 203 718 232 749 m 690 176 q 710 80 690 104 q 772 56 731 56 q 778 29 776 43 q 779 -4 779 15 q 710 -1 749 -1 q 628 0 671 0 q 540 -1 585 0 q 463 -4 494 -3 q 469 56 463 36 q 542 81 519 56 q 565 176 565 107 l 565 388 q 556 469 565 436 q 528 521 546 501 q 488 549 511 540 q 436 557 464 557 q 381 544 408 557 q 331 504 353 532 q 294 433 308 476 q 279 325 279 389 l 279 176 q 300 81 279 107 q 375 56 321 56 q 381 29 379 43 q 382 -4 382 15 q 306 -1 353 -3 q 217 0 260 0 q 128 -1 174 0 q 51 -4 82 -1 q 58 56 51 36 q 133 81 113 56 q 154 176 154 107 l 154 451 q 151 494 154 476 q 136 524 147 513 q 105 542 125 536 q 50 550 85 549 q 53 578 50 565 q 63 601 56 590 q 109 608 83 603 q 160 619 135 613 q 209 633 186 625 q 249 649 232 640 q 270 631 261 644 q 279 588 279 618 q 278 550 279 571 q 269 506 276 529 q 278 522 274 513 q 290 542 282 531 q 321 576 301 558 q 366 608 340 593 q 423 632 392 622 q 492 642 454 642 q 567 630 531 642 q 631 592 603 618 q 674 522 658 565 q 690 415 690 479 l 690 176 z "},"o":{"ha":739,"x_min":56,"x_max":683,"o":"m 196 347 q 246 130 196 206 q 381 54 296 54 q 504 123 464 54 q 544 301 544 192 q 529 417 544 365 q 488 506 514 469 q 428 563 463 543 q 356 582 394 582 q 235 517 275 582 q 196 347 196 451 m 56 318 q 78 449 56 389 q 143 554 101 510 q 242 624 185 599 q 369 649 300 649 q 501 625 443 649 q 600 558 560 601 q 662 453 640 514 q 683 318 683 392 q 660 186 683 247 q 597 81 638 125 q 498 13 556 38 q 369 -12 440 -12 q 240 11 299 -12 q 141 78 182 35 q 78 182 100 121 q 56 318 56 243 z "},"ò":{"ha":739,"x_min":56,"x_max":683,"o":"m 196 347 q 246 130 196 206 q 381 54 296 54 q 504 123 464 54 q 544 301 544 192 q 529 417 544 365 q 488 506 514 469 q 428 563 463 543 q 356 582 394 582 q 235 517 275 582 q 196 347 196 451 m 56 318 q 78 449 56 389 q 143 554 101 510 q 242 624 185 599 q 369 649 300 649 q 501 625 443 649 q 600 558 560 601 q 662 453 640 514 q 683 318 683 392 q 660 186 683 247 q 597 81 638 125 q 498 13 556 38 q 369 -12 440 -12 q 240 11 299 -12 q 141 78 182 35 q 78 182 100 121 q 56 318 56 243 m 394 746 q 367 740 382 739 q 339 743 353 740 q 249 874 290 818 q 163 978 207 931 q 226 993 190 992 q 296 989 261 994 q 338 869 314 929 q 394 746 361 808 z "},"ó":{"ha":739,"x_min":56,"x_max":683,"o":"m 196 347 q 246 130 196 206 q 381 54 296 54 q 504 123 464 54 q 544 301 544 192 q 529 417 544 365 q 488 506 514 469 q 428 563 463 543 q 356 582 394 582 q 235 517 275 582 q 196 347 196 451 m 56 318 q 78 449 56 389 q 143 554 101 510 q 242 624 185 599 q 369 649 300 649 q 501 625 443 649 q 600 558 560 601 q 662 453 640 514 q 683 318 683 392 q 660 186 683 247 q 597 81 638 125 q 498 13 556 38 q 369 -12 440 -12 q 240 11 299 -12 q 141 78 182 35 q 78 182 100 121 q 56 318 56 243 m 336 746 q 391 874 369 815 q 426 985 413 932 q 483 999 457 996 q 529 1001 508 1003 q 552 997 542 1000 q 569 992 563 994 q 475 870 524 939 q 386 738 426 801 q 360 738 374 736 q 336 746 347 740 z "},"ô":{"ha":739,"x_min":56,"x_max":683,"o":"m 196 347 q 246 130 196 206 q 381 54 296 54 q 504 123 464 54 q 544 301 544 192 q 529 417 544 365 q 488 506 514 469 q 428 563 463 543 q 356 582 394 582 q 235 517 275 582 q 196 347 196 451 m 56 318 q 78 449 56 389 q 143 554 101 510 q 242 624 185 599 q 369 649 300 649 q 501 625 443 649 q 600 558 560 601 q 662 453 640 514 q 683 318 683 392 q 660 186 683 247 q 597 81 638 125 q 498 13 556 38 q 369 -12 440 -12 q 240 11 299 -12 q 141 78 182 35 q 78 182 100 121 q 56 318 56 243 m 140 771 q 252 867 193 811 q 358 979 311 922 q 382 983 369 982 q 403 985 394 985 q 492 874 440 933 q 606 751 543 814 q 564 726 592 733 q 517 760 542 742 l 467 796 q 417 830 442 814 q 369 858 392 846 q 324 832 353 850 q 264 793 296 814 q 202 751 232 772 q 156 718 172 731 q 143 744 146 728 q 140 771 140 761 z "},"õ":{"ha":739,"x_min":56,"x_max":683,"o":"m 196 347 q 246 130 196 206 q 381 54 296 54 q 504 123 464 54 q 544 301 544 192 q 529 417 544 365 q 488 506 514 469 q 428 563 463 543 q 356 582 394 582 q 235 517 275 582 q 196 347 196 451 m 56 318 q 78 449 56 389 q 143 554 101 510 q 242 624 185 599 q 369 649 300 649 q 501 625 443 649 q 600 558 560 601 q 662 453 640 514 q 683 318 683 392 q 660 186 683 247 q 597 81 638 125 q 498 13 556 38 q 369 -12 440 -12 q 240 11 299 -12 q 141 78 182 35 q 78 182 100 121 q 56 318 56 243 m 169 718 q 156 744 156 726 q 235 844 197 818 q 307 871 272 871 q 355 862 332 871 q 401 842 378 853 q 446 823 424 832 q 492 814 468 814 q 533 824 513 814 q 576 857 554 833 q 590 855 582 857 q 603 846 597 853 q 533 740 567 768 q 468 713 500 713 q 422 722 444 713 q 375 742 399 731 q 327 763 351 754 q 276 772 303 772 q 225 760 251 772 q 169 718 199 749 z "},"ö":{"ha":739,"x_min":56,"x_max":683,"o":"m 196 347 q 246 130 196 206 q 381 54 296 54 q 504 123 464 54 q 544 301 544 192 q 529 417 544 365 q 488 506 514 469 q 428 563 463 543 q 356 582 394 582 q 235 517 275 582 q 196 347 196 451 m 56 318 q 78 449 56 389 q 143 554 101 510 q 242 624 185 599 q 369 649 300 649 q 501 625 443 649 q 600 558 560 601 q 662 453 640 514 q 683 318 683 392 q 660 186 683 247 q 597 81 638 125 q 498 13 556 38 q 369 -12 440 -12 q 240 11 299 -12 q 141 78 182 35 q 78 182 100 121 q 56 318 56 243 m 224 739 q 166 759 188 739 q 144 810 144 779 q 163 865 144 840 q 221 889 181 889 q 281 867 263 889 q 300 813 300 844 q 278 760 300 781 q 224 739 256 739 m 492 889 q 549 869 526 889 q 571 818 571 850 q 554 765 571 789 q 496 740 538 740 q 435 762 456 740 q 414 818 414 783 q 435 870 414 851 q 492 889 457 889 z "},"ø":{"ha":744,"x_min":56,"x_max":689,"o":"m 61 318 q 84 449 61 389 q 149 554 107 510 q 248 624 190 599 q 375 649 306 649 q 507 625 449 649 q 549 604 529 615 l 600 669 q 635 660 622 667 q 661 636 647 653 l 603 560 l 606 557 q 667 453 646 514 q 689 318 689 392 q 666 186 689 247 q 602 81 643 125 q 503 13 561 38 q 375 -12 446 -12 q 246 11 304 -12 q 190 39 215 22 l 117 -54 q 80 -45 97 -54 q 56 -24 63 -36 l 142 82 q 83 182 104 124 q 61 318 61 243 m 386 54 q 510 123 469 54 q 550 301 550 192 q 535 417 550 365 q 519 458 528 439 l 257 121 q 386 54 306 54 m 201 347 q 224 186 201 251 l 482 521 q 433 563 461 547 q 361 582 400 582 q 241 517 281 582 q 201 347 201 451 z "},"p":{"ha":794,"x_min":49,"x_max":739,"o":"m 393 -12 q 324 -6 353 -12 q 278 6 303 0 l 278 -149 q 287 -213 279 -189 q 310 -252 294 -237 q 347 -273 325 -267 q 401 -281 369 -279 q 408 -340 408 -300 q 329 -337 376 -337 q 233 -336 282 -336 l 182 -336 q 131 -337 156 -336 q 85 -338 106 -337 q 50 -340 64 -339 q 57 -281 50 -300 q 133 -253 113 -278 q 153 -160 153 -229 l 153 451 q 149 494 153 476 q 135 524 146 513 q 103 542 124 536 q 49 550 83 549 q 51 578 49 565 q 61 601 54 590 q 108 608 82 603 q 159 619 133 613 q 208 633 185 625 q 247 649 231 640 q 269 631 260 644 q 278 588 278 618 q 268 526 278 556 q 254 483 263 508 l 268 511 q 289 546 282 535 q 316 579 299 561 q 358 613 333 597 q 414 638 383 628 q 479 649 444 649 q 670 576 601 649 q 739 353 739 504 q 714 208 739 275 q 644 92 689 142 q 535 15 599 43 q 393 -12 471 -12 m 292 418 q 278 317 279 375 l 278 100 q 318 71 297 83 q 400 51 351 51 q 464 63 429 51 q 529 104 499 74 q 581 187 560 135 q 601 322 601 239 q 557 497 601 432 q 446 561 513 561 q 385 547 415 561 q 331 501 356 533 q 292 418 307 469 z "},"þ":{"ha":806,"x_min":60,"x_max":722,"o":"m 376 -12 q 307 -6 336 -12 l 289 -1 l 289 -160 q 294 -219 289 -196 q 310 -256 299 -243 q 344 -275 322 -269 q 399 -281 365 -281 q 404 -307 403 -293 q 406 -340 406 -321 q 323 -337 372 -337 q 233 -336 274 -336 q 146 -337 193 -336 q 61 -340 99 -337 q 68 -281 61 -300 q 144 -255 124 -281 q 164 -160 164 -229 l 164 799 q 160 842 164 824 q 146 872 157 860 q 115 891 135 885 q 60 897 94 897 q 63 925 60 913 q 72 949 65 938 q 114 953 88 949 q 168 963 140 957 q 221 978 196 969 q 258 996 246 988 q 280 979 271 992 q 289 940 289 967 l 289 590 q 288 567 289 579 q 299 579 293 572 q 342 613 317 597 q 397 638 367 628 q 463 649 428 649 q 653 575 585 649 q 722 340 722 501 q 697 203 722 267 q 627 91 672 139 q 518 15 582 43 q 376 -12 454 -12 m 289 78 q 301 71 296 75 q 383 51 335 51 q 447 63 413 51 q 513 104 482 74 q 564 187 543 135 q 585 322 585 239 q 569 435 585 389 q 530 508 553 481 q 479 549 507 536 q 429 561 451 561 q 369 547 399 561 q 314 501 339 533 q 279 431 293 474 l 289 425 l 289 78 z "},"q":{"ha":758,"x_min":56,"x_max":744,"o":"m 407 -281 q 461 -273 440 -279 q 494 -253 482 -267 q 512 -217 507 -240 q 517 -160 517 -194 l 517 28 q 522 97 517 63 q 533 161 526 124 q 522 133 528 147 q 497 88 510 104 q 463 53 483 69 q 417 25 442 38 q 366 6 393 13 q 311 -1 339 -1 q 215 17 261 -1 q 133 74 168 36 q 76 167 97 111 q 56 297 56 222 q 80 432 56 368 q 149 544 104 496 q 256 620 193 592 q 394 649 318 649 q 558 624 490 649 q 669 556 625 599 q 649 501 656 535 q 642 404 642 467 l 642 -160 q 662 -253 642 -229 q 738 -281 682 -278 q 743 -307 742 -293 q 744 -340 744 -321 q 712 -338 732 -339 q 668 -337 692 -337 q 619 -336 644 -336 l 572 -336 q 482 -337 528 -336 q 400 -340 436 -337 q 407 -281 400 -300 m 501 210 q 517 307 514 250 l 517 536 q 468 569 501 553 q 400 585 435 585 q 251 515 308 585 q 193 315 193 446 q 208 206 193 250 q 248 134 224 161 q 303 95 272 107 q 363 83 333 83 q 413 95 386 83 q 463 135 440 107 q 501 210 486 164 z "},"r":{"ha":582,"x_min":50,"x_max":554,"o":"m 290 414 q 279 351 281 383 l 279 204 q 286 131 279 158 q 308 86 293 103 q 347 63 324 69 q 403 56 369 57 q 410 -4 410 36 q 331 -1 378 -1 q 235 0 283 0 l 183 0 q 132 -1 157 0 q 86 -2 107 -1 q 51 -4 65 -3 q 58 56 51 36 q 134 83 114 58 q 154 176 154 107 l 154 451 q 151 494 154 476 q 136 524 147 513 q 105 542 125 536 q 50 550 85 549 q 53 578 50 565 q 63 601 56 590 q 109 608 83 603 q 160 619 135 613 q 209 633 186 625 q 249 649 232 640 q 270 631 261 644 q 279 588 279 618 q 271 501 279 539 l 258 444 q 271 482 267 465 q 290 524 279 507 q 363 604 321 572 q 458 636 404 636 q 509 628 486 636 q 554 603 532 619 q 547 522 549 568 q 544 439 544 475 q 510 431 532 435 q 465 426 489 426 q 444 514 463 493 q 397 535 425 535 q 358 519 379 535 q 320 477 338 504 q 290 414 303 450 z "},"s":{"ha":594,"x_min":56,"x_max":539,"o":"m 493 600 q 490 529 490 567 q 496 456 490 492 q 426 439 468 439 q 412 495 424 468 q 380 544 400 522 q 332 578 360 565 q 271 592 304 592 q 202 571 228 592 q 176 515 176 550 q 181 483 176 497 q 203 455 186 469 q 253 424 221 440 q 342 386 286 408 q 435 344 397 365 q 497 300 474 324 q 529 249 519 276 q 539 183 539 221 q 519 103 539 139 q 466 41 500 67 q 385 1 432 15 q 285 -12 339 -12 q 211 -9 243 -12 q 152 1 179 -6 q 102 17 125 7 q 56 39 79 26 q 58 78 57 56 q 60 124 60 100 q 59 172 60 149 q 57 211 58 194 q 88 223 68 219 q 129 226 108 226 q 183 96 140 139 q 299 53 226 53 q 387 78 356 53 q 418 142 418 103 q 412 174 418 160 q 389 202 406 189 q 343 230 372 215 q 268 264 314 244 q 172 306 211 286 q 109 350 133 326 q 74 403 85 374 q 63 475 63 433 q 85 552 63 519 q 143 606 108 585 q 218 638 178 628 q 293 649 258 649 q 403 636 356 649 q 493 600 450 624 z "},"ß":{"ha":821,"x_min":50,"x_max":775,"o":"m 161 544 q 110 556 144 551 q 50 561 75 561 q 54 591 50 574 q 69 622 58 608 l 161 622 l 161 678 q 189 818 161 758 q 260 917 217 878 q 357 974 304 956 q 458 993 410 993 q 547 978 508 993 q 610 936 585 963 q 649 876 636 910 q 661 806 661 843 q 649 733 661 763 q 620 680 638 703 q 582 640 603 657 q 544 606 561 622 q 515 571 526 589 q 503 529 503 553 q 523 469 503 493 q 574 426 543 446 q 639 388 604 407 q 704 343 674 369 q 755 279 735 317 q 775 185 775 242 q 758 111 775 146 q 713 49 742 76 q 647 6 685 22 q 569 -10 610 -10 q 513 -7 538 -10 q 468 2 489 -4 q 429 19 447 8 q 392 43 411 29 q 395 115 394 75 q 393 192 396 156 q 422 203 403 199 q 458 207 442 207 q 492 78 467 117 q 578 39 517 39 q 641 72 614 39 q 668 157 668 104 q 648 220 668 194 q 597 265 628 246 q 530 303 565 285 q 463 344 494 321 q 412 399 432 367 q 392 479 392 431 q 406 545 392 518 q 440 594 419 572 q 485 632 461 615 q 529 667 508 649 q 564 709 550 686 q 578 764 578 732 q 565 822 578 794 q 531 871 553 850 q 478 904 508 892 q 413 917 447 917 q 357 908 381 917 q 317 876 333 899 q 294 816 301 854 q 286 721 286 778 l 286 -3 q 242 -1 268 -1 q 181 0 217 0 q 113 -1 144 0 q 58 -4 81 -1 q 65 56 58 36 q 141 83 121 58 q 161 176 161 107 l 161 544 z "},"t":{"ha":488,"x_min":28,"x_max":446,"o":"m 128 622 l 128 806 q 183 828 156 813 q 232 861 211 843 q 243 855 239 858 q 250 844 247 851 q 253 824 253 836 q 254 789 254 811 l 254 622 l 433 622 q 421 561 433 592 q 254 543 319 557 l 254 196 q 275 94 254 125 q 333 63 296 63 q 384 71 363 63 q 425 96 406 79 q 446 50 443 75 q 378 6 422 24 q 289 -12 333 -12 q 167 29 206 -12 q 128 167 128 71 l 128 543 q 85 554 107 550 q 28 561 63 558 q 31 592 28 579 q 40 622 33 606 l 128 622 z "},"u":{"ha":782,"x_min":21,"x_max":733,"o":"m 515 458 q 512 501 515 483 q 497 531 508 519 q 466 549 486 543 q 411 557 446 556 q 413 584 411 572 q 421 608 414 596 q 526 622 475 611 q 610 649 578 633 q 631 631 622 644 q 640 588 640 618 l 640 189 q 643 146 640 164 q 656 116 646 128 q 683 98 665 104 q 733 90 701 92 q 732 60 733 75 q 725 31 731 46 q 686 27 710 31 q 638 18 663 24 q 592 4 614 13 q 558 -12 571 -4 q 535 6 546 -8 q 524 56 524 19 q 526 111 524 83 l 526 124 q 485 65 513 93 q 317 -6 414 -6 q 230 7 268 -6 q 165 48 192 19 q 126 124 139 76 q 113 242 113 171 l 113 451 q 110 494 113 476 q 99 524 108 513 q 71 542 89 536 q 21 550 53 549 q 22 577 21 565 q 31 601 24 589 q 76 608 51 603 q 124 619 100 613 q 169 633 147 625 q 207 649 190 640 q 228 631 219 644 q 238 588 238 618 l 238 272 q 265 123 238 167 q 363 79 293 79 q 418 93 390 79 q 467 136 446 107 q 502 210 489 165 q 515 317 515 256 l 515 458 z "},"ù":{"ha":810,"x_min":49,"x_max":761,"o":"m 436 746 q 409 740 424 739 q 381 743 394 740 q 290 874 332 818 q 204 978 249 931 q 267 993 232 992 q 338 989 303 994 q 379 869 356 929 q 436 746 403 808 m 543 458 q 540 501 543 483 q 525 531 536 519 q 494 549 514 543 q 439 557 474 556 q 440 584 439 572 q 449 608 442 596 q 554 622 503 611 q 638 649 606 633 q 659 631 650 644 q 668 588 668 618 l 668 189 q 671 146 668 164 q 683 116 674 128 q 711 98 693 104 q 761 90 729 92 q 760 60 761 75 q 753 31 758 46 q 714 27 738 31 q 666 18 690 24 q 620 4 642 13 q 586 -12 599 -4 q 563 6 574 -8 q 551 56 551 19 q 554 111 551 83 l 554 124 q 513 65 540 93 q 344 -6 442 -6 q 258 7 296 -6 q 193 48 219 19 q 153 124 167 76 q 140 242 140 171 l 140 451 q 138 494 140 476 q 126 524 136 513 q 99 542 117 536 q 49 550 81 549 q 50 577 49 565 q 58 601 51 589 q 103 608 79 603 q 151 619 128 613 q 197 633 175 625 q 235 649 218 640 q 256 631 247 644 q 265 588 265 618 l 265 272 q 293 123 265 167 q 390 79 321 79 q 446 93 418 79 q 495 136 474 107 q 530 210 517 165 q 543 317 543 256 l 543 458 z "},"ú":{"ha":810,"x_min":49,"x_max":761,"o":"m 349 746 q 403 874 382 815 q 439 985 425 932 q 495 999 469 996 q 542 1001 521 1003 q 565 997 554 1000 q 582 992 575 994 q 488 870 536 939 q 399 738 439 801 q 373 738 386 736 q 349 746 360 740 m 543 458 q 540 501 543 483 q 525 531 536 519 q 494 549 514 543 q 439 557 474 556 q 440 584 439 572 q 449 608 442 596 q 554 622 503 611 q 638 649 606 633 q 659 631 650 644 q 668 588 668 618 l 668 189 q 671 146 668 164 q 683 116 674 128 q 711 98 693 104 q 761 90 729 92 q 760 60 761 75 q 753 31 758 46 q 714 27 738 31 q 666 18 690 24 q 620 4 642 13 q 586 -12 599 -4 q 563 6 574 -8 q 551 56 551 19 q 554 111 551 83 l 554 124 q 513 65 540 93 q 344 -6 442 -6 q 258 7 296 -6 q 193 48 219 19 q 153 124 167 76 q 140 242 140 171 l 140 451 q 138 494 140 476 q 126 524 136 513 q 99 542 117 536 q 49 550 81 549 q 50 577 49 565 q 58 601 51 589 q 103 608 79 603 q 151 619 128 613 q 197 633 175 625 q 235 649 218 640 q 256 631 247 644 q 265 588 265 618 l 265 272 q 293 123 265 167 q 390 79 321 79 q 446 93 418 79 q 495 136 474 107 q 530 210 517 165 q 543 317 543 256 l 543 458 z "},"û":{"ha":810,"x_min":49,"x_max":761,"o":"m 154 771 q 266 867 207 811 q 372 979 325 922 q 396 983 383 982 q 417 985 408 985 q 506 874 454 933 q 619 751 557 814 q 578 726 606 733 q 531 760 556 742 l 481 796 q 431 830 456 814 q 383 858 406 846 q 338 832 367 850 q 278 793 310 814 q 216 751 246 772 q 169 718 186 731 q 157 744 160 728 q 154 771 154 761 m 543 458 q 540 501 543 483 q 525 531 536 519 q 494 549 514 543 q 439 557 474 556 q 440 584 439 572 q 449 608 442 596 q 554 622 503 611 q 638 649 606 633 q 659 631 650 644 q 668 588 668 618 l 668 189 q 671 146 668 164 q 683 116 674 128 q 711 98 693 104 q 761 90 729 92 q 760 60 761 75 q 753 31 758 46 q 714 27 738 31 q 666 18 690 24 q 620 4 642 13 q 586 -12 599 -4 q 563 6 574 -8 q 551 56 551 19 q 554 111 551 83 l 554 124 q 513 65 540 93 q 344 -6 442 -6 q 258 7 296 -6 q 193 48 219 19 q 153 124 167 76 q 140 242 140 171 l 140 451 q 138 494 140 476 q 126 524 136 513 q 99 542 117 536 q 49 550 81 549 q 50 577 49 565 q 58 601 51 589 q 103 608 79 603 q 151 619 128 613 q 197 633 175 625 q 235 649 218 640 q 256 631 247 644 q 265 588 265 618 l 265 272 q 293 123 265 167 q 390 79 321 79 q 446 93 418 79 q 495 136 474 107 q 530 210 517 165 q 543 317 543 256 l 543 458 z "},"ü":{"ha":782,"x_min":21,"x_max":733,"o":"m 229 739 q 172 759 193 739 q 150 810 150 779 q 168 865 150 840 q 226 889 186 889 q 287 867 268 889 q 306 813 306 844 q 283 760 306 781 q 229 739 261 739 m 497 889 q 554 869 532 889 q 576 818 576 850 q 560 765 576 789 q 501 740 543 740 q 440 762 461 740 q 419 818 419 783 q 441 870 419 851 q 497 889 463 889 m 515 458 q 512 501 515 483 q 497 531 508 519 q 466 549 486 543 q 411 557 446 556 q 413 584 411 572 q 421 608 414 596 q 526 622 475 611 q 610 649 578 633 q 631 631 622 644 q 640 588 640 618 l 640 189 q 643 146 640 164 q 656 116 646 128 q 683 98 665 104 q 733 90 701 92 q 732 60 733 75 q 725 31 731 46 q 686 27 710 31 q 638 18 663 24 q 592 4 614 13 q 558 -12 571 -4 q 535 6 546 -8 q 524 56 524 19 q 526 111 524 83 l 526 124 q 485 65 513 93 q 317 -6 414 -6 q 230 7 268 -6 q 165 48 192 19 q 126 124 139 76 q 113 242 113 171 l 113 451 q 110 494 113 476 q 99 524 108 513 q 71 542 89 536 q 21 550 53 549 q 22 577 21 565 q 31 601 24 589 q 76 608 51 603 q 124 619 100 613 q 169 633 147 625 q 207 649 190 640 q 228 631 219 644 q 238 588 238 618 l 238 272 q 265 123 238 167 q 363 79 293 79 q 418 93 390 79 q 467 136 446 107 q 502 210 489 165 q 515 317 515 256 l 515 458 z "},"v":{"ha":756,"x_min":32,"x_max":724,"o":"m 465 640 q 528 637 493 638 q 594 636 563 636 q 663 637 626 636 q 724 640 699 638 q 711 581 724 606 q 681 568 694 576 q 656 542 668 560 q 630 498 643 525 q 600 429 617 471 l 414 -12 q 380 -10 397 -12 q 350 0 363 -7 q 324 60 342 19 q 285 150 307 100 q 238 254 263 200 q 190 356 213 308 q 151 441 168 404 q 126 493 133 478 q 103 538 113 521 q 84 563 93 554 q 65 576 75 572 q 40 581 54 579 q 33 610 35 599 q 32 640 32 621 q 178 636 90 636 q 269 637 222 636 q 349 640 315 638 q 346 610 349 625 q 339 583 343 596 q 284 576 304 581 q 257 560 264 571 q 254 533 250 550 q 271 488 258 515 q 299 424 281 467 q 341 328 318 381 q 388 219 364 275 q 421 139 406 175 q 475 282 451 218 q 526 417 503 354 q 547 542 561 507 q 481 582 533 578 q 465 640 465 610 z "},"w":{"ha":1075,"x_min":21,"x_max":1054,"o":"m 603 636 q 651 526 625 586 q 703 402 676 467 q 758 271 731 338 q 801 164 781 217 l 876 400 q 896 483 893 450 q 890 537 899 517 q 864 567 882 557 q 821 579 846 576 q 808 640 808 608 q 868 637 835 638 q 932 636 901 636 q 1054 640 1006 636 q 1043 579 1054 606 q 1016 566 1028 575 q 993 538 1004 557 q 969 488 982 519 q 940 404 957 456 l 800 -12 q 765 -10 781 -12 q 736 0 749 -7 q 686 122 713 58 q 632 249 660 185 q 576 375 604 313 q 542 456 558 417 l 360 -12 q 323 -10 336 -12 q 299 0 310 -7 q 207 249 254 126 q 107 497 160 371 q 76 553 92 536 q 29 579 60 569 q 22 610 24 593 q 21 639 21 626 q 80 637 49 638 q 157 636 111 636 q 238 637 203 636 q 310 640 274 638 q 308 608 310 626 q 303 579 307 590 q 236 553 244 572 q 243 496 228 535 q 311 318 276 414 q 368 165 342 238 l 547 642 q 576 640 561 642 q 603 636 592 639 z "},"x":{"ha":724,"x_min":42,"x_max":683,"o":"m 419 142 q 378 203 400 171 q 339 260 360 232 l 282 175 q 246 83 238 111 q 294 56 254 56 q 301 28 299 44 q 303 -3 303 13 q 221 0 264 0 l 113 0 q 42 -3 85 0 q 43 28 42 13 q 50 56 44 44 q 85 63 68 57 q 121 82 103 68 q 159 119 139 96 q 206 179 179 143 l 301 314 q 250 386 275 350 q 197 460 221 428 q 149 523 168 499 q 115 560 129 547 q 90 577 101 572 q 61 583 78 582 q 51 639 51 604 q 119 637 82 638 q 197 636 157 636 l 279 636 q 357 639 321 636 q 355 610 357 625 q 350 583 353 594 q 293 560 301 581 q 329 481 285 540 l 360 439 q 392 394 375 418 l 447 481 q 481 558 483 536 q 432 583 478 581 q 425 610 426 596 q 424 639 424 624 q 478 637 450 638 q 547 636 506 636 q 615 637 589 636 q 664 639 642 638 q 661 609 664 624 q 656 583 658 594 q 627 578 640 582 q 601 565 614 575 q 572 536 588 554 q 535 488 556 518 l 432 342 q 492 261 461 303 q 557 169 529 210 q 596 115 579 136 q 626 80 613 93 q 651 61 639 67 q 676 56 663 56 q 683 28 682 42 q 683 -3 683 15 q 607 0 640 0 l 460 0 q 378 -3 418 0 q 378 29 378 15 q 383 56 379 43 q 442 75 432 57 q 419 142 451 93 z "},"y":{"ha":765,"x_min":28,"x_max":738,"o":"m 533 414 q 555 488 551 458 q 550 535 558 517 q 522 564 542 554 q 471 579 501 574 q 461 639 461 607 q 526 636 493 636 l 671 636 q 738 639 706 636 q 737 610 738 625 q 729 579 736 594 q 696 567 710 575 q 670 542 682 558 q 646 500 658 526 q 617 435 633 474 l 413 -51 q 342 -204 372 -146 q 284 -294 311 -262 q 230 -335 257 -325 q 171 -346 203 -346 q 105 -335 129 -346 q 67 -314 81 -325 q 63 -262 61 -293 q 68 -212 64 -231 q 157 -221 115 -221 q 233 -202 197 -221 q 297 -139 269 -183 q 322 -95 307 -125 q 354 -24 336 -65 q 361 -10 358 -17 q 318 86 340 36 q 265 206 292 147 q 215 317 239 264 q 172 408 190 369 q 130 492 147 460 q 97 542 113 524 q 68 567 82 560 q 36 579 54 575 q 28 639 28 604 q 108 637 68 638 q 185 636 149 636 l 274 636 l 324 638 q 369 639 349 639 q 360 579 369 603 q 301 563 322 572 q 274 535 281 553 q 274 492 267 518 q 300 426 281 465 q 332 356 314 396 q 369 274 350 317 q 404 190 388 232 q 424 140 415 164 q 438 172 431 156 l 533 414 z "},"ý":{"ha":797,"x_min":67,"x_max":776,"o":"m 572 414 q 594 488 590 458 q 589 535 597 517 q 560 564 581 554 q 510 579 540 574 q 500 639 500 607 q 565 636 532 636 l 710 636 q 776 639 744 636 q 776 610 776 625 q 768 579 775 594 q 735 567 749 575 q 709 542 721 558 q 685 500 697 526 q 656 435 672 474 l 451 -51 q 381 -204 411 -146 q 323 -294 350 -262 q 269 -335 296 -325 q 210 -346 242 -346 q 144 -335 168 -346 q 106 -314 119 -325 q 101 -262 100 -293 q 107 -212 103 -231 q 196 -221 154 -221 q 272 -202 236 -221 q 336 -139 308 -183 q 360 -95 346 -125 q 393 -24 375 -65 q 400 -10 397 -17 q 357 86 379 36 q 304 206 331 147 q 253 317 278 264 q 211 408 229 369 q 169 492 186 460 q 136 542 151 524 q 107 567 121 560 q 75 579 93 575 q 67 639 67 604 q 147 637 107 638 q 224 636 188 636 l 313 636 l 363 638 q 408 639 388 639 q 399 579 408 603 q 340 563 361 572 q 313 535 319 553 q 313 492 306 518 q 339 426 319 465 q 371 356 353 396 q 408 274 389 317 q 443 190 426 232 q 463 140 454 164 q 476 172 469 156 l 572 414 m 429 746 q 484 874 463 815 q 519 985 506 932 q 576 999 550 996 q 622 1001 601 1003 q 645 997 635 1000 q 663 992 656 994 q 568 870 617 939 q 479 738 519 801 q 453 738 467 736 q 429 746 440 740 z "},"ÿ":{"ha":797,"x_min":63,"x_max":772,"o":"m 568 414 q 590 488 586 458 q 585 535 593 517 q 556 564 576 554 q 506 579 536 574 q 496 639 496 607 q 561 636 528 636 l 706 636 q 772 639 740 636 q 772 610 772 625 q 764 579 771 594 q 731 567 744 575 q 705 542 717 558 q 681 500 693 526 q 651 435 668 474 l 447 -51 q 376 -204 407 -146 q 319 -294 346 -262 q 265 -335 292 -325 q 206 -346 238 -346 q 140 -335 164 -346 q 101 -314 115 -325 q 97 -262 96 -293 q 103 -212 99 -231 q 192 -221 150 -221 q 268 -202 232 -221 q 332 -139 304 -183 q 356 -95 342 -125 q 389 -24 371 -65 q 396 -10 393 -17 q 353 86 375 36 q 300 206 326 147 q 249 317 274 264 q 207 408 225 369 q 165 492 182 460 q 132 542 147 524 q 103 567 117 560 q 71 579 89 575 q 63 639 63 604 q 143 637 103 638 q 219 636 183 636 l 308 636 l 358 638 q 404 639 383 639 q 394 579 404 603 q 336 563 357 572 q 308 535 315 553 q 308 492 301 518 q 335 426 315 465 q 367 356 349 396 q 403 274 385 317 q 439 190 422 232 q 458 140 450 164 q 472 172 465 156 l 568 414 m 299 739 q 241 759 263 739 q 219 810 219 779 q 238 865 219 840 q 296 889 256 889 q 356 867 338 889 q 375 813 375 844 q 353 760 375 781 q 299 739 331 739 m 567 889 q 624 869 601 889 q 646 818 646 850 q 629 765 646 789 q 571 740 613 740 q 510 762 531 740 q 489 818 489 783 q 510 870 489 851 q 567 889 532 889 z "},"z":{"ha":696,"x_min":71,"x_max":633,"o":"m 93 640 q 144 638 114 639 q 210 637 175 638 q 279 636 244 636 l 413 636 q 481 637 447 636 q 543 638 514 638 q 593 640 572 639 q 607 613 603 629 q 611 581 611 596 q 556 501 588 546 q 489 408 524 457 q 417 308 454 360 q 344 209 379 257 q 278 118 310 161 q 236 63 256 88 l 413 63 q 474 68 450 63 q 514 90 499 74 q 537 136 529 106 q 549 217 544 167 q 583 215 565 217 q 622 208 601 214 q 623 167 622 192 q 625 117 624 143 q 628 67 626 92 q 633 24 631 42 q 617 5 628 13 q 589 -3 606 -3 q 538 -2 563 -3 q 483 -1 513 -1 q 419 0 454 0 l 340 0 q 190 -1 249 0 q 93 -3 131 -1 q 77 22 83 7 q 71 53 71 36 q 128 133 94 86 q 198 231 161 179 q 273 336 235 282 q 345 439 311 390 q 406 528 379 488 q 438 575 425 556 l 310 575 q 247 569 272 575 q 205 547 222 564 q 176 502 188 531 q 156 428 165 474 q 119 430 139 428 q 83 439 99 432 q 90 536 88 485 q 93 640 93 588 z "},"A":{"ha":978,"x_min":35,"x_max":943,"o":"m 443 942 q 497 947 467 947 l 828 189 q 858 125 844 150 q 883 85 871 100 q 906 65 894 71 q 935 56 918 58 q 942 25 940 38 q 943 -4 943 13 q 913 -3 932 -4 q 869 -1 893 -3 l 824 0 l 785 0 q 745 -1 768 0 q 700 -2 722 -1 q 658 -3 678 -3 q 628 -4 638 -4 q 629 28 628 13 q 638 56 631 43 q 683 64 667 58 q 704 81 699 69 q 706 113 710 93 q 688 164 701 132 l 626 306 q 436 304 536 306 q 258 300 340 303 l 222 204 q 203 91 190 122 q 272 56 215 60 q 282 -4 282 32 q 222 -1 258 -1 q 150 0 185 0 q 85 -1 115 0 q 35 -4 54 -3 q 37 26 35 10 q 44 54 39 42 q 76 67 63 58 q 103 92 90 75 q 127 135 115 108 q 156 204 139 163 l 443 942 m 285 368 l 600 368 l 494 615 q 477 654 485 636 q 462 691 469 672 q 446 729 454 710 q 432 765 440 746 q 406 686 418 719 q 381 617 393 650 l 285 368 z "},"À":{"ha":978,"x_min":35,"x_max":943,"o":"m 443 942 q 497 947 467 947 l 828 189 q 858 125 844 150 q 883 85 871 100 q 906 65 894 71 q 935 56 918 58 q 942 25 940 38 q 943 -4 943 13 q 913 -3 932 -4 q 869 -1 893 -3 l 824 0 l 785 0 q 745 -1 768 0 q 700 -2 722 -1 q 658 -3 678 -3 q 628 -4 638 -4 q 629 28 628 13 q 638 56 631 43 q 683 64 667 58 q 704 81 699 69 q 706 113 710 93 q 688 164 701 132 l 626 306 q 436 304 536 306 q 258 300 340 303 l 222 204 q 203 91 190 122 q 272 56 215 60 q 282 -4 282 32 q 222 -1 258 -1 q 150 0 185 0 q 85 -1 115 0 q 35 -4 54 -3 q 37 26 35 10 q 44 54 39 42 q 76 67 63 58 q 103 92 90 75 q 127 135 115 108 q 156 204 139 163 l 443 942 m 285 368 l 600 368 l 494 615 q 477 654 485 636 q 462 691 469 672 q 446 729 454 710 q 432 765 440 746 q 406 686 418 719 q 381 617 393 650 l 285 368 m 514 1044 q 487 1038 501 1038 q 458 1042 472 1039 q 368 1173 410 1117 q 282 1276 326 1229 q 345 1292 310 1290 q 415 1288 381 1293 q 457 1167 433 1228 q 514 1044 481 1107 z "},"Á":{"ha":978,"x_min":35,"x_max":943,"o":"m 443 942 q 497 947 467 947 l 828 189 q 858 125 844 150 q 883 85 871 100 q 906 65 894 71 q 935 56 918 58 q 942 25 940 38 q 943 -4 943 13 q 913 -3 932 -4 q 869 -1 893 -3 l 824 0 l 785 0 q 745 -1 768 0 q 700 -2 722 -1 q 658 -3 678 -3 q 628 -4 638 -4 q 629 28 628 13 q 638 56 631 43 q 683 64 667 58 q 704 81 699 69 q 706 113 710 93 q 688 164 701 132 l 626 306 q 436 304 536 306 q 258 300 340 303 l 222 204 q 203 91 190 122 q 272 56 215 60 q 282 -4 282 32 q 222 -1 258 -1 q 150 0 185 0 q 85 -1 115 0 q 35 -4 54 -3 q 37 26 35 10 q 44 54 39 42 q 76 67 63 58 q 103 92 90 75 q 127 135 115 108 q 156 204 139 163 l 443 942 m 285 368 l 600 368 l 494 615 q 477 654 485 636 q 462 691 469 672 q 446 729 454 710 q 432 765 440 746 q 406 686 418 719 q 381 617 393 650 l 285 368 m 414 1044 q 469 1172 447 1114 q 504 1283 490 1231 q 560 1298 535 1294 q 607 1300 586 1301 q 630 1296 619 1299 q 647 1290 640 1293 q 553 1169 601 1238 q 464 1036 504 1100 q 438 1037 451 1035 q 414 1044 425 1039 z "},"Â":{"ha":978,"x_min":35,"x_max":943,"o":"m 443 942 q 497 947 467 947 l 828 189 q 858 125 844 150 q 883 85 871 100 q 906 65 894 71 q 935 56 918 58 q 942 25 940 38 q 943 -4 943 13 q 913 -3 932 -4 q 869 -1 893 -3 l 824 0 l 785 0 q 745 -1 768 0 q 700 -2 722 -1 q 658 -3 678 -3 q 628 -4 638 -4 q 629 28 628 13 q 638 56 631 43 q 683 64 667 58 q 704 81 699 69 q 706 113 710 93 q 688 164 701 132 l 626 306 q 436 304 536 306 q 258 300 340 303 l 222 204 q 203 91 190 122 q 272 56 215 60 q 282 -4 282 32 q 222 -1 258 -1 q 150 0 185 0 q 85 -1 115 0 q 35 -4 54 -3 q 37 26 35 10 q 44 54 39 42 q 76 67 63 58 q 103 92 90 75 q 127 135 115 108 q 156 204 139 163 l 443 942 m 285 368 l 600 368 l 494 615 q 477 654 485 636 q 462 691 469 672 q 446 729 454 710 q 432 765 440 746 q 406 686 418 719 q 381 617 393 650 l 285 368 m 236 1069 q 348 1165 289 1110 q 454 1278 407 1221 q 478 1282 465 1281 q 499 1283 490 1283 q 588 1172 536 1232 q 701 1050 639 1113 q 660 1025 688 1032 q 613 1058 638 1040 l 563 1094 q 513 1128 538 1113 q 465 1157 488 1144 q 420 1131 449 1149 q 360 1092 392 1113 q 298 1050 328 1071 q 251 1017 268 1029 q 239 1043 242 1026 q 236 1069 236 1060 z "},"Ã":{"ha":978,"x_min":35,"x_max":943,"o":"m 443 942 q 497 947 467 947 l 828 189 q 858 125 844 150 q 883 85 871 100 q 906 65 894 71 q 935 56 918 58 q 942 25 940 38 q 943 -4 943 13 q 913 -3 932 -4 q 869 -1 893 -3 l 824 0 l 785 0 q 745 -1 768 0 q 700 -2 722 -1 q 658 -3 678 -3 q 628 -4 638 -4 q 629 28 628 13 q 638 56 631 43 q 683 64 667 58 q 704 81 699 69 q 706 113 710 93 q 688 164 701 132 l 626 306 q 436 304 536 306 q 258 300 340 303 l 222 204 q 203 91 190 122 q 272 56 215 60 q 282 -4 282 32 q 222 -1 258 -1 q 150 0 185 0 q 85 -1 115 0 q 35 -4 54 -3 q 37 26 35 10 q 44 54 39 42 q 76 67 63 58 q 103 92 90 75 q 127 135 115 108 q 156 204 139 163 l 443 942 m 285 368 l 600 368 l 494 615 q 477 654 485 636 q 462 691 469 672 q 446 729 454 710 q 432 765 440 746 q 406 686 418 719 q 381 617 393 650 l 285 368 m 279 1017 q 265 1043 265 1025 q 344 1143 307 1117 q 417 1169 382 1169 q 465 1160 442 1169 q 510 1141 488 1151 q 556 1122 533 1131 q 601 1113 578 1113 q 643 1122 622 1113 q 686 1156 664 1132 q 699 1153 692 1156 q 713 1144 707 1151 q 643 1039 676 1067 q 578 1011 610 1011 q 531 1020 554 1011 q 485 1041 508 1029 q 437 1062 461 1053 q 386 1071 413 1071 q 335 1059 361 1071 q 279 1017 308 1047 z "},"Ä":{"ha":978,"x_min":35,"x_max":943,"o":"m 443 942 q 497 947 467 947 l 828 189 q 858 125 844 150 q 883 85 871 100 q 906 65 894 71 q 935 56 918 58 q 942 25 940 38 q 943 -4 943 13 q 913 -3 932 -4 q 869 -1 893 -3 l 824 0 l 785 0 q 745 -1 768 0 q 700 -2 722 -1 q 658 -3 678 -3 q 628 -4 638 -4 q 629 28 628 13 q 638 56 631 43 q 683 64 667 58 q 704 81 699 69 q 706 113 710 93 q 688 164 701 132 l 626 306 q 436 304 536 306 q 258 300 340 303 l 222 204 q 203 91 190 122 q 272 56 215 60 q 282 -4 282 32 q 222 -1 258 -1 q 150 0 185 0 q 85 -1 115 0 q 35 -4 54 -3 q 37 26 35 10 q 44 54 39 42 q 76 67 63 58 q 103 92 90 75 q 127 135 115 108 q 156 204 139 163 l 443 942 m 285 368 l 600 368 l 494 615 q 477 654 485 636 q 462 691 469 672 q 446 729 454 710 q 432 765 440 746 q 406 686 418 719 q 381 617 393 650 l 285 368 m 342 1038 q 284 1058 306 1038 q 263 1108 263 1078 q 281 1163 263 1139 q 339 1188 299 1188 q 399 1165 381 1188 q 418 1111 418 1143 q 396 1058 418 1079 q 342 1038 374 1038 m 610 1188 q 667 1168 644 1188 q 689 1117 689 1149 q 672 1063 689 1088 q 614 1039 656 1039 q 553 1060 574 1039 q 532 1117 532 1082 q 553 1169 532 1150 q 610 1188 575 1188 z "},"Å":{"ha":978,"x_min":35,"x_max":943,"o":"m 443 942 q 497 947 467 947 l 828 189 q 858 125 844 150 q 883 85 871 100 q 906 65 894 71 q 935 56 918 58 q 942 25 940 38 q 943 -4 943 13 q 913 -3 932 -4 q 869 -1 893 -3 l 824 0 l 785 0 q 745 -1 768 0 q 700 -2 722 -1 q 658 -3 678 -3 q 628 -4 638 -4 q 629 28 628 13 q 638 56 631 43 q 683 64 667 58 q 704 81 699 69 q 706 113 710 93 q 688 164 701 132 l 626 306 q 436 304 536 306 q 258 300 340 303 l 222 204 q 203 91 190 122 q 272 56 215 60 q 282 -4 282 32 q 222 -1 258 -1 q 150 0 185 0 q 85 -1 115 0 q 35 -4 54 -3 q 37 26 35 10 q 44 54 39 42 q 76 67 63 58 q 103 92 90 75 q 127 135 115 108 q 156 204 139 163 l 443 942 m 285 368 l 600 368 l 494 615 q 477 654 485 636 q 462 691 469 672 q 446 729 454 710 q 432 765 440 746 q 406 686 418 719 q 381 617 393 650 l 285 368 m 326 1151 q 368 1244 326 1207 q 471 1282 410 1282 q 521 1275 496 1282 q 565 1253 546 1268 q 595 1215 583 1238 q 607 1161 607 1192 q 565 1067 607 1104 q 461 1029 524 1029 q 410 1038 435 1029 q 367 1062 386 1046 q 338 1101 349 1078 q 326 1151 326 1124 m 403 1157 q 422 1103 403 1125 q 475 1081 440 1081 q 515 1098 497 1081 q 532 1147 532 1115 q 515 1206 532 1176 q 461 1235 497 1235 q 419 1214 435 1235 q 403 1157 403 1193 z "},"Æ":{"ha":1328,"x_min":86,"x_max":1260,"o":"m 1018 0 l 740 0 q 593 -3 661 -1 q 594 28 593 13 q 603 56 596 44 q 647 66 629 60 q 674 87 664 72 q 688 126 683 101 q 692 192 692 151 l 692 414 q 590 413 635 414 q 493 410 535 411 q 435 407 463 408 q 385 317 408 360 q 328 215 349 253 q 294 140 303 169 q 290 92 286 110 q 310 66 294 75 q 351 53 326 57 q 361 -4 361 29 q 290 -1 329 -1 q 215 0 250 0 q 144 -1 181 0 q 86 -4 107 -1 q 88 26 86 10 q 96 54 90 42 q 128 63 113 56 q 160 86 143 69 q 197 133 176 103 q 246 211 218 163 l 571 772 q 590 851 603 826 q 510 882 576 875 q 503 910 504 894 q 501 942 501 926 q 559 941 528 942 q 621 940 590 940 q 678 939 651 939 l 1011 939 q 1183 942 1119 940 q 1188 890 1185 918 q 1195 832 1192 861 q 1203 774 1199 803 q 1213 724 1207 746 q 1185 710 1201 714 q 1150 707 1169 707 q 1137 771 1147 739 q 1101 828 1126 803 q 1032 868 1075 853 q 922 883 989 883 l 822 883 l 822 474 l 893 474 q 1005 503 976 474 q 1033 585 1033 532 q 1068 592 1054 590 q 1101 594 1082 594 q 1101 565 1101 583 q 1099 526 1100 547 q 1099 481 1099 504 l 1099 399 q 1099 354 1099 376 q 1101 313 1100 332 q 1101 282 1101 293 q 1067 283 1082 282 q 1038 289 1053 283 q 1028 338 1035 315 q 1006 378 1022 361 q 961 404 990 394 q 882 414 932 414 l 822 414 l 822 192 q 829 122 822 147 q 849 83 836 96 q 879 65 861 69 q 903 63 890 64 l 956 63 q 1061 74 1021 63 q 1127 107 1101 85 q 1168 162 1153 129 q 1199 238 1183 194 q 1233 224 1219 231 q 1260 204 1247 217 q 1234 101 1244 156 q 1217 -3 1224 46 q 1122 -2 1174 -3 q 1018 0 1071 -1 m 692 793 q 693 833 692 813 q 696 872 694 851 l 685 847 q 665 809 676 829 q 638 758 654 789 q 553 613 599 692 q 474 474 513 542 l 692 474 l 692 793 z "},"B":{"ha":878,"x_min":79,"x_max":790,"o":"m 225 939 q 325 940 275 939 q 424 942 375 942 q 537 933 483 942 q 631 901 590 924 q 696 839 672 878 q 719 739 719 800 q 665 586 719 649 q 518 510 611 524 q 622 494 572 507 q 708 453 671 481 q 768 382 746 426 q 790 274 790 338 q 772 167 790 217 q 713 80 753 117 q 609 22 672 43 q 457 0 546 0 l 364 0 q 256 -1 310 0 q 153 -2 201 -1 q 79 -4 106 -3 q 86 56 79 36 q 133 63 114 57 q 163 85 151 69 q 178 126 174 100 q 183 192 183 151 l 183 763 q 163 856 183 832 q 88 883 143 881 q 82 910 83 894 q 81 943 81 926 q 148 940 108 940 q 225 939 188 939 m 314 460 l 314 192 q 319 123 314 149 q 340 83 325 97 q 379 65 354 69 q 443 60 404 60 q 594 111 546 60 q 642 254 642 163 q 615 358 642 318 q 544 422 588 399 q 449 452 501 444 q 346 460 397 460 l 314 460 m 335 881 q 314 876 325 879 l 314 522 l 357 522 q 467 537 424 522 q 535 576 510 551 q 569 633 560 601 q 578 697 578 664 q 558 788 578 751 q 508 845 539 824 q 442 875 478 867 q 371 883 406 883 q 335 881 351 883 z "},"C":{"ha":907,"x_min":49,"x_max":838,"o":"m 513 951 q 672 933 600 951 q 821 879 743 915 q 808 776 810 831 q 806 664 806 722 q 771 654 788 657 q 732 651 754 651 q 714 772 729 725 q 672 847 699 819 q 607 884 644 874 q 524 894 569 894 q 374 863 436 894 q 272 777 311 831 q 213 655 232 724 q 194 514 194 586 q 219 340 194 421 q 288 200 243 260 q 399 106 333 140 q 549 72 465 72 q 685 94 615 72 q 813 154 754 117 q 828 134 821 147 q 838 111 836 121 q 756 56 796 79 q 675 18 717 33 q 588 -5 633 3 q 490 -12 543 -12 q 312 23 393 -12 q 172 123 231 58 q 81 278 114 188 q 49 476 49 368 q 88 685 49 596 q 192 833 128 774 q 340 922 257 893 q 513 951 424 951 z "},"Ç":{"ha":907,"x_min":49,"x_max":838,"o":"m 513 951 q 672 933 600 951 q 821 879 743 915 q 808 776 810 831 q 806 664 806 722 q 771 654 788 657 q 732 651 754 651 q 714 772 729 725 q 672 847 699 819 q 607 884 644 874 q 524 894 569 894 q 374 863 436 894 q 272 777 311 831 q 213 655 232 724 q 194 514 194 586 q 219 340 194 421 q 288 200 243 260 q 399 106 333 140 q 549 72 465 72 q 685 94 615 72 q 813 154 754 117 q 828 134 821 147 q 838 111 836 121 q 756 56 796 79 q 675 18 717 33 q 588 -4 633 3 q 503 -12 549 -11 l 461 -69 q 549 -112 517 -79 q 582 -196 582 -146 q 565 -257 582 -231 q 520 -301 547 -283 q 462 -327 493 -318 q 404 -336 431 -336 q 397 -315 399 -326 q 394 -292 394 -303 q 470 -272 436 -292 q 504 -215 504 -251 q 478 -160 504 -181 q 414 -140 453 -140 q 396 -119 403 -132 q 389 -87 389 -106 l 438 -10 q 311 22 371 -3 q 172 123 231 58 q 81 278 114 188 q 49 476 49 368 q 88 685 49 596 q 192 833 128 774 q 340 922 257 893 q 513 951 424 951 z "},"D":{"ha":1015,"x_min":79,"x_max":967,"o":"m 81 943 q 116 941 94 942 q 161 940 138 940 q 210 939 185 939 l 257 939 q 349 940 303 939 q 439 942 394 942 q 625 925 531 942 q 795 860 719 908 q 919 724 871 813 q 967 493 967 636 q 938 300 967 381 q 865 165 910 219 q 762 78 819 111 q 646 28 704 44 q 533 6 588 11 q 439 0 478 0 l 349 0 q 247 -1 297 0 q 151 -2 196 -1 q 79 -4 106 -3 q 86 56 79 36 q 133 63 114 57 q 163 85 151 69 q 178 126 174 100 q 183 192 183 151 l 183 763 q 163 856 183 832 q 88 883 143 881 q 82 910 83 894 q 81 943 81 926 m 314 192 q 319 128 314 153 q 338 88 324 103 q 376 68 351 74 q 439 63 400 63 q 592 83 522 63 q 714 150 663 103 q 794 276 765 197 q 824 472 824 354 q 790 664 824 585 q 699 793 756 743 q 568 866 642 843 q 417 889 494 889 q 362 885 392 889 q 314 876 332 882 l 314 192 z "},"Ð":{"ha":1010,"x_min":49,"x_max":961,"o":"m 75 943 q 110 941 89 942 q 156 940 132 940 q 204 939 179 939 l 251 939 q 343 940 297 939 q 433 942 389 942 q 619 925 525 942 q 790 860 714 908 q 913 724 865 813 q 961 493 961 636 q 933 300 961 381 q 859 165 904 219 q 756 78 814 111 q 640 28 699 44 q 527 6 582 11 q 433 0 472 0 l 343 0 q 241 -1 292 0 q 145 -2 190 -1 q 74 -4 100 -3 q 81 56 74 36 q 127 63 108 57 q 157 85 146 69 q 173 126 168 100 q 178 192 178 151 l 178 344 l 128 344 q 49 342 97 344 q 53 380 49 357 q 64 413 57 403 l 178 413 l 178 763 q 158 856 178 832 q 82 883 138 881 q 76 910 78 894 q 75 943 75 926 m 308 192 q 313 128 308 153 q 332 88 318 103 q 370 68 346 74 q 433 63 394 63 q 587 83 517 63 q 708 150 657 103 q 789 276 760 197 q 818 472 818 354 q 784 664 818 585 q 693 793 750 743 q 563 866 636 843 q 411 889 489 889 q 356 885 386 889 q 308 876 326 882 l 308 413 l 557 413 q 554 375 557 392 q 542 343 551 358 q 476 344 506 343 q 417 344 446 344 l 308 344 l 308 192 z "},"E":{"ha":811,"x_min":79,"x_max":751,"o":"m 675 943 q 680 891 676 919 q 687 833 683 863 q 694 774 690 803 q 704 724 699 746 q 677 710 693 714 q 642 707 661 707 q 628 771 639 739 q 592 828 618 803 q 524 868 567 853 q 414 883 481 883 l 314 883 l 314 503 l 372 503 q 444 508 415 503 q 492 525 474 513 q 518 560 510 538 q 526 615 526 582 q 559 623 544 621 q 593 625 574 625 q 590 549 590 589 l 590 393 q 593 313 590 349 q 559 314 574 313 q 529 319 544 315 q 517 379 526 356 q 490 417 508 403 q 444 438 472 432 q 372 443 415 443 l 314 443 l 314 192 q 319 128 314 153 q 338 88 324 103 q 376 68 351 74 q 439 63 400 63 l 447 63 q 551 74 511 63 q 617 107 592 85 q 659 162 643 129 q 690 238 675 194 q 725 224 711 231 q 751 204 739 217 q 726 101 736 156 q 708 -3 715 46 q 658 -2 688 -3 q 592 -1 628 -1 q 517 0 556 0 l 349 0 q 247 -1 297 0 q 151 -2 196 -1 q 79 -4 106 -3 q 86 56 79 36 q 133 63 114 57 q 163 85 151 69 q 178 126 174 100 q 183 192 183 151 l 183 763 q 163 856 183 832 q 88 883 143 881 q 82 910 83 894 q 81 943 81 926 q 133 941 101 942 q 199 940 165 940 q 264 939 233 939 l 314 939 q 549 940 457 939 q 675 943 640 942 z "},"È":{"ha":811,"x_min":79,"x_max":751,"o":"m 426 1044 q 399 1038 414 1038 q 371 1042 385 1039 q 281 1173 322 1117 q 194 1276 239 1229 q 258 1292 222 1290 q 328 1288 293 1293 q 369 1167 346 1228 q 426 1044 393 1107 m 675 943 q 680 891 676 919 q 687 833 683 863 q 694 774 690 803 q 704 724 699 746 q 677 710 693 714 q 642 707 661 707 q 628 771 639 739 q 592 828 618 803 q 524 868 567 853 q 414 883 481 883 l 314 883 l 314 503 l 372 503 q 444 508 415 503 q 492 525 474 513 q 518 560 510 538 q 526 615 526 582 q 559 623 544 621 q 593 625 574 625 q 590 549 590 589 l 590 393 q 593 313 590 349 q 559 314 574 313 q 529 319 544 315 q 517 379 526 356 q 490 417 508 403 q 444 438 472 432 q 372 443 415 443 l 314 443 l 314 192 q 319 128 314 153 q 338 88 324 103 q 376 68 351 74 q 439 63 400 63 l 447 63 q 551 74 511 63 q 617 107 592 85 q 659 162 643 129 q 690 238 675 194 q 725 224 711 231 q 751 204 739 217 q 726 101 736 156 q 708 -3 715 46 q 658 -2 688 -3 q 592 -1 628 -1 q 517 0 556 0 l 349 0 q 247 -1 297 0 q 151 -2 196 -1 q 79 -4 106 -3 q 86 56 79 36 q 133 63 114 57 q 163 85 151 69 q 178 126 174 100 q 183 192 183 151 l 183 763 q 163 856 183 832 q 88 883 143 881 q 82 910 83 894 q 81 943 81 926 q 133 941 101 942 q 199 940 165 940 q 264 939 233 939 l 314 939 q 549 940 457 939 q 675 943 640 942 z "},"É":{"ha":811,"x_min":79,"x_max":751,"o":"m 382 1044 q 437 1172 415 1114 q 472 1283 458 1231 q 528 1298 503 1294 q 575 1300 554 1301 q 598 1296 588 1299 q 615 1290 608 1293 q 521 1169 569 1238 q 432 1036 472 1100 q 406 1037 419 1035 q 382 1044 393 1039 m 675 943 q 680 891 676 919 q 687 833 683 863 q 694 774 690 803 q 704 724 699 746 q 677 710 693 714 q 642 707 661 707 q 628 771 639 739 q 592 828 618 803 q 524 868 567 853 q 414 883 481 883 l 314 883 l 314 503 l 372 503 q 444 508 415 503 q 492 525 474 513 q 518 560 510 538 q 526 615 526 582 q 559 623 544 621 q 593 625 574 625 q 590 549 590 589 l 590 393 q 593 313 590 349 q 559 314 574 313 q 529 319 544 315 q 517 379 526 356 q 490 417 508 403 q 444 438 472 432 q 372 443 415 443 l 314 443 l 314 192 q 319 128 314 153 q 338 88 324 103 q 376 68 351 74 q 439 63 400 63 l 447 63 q 551 74 511 63 q 617 107 592 85 q 659 162 643 129 q 690 238 675 194 q 725 224 711 231 q 751 204 739 217 q 726 101 736 156 q 708 -3 715 46 q 658 -2 688 -3 q 592 -1 628 -1 q 517 0 556 0 l 349 0 q 247 -1 297 0 q 151 -2 196 -1 q 79 -4 106 -3 q 86 56 79 36 q 133 63 114 57 q 163 85 151 69 q 178 126 174 100 q 183 192 183 151 l 183 763 q 163 856 183 832 q 88 883 143 881 q 82 910 83 894 q 81 943 81 926 q 133 941 101 942 q 199 940 165 940 q 264 939 233 939 l 314 939 q 549 940 457 939 q 675 943 640 942 z "},"Ê":{"ha":811,"x_min":79,"x_max":751,"o":"m 172 1069 q 284 1165 225 1110 q 390 1278 343 1221 q 414 1282 401 1281 q 435 1283 426 1283 q 524 1172 472 1232 q 638 1050 575 1113 q 596 1025 624 1032 q 549 1058 574 1040 l 499 1094 q 449 1128 474 1113 q 401 1157 424 1144 q 356 1131 385 1149 q 296 1092 328 1113 q 234 1050 264 1071 q 188 1017 204 1029 q 175 1043 178 1026 q 172 1069 172 1060 m 675 943 q 680 891 676 919 q 687 833 683 863 q 694 774 690 803 q 704 724 699 746 q 677 710 693 714 q 642 707 661 707 q 628 771 639 739 q 592 828 618 803 q 524 868 567 853 q 414 883 481 883 l 314 883 l 314 503 l 372 503 q 444 508 415 503 q 492 525 474 513 q 518 560 510 538 q 526 615 526 582 q 559 623 544 621 q 593 625 574 625 q 590 549 590 589 l 590 393 q 593 313 590 349 q 559 314 574 313 q 529 319 544 315 q 517 379 526 356 q 490 417 508 403 q 444 438 472 432 q 372 443 415 443 l 314 443 l 314 192 q 319 128 314 153 q 338 88 324 103 q 376 68 351 74 q 439 63 400 63 l 447 63 q 551 74 511 63 q 617 107 592 85 q 659 162 643 129 q 690 238 675 194 q 725 224 711 231 q 751 204 739 217 q 726 101 736 156 q 708 -3 715 46 q 658 -2 688 -3 q 592 -1 628 -1 q 517 0 556 0 l 349 0 q 247 -1 297 0 q 151 -2 196 -1 q 79 -4 106 -3 q 86 56 79 36 q 133 63 114 57 q 163 85 151 69 q 178 126 174 100 q 183 192 183 151 l 183 763 q 163 856 183 832 q 88 883 143 881 q 82 910 83 894 q 81 943 81 926 q 133 941 101 942 q 199 940 165 940 q 264 939 233 939 l 314 939 q 549 940 457 939 q 675 943 640 942 z "},"Ë":{"ha":811,"x_min":79,"x_max":751,"o":"m 256 1038 q 198 1058 219 1038 q 176 1108 176 1078 q 194 1163 176 1139 q 253 1188 213 1188 q 313 1165 294 1188 q 332 1111 332 1143 q 310 1058 332 1079 q 256 1038 288 1038 m 524 1188 q 581 1168 558 1188 q 603 1117 603 1149 q 586 1063 603 1088 q 528 1039 569 1039 q 467 1060 488 1039 q 446 1117 446 1082 q 467 1169 446 1150 q 524 1188 489 1188 m 675 943 q 680 891 676 919 q 687 833 683 863 q 694 774 690 803 q 704 724 699 746 q 677 710 693 714 q 642 707 661 707 q 628 771 639 739 q 592 828 618 803 q 524 868 567 853 q 414 883 481 883 l 314 883 l 314 503 l 372 503 q 444 508 415 503 q 492 525 474 513 q 518 560 510 538 q 526 615 526 582 q 559 623 544 621 q 593 625 574 625 q 590 549 590 589 l 590 393 q 593 313 590 349 q 559 314 574 313 q 529 319 544 315 q 517 379 526 356 q 490 417 508 403 q 444 438 472 432 q 372 443 415 443 l 314 443 l 314 192 q 319 128 314 153 q 338 88 324 103 q 376 68 351 74 q 439 63 400 63 l 447 63 q 551 74 511 63 q 617 107 592 85 q 659 162 643 129 q 690 238 675 194 q 725 224 711 231 q 751 204 739 217 q 726 101 736 156 q 708 -3 715 46 q 658 -2 688 -3 q 592 -1 628 -1 q 517 0 556 0 l 349 0 q 247 -1 297 0 q 151 -2 196 -1 q 79 -4 106 -3 q 86 56 79 36 q 133 63 114 57 q 163 85 151 69 q 178 126 174 100 q 183 192 183 151 l 183 763 q 163 856 183 832 q 88 883 143 881 q 82 910 83 894 q 81 943 81 926 q 133 941 101 942 q 199 940 165 940 q 264 939 233 939 l 314 939 q 549 940 457 939 q 675 943 640 942 z "},"F":{"ha":753,"x_min":79,"x_max":699,"o":"m 669 943 q 674 891 671 919 q 681 833 678 863 q 689 774 685 803 q 699 724 693 746 q 672 710 688 714 q 636 707 656 707 q 623 771 633 739 q 587 828 613 803 q 518 868 561 853 q 408 883 475 883 l 313 883 l 313 475 l 381 475 q 453 480 424 475 q 500 497 482 485 q 526 532 518 510 q 535 588 535 554 q 567 595 553 593 q 601 597 582 597 q 599 521 599 561 l 599 365 q 601 285 599 321 q 567 286 582 285 q 538 292 553 288 q 526 351 535 328 q 499 390 517 375 q 452 410 481 404 q 381 415 424 415 l 313 415 l 313 204 q 319 131 313 158 q 342 86 326 103 q 380 63 357 69 q 436 56 403 57 q 443 -4 443 36 q 364 -1 411 -1 q 268 0 317 0 l 215 0 q 163 -1 189 0 q 115 -2 136 -1 q 79 -4 93 -3 q 86 56 79 36 q 162 83 142 58 q 182 176 182 107 l 182 763 q 162 856 182 832 q 86 883 142 881 q 79 943 79 903 q 132 941 101 942 q 194 940 163 940 q 256 939 225 939 l 313 939 q 544 940 454 939 q 669 943 635 942 z "},"G":{"ha":1015,"x_min":49,"x_max":925,"o":"m 721 251 q 717 326 721 299 q 700 367 713 353 q 664 385 688 381 q 601 390 640 389 q 595 419 597 401 q 593 454 593 438 q 669 451 619 451 q 763 450 719 450 q 854 451 806 450 q 925 453 903 451 q 924 422 925 440 q 917 390 922 404 q 883 385 896 389 q 863 367 871 381 q 853 326 856 353 q 851 251 851 299 l 851 189 q 855 136 851 160 q 869 92 858 113 q 717 17 810 47 q 506 -12 624 -12 q 319 23 403 -12 q 174 123 235 58 q 81 278 114 188 q 49 482 49 369 q 90 687 49 599 q 199 833 131 775 q 353 922 267 892 q 531 951 439 951 q 716 933 631 951 q 864 886 801 915 q 851 785 854 838 q 849 671 849 733 q 775 658 815 658 q 753 777 772 731 q 703 849 735 824 q 631 885 672 875 q 542 894 589 894 q 388 863 453 894 q 280 778 322 831 q 217 656 238 725 q 196 513 196 588 q 217 335 196 418 q 280 190 238 251 q 385 92 322 128 q 533 56 449 56 q 608 60 575 56 q 674 78 640 64 q 709 108 697 88 q 721 182 721 129 l 721 251 z "},"H":{"ha":1047,"x_min":79,"x_max":969,"o":"m 736 451 l 654 451 q 526 451 592 451 q 397 447 460 450 q 313 443 349 446 l 313 176 q 333 83 313 107 q 408 56 353 58 q 415 -4 415 36 q 247 0 332 0 q 161 -1 207 0 q 79 -4 115 -1 q 86 56 79 36 q 162 83 142 58 q 182 176 182 107 l 182 763 q 162 856 182 832 q 86 883 142 881 q 79 943 79 903 q 247 939 156 939 q 333 940 292 939 q 415 943 374 940 q 408 883 415 903 q 333 856 353 881 q 313 763 313 832 l 313 511 l 736 511 l 736 763 q 716 856 736 832 q 640 883 696 881 q 633 943 633 903 q 801 939 710 939 q 887 940 846 939 q 969 943 928 940 q 963 883 969 903 q 887 856 907 881 q 867 763 867 832 l 867 176 q 887 83 867 107 q 963 56 907 58 q 969 -4 969 36 q 801 0 886 0 q 715 -1 761 0 q 633 -4 669 -1 q 640 56 633 36 q 716 83 696 58 q 736 176 736 107 l 736 451 z "},"I":{"ha":493,"x_min":79,"x_max":415,"o":"m 182 763 q 162 856 182 832 q 86 883 142 881 q 79 943 79 903 q 247 939 156 939 q 333 940 292 939 q 415 943 374 940 q 408 883 415 903 q 333 856 353 881 q 313 763 313 832 l 313 176 q 333 83 313 107 q 408 56 353 58 q 415 -4 415 36 q 247 0 332 0 q 161 -1 207 0 q 79 -4 115 -1 q 86 56 79 36 q 162 83 142 58 q 182 176 182 107 l 182 763 z "},"Ì":{"ha":522,"x_min":79,"x_max":444,"o":"m 211 763 q 191 856 211 832 q 115 883 171 881 q 108 943 108 903 q 276 939 185 939 q 362 940 321 939 q 444 943 403 940 q 438 883 444 903 q 362 856 382 881 q 342 763 342 832 l 342 176 q 362 83 342 107 q 438 56 382 58 q 444 -4 444 36 q 276 0 361 0 q 190 -1 236 0 q 108 -4 144 -1 q 115 56 108 36 q 191 83 171 58 q 211 176 211 107 l 211 763 m 311 1044 q 284 1038 299 1038 q 256 1042 269 1039 q 165 1173 207 1117 q 79 1276 124 1229 q 142 1292 107 1290 q 213 1288 178 1293 q 254 1167 231 1228 q 311 1044 278 1107 z "},"Í":{"ha":528,"x_min":79,"x_max":451,"o":"m 182 763 q 162 856 182 832 q 86 883 142 881 q 79 943 79 903 q 247 939 156 939 q 333 940 292 939 q 415 943 374 940 q 408 883 415 903 q 333 856 353 881 q 313 763 313 832 l 313 176 q 333 83 313 107 q 408 56 353 58 q 415 -4 415 36 q 247 0 332 0 q 161 -1 207 0 q 79 -4 115 -1 q 86 56 79 36 q 162 83 142 58 q 182 176 182 107 l 182 763 m 218 1044 q 273 1172 251 1114 q 308 1283 294 1231 q 365 1298 339 1294 q 411 1300 390 1301 q 434 1296 424 1299 q 451 1290 444 1293 q 357 1169 406 1238 q 268 1036 308 1100 q 242 1037 256 1035 q 218 1044 229 1039 z "},"Î":{"ha":622,"x_min":74,"x_max":539,"o":"m 233 763 q 213 856 233 832 q 138 883 193 881 q 131 943 131 903 q 299 939 207 939 q 384 940 343 939 q 467 943 425 940 q 460 883 467 903 q 384 856 404 881 q 364 763 364 832 l 364 176 q 384 83 364 107 q 460 56 404 58 q 467 -4 467 36 q 299 0 383 0 q 213 -1 258 0 q 131 -4 167 -1 q 138 56 131 36 q 213 83 193 58 q 233 176 233 107 l 233 763 m 74 1069 q 185 1165 126 1110 q 292 1278 244 1221 q 315 1282 303 1281 q 336 1283 328 1283 q 425 1172 374 1232 q 539 1050 476 1113 q 497 1025 525 1032 q 450 1058 475 1040 l 400 1094 q 350 1128 375 1113 q 303 1157 325 1144 q 258 1131 286 1149 q 197 1092 229 1113 q 135 1050 165 1071 q 89 1017 106 1029 q 76 1043 79 1026 q 74 1069 74 1060 z "},"Ï":{"ha":583,"x_min":81,"x_max":507,"o":"m 231 763 q 210 856 231 832 q 135 883 190 881 q 128 943 128 903 q 296 939 204 939 q 381 940 340 939 q 464 943 422 940 q 457 883 464 903 q 381 856 401 881 q 361 763 361 832 l 361 176 q 381 83 361 107 q 457 56 401 58 q 464 -4 464 36 q 296 0 381 0 q 210 -1 256 0 q 128 -4 164 -1 q 135 56 128 36 q 210 83 190 58 q 231 176 231 107 l 231 763 m 160 1038 q 102 1058 124 1038 q 81 1108 81 1078 q 99 1163 81 1139 q 157 1188 117 1188 q 217 1165 199 1188 q 236 1111 236 1143 q 214 1058 236 1079 q 160 1038 192 1038 m 428 1188 q 485 1168 463 1188 q 507 1117 507 1149 q 490 1063 507 1088 q 432 1039 474 1039 q 371 1060 392 1039 q 350 1117 350 1082 q 372 1169 350 1150 q 428 1188 393 1188 z "},"J":{"ha":469,"x_min":25,"x_max":421,"o":"m 318 174 q 309 1 318 76 q 272 -135 300 -74 q 191 -247 244 -196 q 49 -346 138 -297 q 25 -310 29 -335 q 94 -242 64 -276 q 146 -165 125 -207 q 177 -71 167 -122 q 188 47 188 -19 l 188 763 q 167 856 188 832 q 92 883 147 881 q 85 943 85 903 q 161 940 115 940 q 253 939 207 939 q 347 940 299 939 q 421 943 396 940 q 414 883 421 903 q 340 856 361 881 q 318 763 318 832 l 318 174 z "},"K":{"ha":942,"x_min":79,"x_max":911,"o":"m 182 763 q 162 856 182 832 q 86 883 142 881 q 79 943 79 903 q 247 939 156 939 q 333 940 292 939 q 415 943 374 940 q 408 883 415 903 q 333 856 353 881 q 313 763 313 832 l 313 493 l 561 754 q 613 816 597 792 q 628 855 629 840 q 615 876 628 869 q 579 883 601 882 q 574 913 575 897 q 572 943 572 928 q 635 940 596 940 q 715 939 674 939 q 858 943 801 939 q 857 913 858 929 q 850 883 856 896 q 805 876 826 882 q 760 858 783 871 q 711 822 738 844 q 651 764 685 799 l 426 522 q 517 424 474 482 q 625 283 569 356 q 694 198 658 239 q 767 126 731 157 q 839 76 803 94 q 911 56 875 57 q 910 29 911 44 q 904 0 908 14 q 793 -1 851 0 q 683 -8 735 -3 q 613 96 658 32 q 513 229 568 160 q 399 363 458 299 q 313 451 353 414 l 313 176 q 333 83 313 107 q 408 56 353 58 q 415 -4 415 36 q 247 0 332 0 q 161 -1 207 0 q 79 -4 115 -1 q 86 56 79 36 q 162 83 142 58 q 182 176 182 107 l 182 763 z "},"L":{"ha":779,"x_min":79,"x_max":751,"o":"m 447 63 q 544 72 506 63 q 609 101 582 81 q 655 156 636 122 q 690 238 674 189 q 725 224 711 231 q 751 204 739 217 q 726 101 736 156 q 708 -3 715 46 q 658 -2 688 -3 q 592 -1 628 -1 q 517 0 556 0 l 349 0 q 247 -1 297 0 q 151 -2 196 -1 q 79 -4 106 -3 q 86 56 79 36 q 133 63 114 57 q 163 85 151 69 q 178 126 174 100 q 183 192 183 151 l 183 763 q 163 856 183 832 q 88 883 143 881 q 82 910 83 894 q 81 943 81 926 q 124 940 101 942 l 169 939 l 249 939 q 334 940 293 939 q 417 943 375 940 q 410 883 417 903 q 364 876 382 882 q 335 856 346 869 q 319 818 324 842 q 314 758 314 794 l 314 192 q 319 128 314 153 q 338 88 324 103 q 376 68 351 74 q 439 63 400 63 l 447 63 z "},"M":{"ha":1299,"x_min":56,"x_max":1251,"o":"m 225 939 q 331 943 276 939 l 678 175 l 981 943 q 1033 940 1004 940 q 1089 939 1061 939 q 1142 940 1117 939 q 1194 943 1167 940 q 1193 913 1194 928 q 1188 883 1192 899 q 1143 877 1163 883 q 1111 855 1124 871 q 1094 812 1099 839 q 1093 743 1089 785 l 1143 233 q 1156 149 1149 182 q 1174 96 1163 115 q 1203 67 1186 76 q 1244 57 1219 58 q 1250 26 1249 42 q 1251 -4 1251 10 q 1214 -2 1235 -3 q 1171 -1 1193 -1 q 1125 0 1149 0 l 1085 0 q 999 -1 1047 0 q 915 -4 951 -1 q 917 25 915 8 q 924 56 919 42 q 976 67 957 58 q 1004 92 996 75 q 1013 140 1013 110 q 1008 215 1013 169 l 958 692 l 671 -3 q 614 -12 647 -12 l 290 690 l 246 244 q 242 153 240 189 q 255 97 244 118 q 285 67 265 76 q 336 56 306 58 q 342 23 340 40 q 343 -4 343 6 q 267 -1 310 -1 q 194 0 225 0 q 124 -1 164 0 q 56 -4 83 -1 q 57 23 56 6 q 63 56 58 40 q 109 67 90 58 q 140 96 128 75 q 161 156 153 117 q 175 257 169 194 l 219 751 q 206 855 226 826 q 126 883 185 883 q 121 914 122 897 q 119 943 119 931 q 169 940 140 940 q 225 939 199 939 z "},"N":{"ha":1053,"x_min":79,"x_max":975,"o":"m 713 943 q 778 940 743 940 q 843 939 814 939 q 910 940 872 939 q 975 943 947 940 q 974 914 975 929 q 968 883 972 899 q 929 874 944 883 q 904 841 914 864 q 890 781 894 818 q 886 686 886 743 l 886 -6 q 860 -11 875 -10 q 829 -12 844 -12 l 253 740 l 253 260 q 257 162 253 201 q 272 99 261 122 q 302 65 283 75 q 349 56 321 56 q 354 29 353 43 q 356 -4 356 15 q 286 -1 324 -1 q 218 0 249 0 q 147 -1 188 0 q 79 -4 106 -1 q 81 28 79 14 q 86 56 82 43 q 133 65 114 56 q 163 99 151 75 q 178 162 174 122 q 182 260 182 201 l 182 833 l 176 840 q 139 873 157 865 q 86 883 121 881 q 81 915 82 899 q 79 943 79 932 q 128 940 100 940 q 182 939 156 939 q 275 943 238 939 l 815 226 l 815 686 q 811 781 815 743 q 796 841 807 818 q 766 874 785 864 q 719 883 747 883 q 714 919 715 907 q 713 943 713 931 z "},"Ñ":{"ha":1053,"x_min":79,"x_max":975,"o":"m 713 943 q 778 940 743 940 q 843 939 814 939 q 910 940 872 939 q 975 943 947 940 q 974 914 975 929 q 968 883 972 899 q 929 874 944 883 q 904 841 914 864 q 890 781 894 818 q 886 686 886 743 l 886 -6 q 860 -11 875 -10 q 829 -12 844 -12 l 253 740 l 253 260 q 257 162 253 201 q 272 99 261 122 q 302 65 283 75 q 349 56 321 56 q 354 29 353 43 q 356 -4 356 15 q 286 -1 324 -1 q 218 0 249 0 q 147 -1 188 0 q 79 -4 106 -1 q 81 28 79 14 q 86 56 82 43 q 133 65 114 56 q 163 99 151 75 q 178 162 174 122 q 182 260 182 201 l 182 833 l 176 840 q 139 873 157 865 q 86 883 121 881 q 81 915 82 899 q 79 943 79 932 q 128 940 100 940 q 182 939 156 939 q 275 943 238 939 l 815 226 l 815 686 q 811 781 815 743 q 796 841 807 818 q 766 874 785 864 q 719 883 747 883 q 714 919 715 907 q 713 943 713 931 m 328 1017 q 314 1043 314 1025 q 393 1143 356 1117 q 465 1169 431 1169 q 513 1160 490 1169 q 559 1141 536 1151 q 604 1122 582 1131 q 650 1113 626 1113 q 692 1122 671 1113 q 735 1156 713 1132 q 748 1153 740 1156 q 761 1144 756 1151 q 692 1039 725 1067 q 626 1011 658 1011 q 580 1020 603 1011 q 533 1041 557 1029 q 485 1062 510 1053 q 435 1071 461 1071 q 383 1059 410 1071 q 328 1017 357 1047 z "},"O":{"ha":1015,"x_min":49,"x_max":967,"o":"m 49 472 q 84 666 49 578 q 181 818 119 754 q 327 917 243 882 q 507 951 411 951 q 691 917 607 951 q 836 819 775 882 q 932 667 897 756 q 967 472 967 579 q 933 281 967 369 q 838 128 899 193 q 692 25 776 63 q 507 -12 608 -12 q 319 24 404 -12 q 174 126 235 61 q 81 280 114 192 q 49 472 49 368 m 192 510 q 214 340 192 422 q 280 195 236 258 q 388 94 324 132 q 535 56 451 56 q 656 85 603 56 q 747 167 710 115 q 804 288 785 218 q 824 436 824 357 q 797 611 824 529 q 725 754 771 693 q 616 850 679 815 q 478 885 553 885 q 364 858 417 885 q 273 781 311 831 q 213 663 235 732 q 192 510 192 594 z "},"Ò":{"ha":1015,"x_min":49,"x_max":967,"o":"m 49 472 q 84 666 49 578 q 181 818 119 754 q 327 917 243 882 q 507 951 411 951 q 691 917 607 951 q 836 819 775 882 q 932 667 897 756 q 967 472 967 579 q 933 281 967 369 q 838 128 899 193 q 692 25 776 63 q 507 -12 608 -12 q 319 24 404 -12 q 174 126 235 61 q 81 280 114 192 q 49 472 49 368 m 192 510 q 214 340 192 422 q 280 195 236 258 q 388 94 324 132 q 535 56 451 56 q 656 85 603 56 q 747 167 710 115 q 804 288 785 218 q 824 436 824 357 q 797 611 824 529 q 725 754 771 693 q 616 850 679 815 q 478 885 553 885 q 364 858 417 885 q 273 781 311 831 q 213 663 235 732 q 192 510 192 594 m 546 1044 q 519 1038 533 1038 q 490 1042 504 1039 q 400 1173 442 1117 q 314 1276 358 1229 q 377 1292 342 1290 q 447 1288 413 1293 q 489 1167 465 1228 q 546 1044 513 1107 z "},"Ó":{"ha":1015,"x_min":49,"x_max":967,"o":"m 49 472 q 84 666 49 578 q 181 818 119 754 q 327 917 243 882 q 507 951 411 951 q 691 917 607 951 q 836 819 775 882 q 932 667 897 756 q 967 472 967 579 q 933 281 967 369 q 838 128 899 193 q 692 25 776 63 q 507 -12 608 -12 q 319 24 404 -12 q 174 126 235 61 q 81 280 114 192 q 49 472 49 368 m 192 510 q 214 340 192 422 q 280 195 236 258 q 388 94 324 132 q 535 56 451 56 q 656 85 603 56 q 747 167 710 115 q 804 288 785 218 q 824 436 824 357 q 797 611 824 529 q 725 754 771 693 q 616 850 679 815 q 478 885 553 885 q 364 858 417 885 q 273 781 311 831 q 213 663 235 732 q 192 510 192 594 m 472 1044 q 527 1172 506 1114 q 563 1283 549 1231 q 619 1298 593 1294 q 665 1300 644 1301 q 688 1296 678 1299 q 706 1290 699 1293 q 611 1169 660 1238 q 522 1036 563 1100 q 497 1037 510 1035 q 472 1044 483 1039 z "},"Ô":{"ha":1015,"x_min":49,"x_max":967,"o":"m 49 472 q 84 666 49 578 q 181 818 119 754 q 327 917 243 882 q 507 951 411 951 q 691 917 607 951 q 836 819 775 882 q 932 667 897 756 q 967 472 967 579 q 933 281 967 369 q 838 128 899 193 q 692 25 776 63 q 507 -12 608 -12 q 319 24 404 -12 q 174 126 235 61 q 81 280 114 192 q 49 472 49 368 m 192 510 q 214 340 192 422 q 280 195 236 258 q 388 94 324 132 q 535 56 451 56 q 656 85 603 56 q 747 167 710 115 q 804 288 785 218 q 824 436 824 357 q 797 611 824 529 q 725 754 771 693 q 616 850 679 815 q 478 885 553 885 q 364 858 417 885 q 273 781 311 831 q 213 663 235 732 q 192 510 192 594 m 278 1069 q 390 1165 331 1110 q 496 1278 449 1221 q 519 1282 507 1281 q 540 1283 532 1283 q 629 1172 578 1232 q 743 1050 681 1113 q 701 1025 729 1032 q 654 1058 679 1040 l 604 1094 q 554 1128 579 1113 q 507 1157 529 1144 q 462 1131 490 1149 q 401 1092 433 1113 q 340 1050 369 1071 q 293 1017 310 1029 q 281 1043 283 1026 q 278 1069 278 1060 z "},"Õ":{"ha":1015,"x_min":49,"x_max":967,"o":"m 49 472 q 84 666 49 578 q 181 818 119 754 q 327 917 243 882 q 507 951 411 951 q 691 917 607 951 q 836 819 775 882 q 932 667 897 756 q 967 472 967 579 q 933 281 967 369 q 838 128 899 193 q 692 25 776 63 q 507 -12 608 -12 q 319 24 404 -12 q 174 126 235 61 q 81 280 114 192 q 49 472 49 368 m 192 510 q 214 340 192 422 q 280 195 236 258 q 388 94 324 132 q 535 56 451 56 q 656 85 603 56 q 747 167 710 115 q 804 288 785 218 q 824 436 824 357 q 797 611 824 529 q 725 754 771 693 q 616 850 679 815 q 478 885 553 885 q 364 858 417 885 q 273 781 311 831 q 213 663 235 732 q 192 510 192 594 m 307 1017 q 293 1043 293 1025 q 372 1143 335 1117 q 444 1169 410 1169 q 492 1160 469 1169 q 538 1141 515 1151 q 583 1122 561 1131 q 629 1113 606 1113 q 671 1122 650 1113 q 714 1156 692 1132 q 727 1153 719 1156 q 740 1144 735 1151 q 671 1039 704 1067 q 606 1011 638 1011 q 559 1020 582 1011 q 513 1041 536 1029 q 465 1062 489 1053 q 414 1071 440 1071 q 363 1059 389 1071 q 307 1017 336 1047 z "},"Ö":{"ha":1015,"x_min":49,"x_max":967,"o":"m 49 472 q 84 666 49 578 q 181 818 119 754 q 327 917 243 882 q 507 951 411 951 q 691 917 607 951 q 836 819 775 882 q 932 667 897 756 q 967 472 967 579 q 933 281 967 369 q 838 128 899 193 q 692 25 776 63 q 507 -12 608 -12 q 319 24 404 -12 q 174 126 235 61 q 81 280 114 192 q 49 472 49 368 m 192 510 q 214 340 192 422 q 280 195 236 258 q 388 94 324 132 q 535 56 451 56 q 656 85 603 56 q 747 167 710 115 q 804 288 785 218 q 824 436 824 357 q 797 611 824 529 q 725 754 771 693 q 616 850 679 815 q 478 885 553 885 q 364 858 417 885 q 273 781 311 831 q 213 663 235 732 q 192 510 192 594 m 374 1038 q 316 1058 338 1038 q 294 1108 294 1078 q 313 1163 294 1139 q 371 1188 331 1188 q 431 1165 413 1188 q 450 1111 450 1143 q 428 1058 450 1079 q 374 1038 406 1038 m 642 1188 q 699 1168 676 1188 q 721 1117 721 1149 q 704 1063 721 1088 q 646 1039 688 1039 q 585 1060 606 1039 q 564 1117 564 1082 q 585 1169 564 1150 q 642 1188 607 1188 z "},"Ø":{"ha":1015,"x_min":49,"x_max":967,"o":"m 49 472 q 84 666 49 578 q 181 818 119 754 q 327 917 243 882 q 507 951 411 951 q 690 917 607 951 q 767 876 732 900 l 839 974 q 878 969 860 974 q 910 951 896 965 l 821 833 l 836 818 q 932 667 897 756 q 967 472 967 579 q 933 281 967 369 q 838 128 899 193 q 692 25 776 63 q 507 -12 608 -12 q 319 24 404 -12 q 228 76 269 46 l 136 -40 q 99 -31 117 -40 q 75 -10 82 -22 l 179 121 l 174 126 q 81 280 114 192 q 49 472 49 368 m 388 93 q 535 56 451 56 q 656 85 603 56 q 747 167 710 115 q 804 288 785 218 q 824 436 824 357 q 797 611 824 529 q 739 735 775 681 l 303 165 q 388 93 339 122 m 192 510 q 214 340 192 422 q 263 221 232 275 l 696 788 q 615 850 660 825 q 478 885 553 885 q 364 858 417 885 q 273 781 311 831 q 213 663 235 732 q 192 510 192 594 z "},"P":{"ha":810,"x_min":79,"x_max":760,"o":"m 347 886 q 313 881 333 885 l 313 204 q 319 131 313 158 q 342 86 326 103 q 380 63 357 69 q 436 56 403 57 q 443 -4 443 36 q 364 -1 411 -1 q 268 0 317 0 l 215 0 q 163 -1 189 0 q 115 -2 136 -1 q 79 -4 93 -3 q 86 56 79 36 q 162 83 142 58 q 182 176 182 107 l 182 763 q 162 856 182 832 q 86 883 142 881 q 79 943 79 903 q 184 940 133 940 q 268 939 235 939 q 355 940 304 939 q 465 942 406 942 q 597 919 542 942 q 689 859 653 897 q 742 769 725 821 q 760 660 760 718 q 740 552 760 607 q 681 453 721 497 q 583 380 642 408 q 444 351 524 351 q 391 356 415 351 q 347 367 367 360 q 345 390 344 378 q 349 413 346 403 q 425 404 383 404 q 500 414 464 404 q 565 449 536 424 q 610 517 593 474 q 628 626 628 560 q 614 733 628 685 q 571 815 600 781 q 497 869 542 850 q 390 889 453 889 q 347 886 367 889 z "},"Þ":{"ha":842,"x_min":78,"x_max":765,"o":"m 181 763 q 160 856 181 832 q 85 883 140 881 q 78 943 78 903 q 246 939 154 939 q 331 940 290 939 q 414 943 372 940 q 407 883 414 903 q 331 856 351 881 q 311 763 311 832 l 311 747 q 343 749 326 749 q 408 749 375 749 q 471 750 442 750 q 603 730 547 750 q 694 674 658 710 q 748 592 731 639 q 765 492 765 544 q 746 392 765 442 q 687 301 726 342 q 588 235 647 261 q 450 210 529 210 q 397 213 421 210 q 353 224 372 217 q 351 247 350 235 q 354 269 351 260 q 390 264 372 265 q 431 263 408 263 q 506 271 469 263 q 570 302 542 279 q 616 363 599 325 q 633 463 633 401 q 619 557 633 514 q 576 631 606 600 q 503 680 547 663 q 396 697 458 697 q 353 694 372 697 q 311 688 338 693 l 311 176 q 331 83 311 107 q 407 56 351 58 q 414 -4 414 36 q 246 0 331 0 q 160 -1 206 0 q 78 -4 114 -1 q 85 56 78 36 q 160 83 140 58 q 181 176 181 107 l 181 763 z "},"Q":{"ha":1043,"x_min":49,"x_max":1064,"o":"m 49 472 q 84 666 49 578 q 181 818 119 754 q 327 917 243 882 q 507 951 411 951 q 691 917 607 951 q 836 819 775 882 q 932 667 897 756 q 967 472 967 579 q 933 281 967 369 q 838 128 899 193 q 692 25 776 63 q 671 15 682 19 q 754 -19 718 1 q 849 -77 804 -49 q 943 -124 893 -106 q 1064 -136 993 -143 q 1062 -163 1064 -149 q 1056 -192 1060 -178 q 976 -218 1015 -204 q 883 -256 936 -232 q 807 -224 838 -244 q 752 -177 776 -203 q 706 -125 728 -151 q 657 -75 683 -99 q 594 -35 631 -51 q 510 -12 558 -18 l 507 -12 q 319 24 404 -12 q 174 126 235 61 q 81 280 114 192 q 49 472 49 368 m 192 510 q 214 340 192 422 q 280 195 236 258 q 388 94 324 132 q 535 56 451 56 q 656 85 603 56 q 747 167 710 115 q 804 288 785 218 q 824 436 824 357 q 797 611 824 529 q 725 754 771 693 q 616 850 679 815 q 478 885 553 885 q 364 858 417 885 q 273 781 311 831 q 213 663 235 732 q 192 510 192 594 z "},"R":{"ha":951,"x_min":79,"x_max":915,"o":"m 246 939 q 362 940 304 939 q 478 942 419 942 q 614 924 557 942 q 708 874 671 906 q 763 801 744 843 q 781 708 781 758 q 714 544 781 611 q 549 456 653 483 q 582 422 567 439 q 619 376 601 401 q 657 317 638 350 q 703 235 676 283 q 799 103 751 147 q 915 56 846 58 q 915 25 915 39 q 910 -4 914 11 q 800 -6 857 -4 q 692 -12 743 -7 q 638 79 669 22 q 572 203 606 136 q 494 328 540 267 q 414 424 458 378 q 313 424 357 421 l 313 176 q 332 83 313 107 q 404 56 351 58 q 410 27 408 43 q 411 -4 411 11 q 319 -1 367 -1 q 246 0 272 0 l 206 0 q 160 -1 183 0 q 116 -2 138 -1 q 79 -4 94 -3 q 81 26 79 11 q 86 56 82 42 q 162 83 142 58 q 182 176 182 107 l 182 763 q 162 858 182 832 q 86 883 142 883 q 81 911 82 897 q 79 942 79 925 q 149 940 100 940 q 246 939 197 939 m 358 889 q 313 881 336 886 l 313 492 q 339 489 326 489 q 374 488 356 488 q 480 499 431 488 q 566 537 529 511 q 624 601 603 563 q 644 694 644 640 q 592 837 644 782 q 415 892 540 892 q 358 889 383 892 z "},"S":{"ha":743,"x_min":94,"x_max":663,"o":"m 367 951 q 500 933 444 951 q 585 890 556 914 q 586 797 585 850 q 593 707 588 744 q 556 697 578 700 q 515 694 535 694 q 490 792 504 754 q 458 852 476 831 q 416 882 439 874 q 367 890 393 890 q 268 854 304 890 q 232 751 232 818 q 264 651 232 690 q 344 582 296 613 q 447 524 392 551 q 551 462 503 497 q 631 376 599 426 q 663 250 663 326 q 641 149 663 197 q 582 65 619 101 q 493 8 544 29 q 381 -12 442 -12 q 295 -8 332 -12 q 227 8 258 -3 q 165 35 196 18 q 94 76 133 51 q 105 182 103 129 q 107 274 107 235 q 143 280 122 278 q 182 282 164 282 q 196 188 185 229 q 230 116 207 146 q 291 70 253 86 q 388 54 329 54 q 456 66 426 54 q 504 97 485 78 q 534 142 524 117 q 544 197 544 168 q 513 299 544 260 q 433 366 481 338 q 328 420 385 394 q 224 481 272 446 q 144 569 176 517 q 113 707 113 622 q 131 806 113 761 q 183 884 150 851 q 263 934 217 917 q 367 951 310 951 z "},"T":{"ha":813,"x_min":35,"x_max":776,"o":"m 346 885 l 275 885 q 190 872 221 885 q 140 838 158 860 q 114 786 122 815 q 99 722 106 757 q 65 725 83 722 q 35 735 47 728 q 51 839 46 783 q 57 943 57 894 q 210 940 115 940 q 411 939 306 939 l 515 939 q 613 940 567 939 q 699 941 660 940 q 768 943 739 942 q 776 735 768 849 q 744 725 761 728 q 710 722 726 722 q 669 841 707 797 q 543 885 631 885 l 476 885 l 476 176 q 481 119 476 142 q 497 83 485 96 q 530 63 508 69 q 585 56 551 57 q 592 -4 592 36 q 501 -1 547 -1 q 410 0 454 0 q 316 -1 365 0 q 228 -4 267 -1 q 235 56 228 36 q 290 63 268 57 q 324 83 311 69 q 341 119 336 96 q 346 176 346 142 l 346 885 z "},"U":{"ha":979,"x_min":79,"x_max":901,"o":"m 813 374 q 809 267 813 314 q 797 184 806 221 q 772 119 788 147 q 733 67 757 90 q 636 7 693 26 q 508 -12 579 -12 q 346 9 411 -12 q 241 73 281 31 q 185 178 201 115 q 168 321 168 240 l 168 763 q 165 822 168 800 q 152 857 161 844 q 127 875 143 869 q 86 883 111 881 q 81 914 82 899 q 79 943 79 929 q 152 940 107 940 q 240 939 197 939 q 326 940 283 939 q 401 943 369 940 q 400 914 401 929 q 394 883 399 899 q 345 876 364 881 q 316 858 326 871 q 302 823 306 846 q 299 763 299 800 l 299 340 q 310 231 299 282 q 348 142 321 179 q 420 83 375 104 q 535 61 465 61 q 611 73 569 61 q 682 114 653 85 q 710 150 699 131 q 728 199 721 169 q 738 267 735 228 q 742 363 742 307 l 742 707 q 738 790 742 757 q 724 842 735 822 q 695 872 714 863 q 646 883 676 881 q 640 916 642 904 q 639 943 639 928 q 700 940 663 940 q 769 939 738 939 q 838 940 801 939 q 901 943 874 940 q 900 920 901 933 q 894 883 899 907 q 855 872 871 881 q 829 843 839 863 q 816 790 819 824 q 813 707 813 757 l 813 374 z "},"Ù":{"ha":979,"x_min":79,"x_max":901,"o":"m 813 374 q 809 267 813 314 q 797 184 806 221 q 772 119 788 147 q 733 67 757 90 q 636 7 693 26 q 508 -12 579 -12 q 346 9 411 -12 q 241 73 281 31 q 185 178 201 115 q 168 321 168 240 l 168 763 q 165 822 168 800 q 152 857 161 844 q 127 875 143 869 q 86 883 111 881 q 81 914 82 899 q 79 943 79 929 q 152 940 107 940 q 240 939 197 939 q 326 940 283 939 q 401 943 369 940 q 400 914 401 929 q 394 883 399 899 q 345 876 364 881 q 316 858 326 871 q 302 823 306 846 q 299 763 299 800 l 299 340 q 310 231 299 282 q 348 142 321 179 q 420 83 375 104 q 535 61 465 61 q 611 73 569 61 q 682 114 653 85 q 710 150 699 131 q 728 199 721 169 q 738 267 735 228 q 742 363 742 307 l 742 707 q 738 790 742 757 q 724 842 735 822 q 695 872 714 863 q 646 883 676 881 q 640 916 642 904 q 639 943 639 928 q 700 940 663 940 q 769 939 738 939 q 838 940 801 939 q 901 943 874 940 q 900 920 901 933 q 894 883 899 907 q 855 872 871 881 q 829 843 839 863 q 816 790 819 824 q 813 707 813 757 l 813 374 m 549 1044 q 522 1038 536 1038 q 493 1042 507 1039 q 403 1173 444 1117 q 317 1276 361 1229 q 380 1292 344 1290 q 450 1288 415 1293 q 492 1167 468 1228 q 549 1044 515 1107 z "},"Ú":{"ha":979,"x_min":79,"x_max":901,"o":"m 813 374 q 809 267 813 314 q 797 184 806 221 q 772 119 788 147 q 733 67 757 90 q 636 7 693 26 q 508 -12 579 -12 q 346 9 411 -12 q 241 73 281 31 q 185 178 201 115 q 168 321 168 240 l 168 763 q 165 822 168 800 q 152 857 161 844 q 127 875 143 869 q 86 883 111 881 q 81 914 82 899 q 79 943 79 929 q 152 940 107 940 q 240 939 197 939 q 326 940 283 939 q 401 943 369 940 q 400 914 401 929 q 394 883 399 899 q 345 876 364 881 q 316 858 326 871 q 302 823 306 846 q 299 763 299 800 l 299 340 q 310 231 299 282 q 348 142 321 179 q 420 83 375 104 q 535 61 465 61 q 611 73 569 61 q 682 114 653 85 q 710 150 699 131 q 728 199 721 169 q 738 267 735 228 q 742 363 742 307 l 742 707 q 738 790 742 757 q 724 842 735 822 q 695 872 714 863 q 646 883 676 881 q 640 916 642 904 q 639 943 639 928 q 700 940 663 940 q 769 939 738 939 q 838 940 801 939 q 901 943 874 940 q 900 920 901 933 q 894 883 899 907 q 855 872 871 881 q 829 843 839 863 q 816 790 819 824 q 813 707 813 757 l 813 374 m 511 1044 q 566 1172 544 1114 q 601 1283 588 1231 q 658 1298 632 1294 q 704 1300 683 1301 q 727 1296 717 1299 q 744 1290 738 1293 q 650 1169 699 1238 q 561 1036 601 1100 q 535 1037 549 1035 q 511 1044 522 1039 z "},"Û":{"ha":979,"x_min":79,"x_max":901,"o":"m 813 374 q 809 267 813 314 q 797 184 806 221 q 772 119 788 147 q 733 67 757 90 q 636 7 693 26 q 508 -12 579 -12 q 346 9 411 -12 q 241 73 281 31 q 185 178 201 115 q 168 321 168 240 l 168 763 q 165 822 168 800 q 152 857 161 844 q 127 875 143 869 q 86 883 111 881 q 81 914 82 899 q 79 943 79 929 q 152 940 107 940 q 240 939 197 939 q 326 940 283 939 q 401 943 369 940 q 400 914 401 929 q 394 883 399 899 q 345 876 364 881 q 316 858 326 871 q 302 823 306 846 q 299 763 299 800 l 299 340 q 310 231 299 282 q 348 142 321 179 q 420 83 375 104 q 535 61 465 61 q 611 73 569 61 q 682 114 653 85 q 710 150 699 131 q 728 199 721 169 q 738 267 735 228 q 742 363 742 307 l 742 707 q 738 790 742 757 q 724 842 735 822 q 695 872 714 863 q 646 883 676 881 q 640 916 642 904 q 639 943 639 928 q 700 940 663 940 q 769 939 738 939 q 838 940 801 939 q 901 943 874 940 q 900 920 901 933 q 894 883 899 907 q 855 872 871 881 q 829 843 839 863 q 816 790 819 824 q 813 707 813 757 l 813 374 m 288 1069 q 399 1165 340 1110 q 506 1278 458 1221 q 529 1282 517 1281 q 550 1283 542 1283 q 639 1172 588 1232 q 753 1050 690 1113 q 711 1025 739 1032 q 664 1058 689 1040 l 614 1094 q 564 1128 589 1113 q 517 1157 539 1144 q 472 1131 500 1149 q 411 1092 443 1113 q 349 1050 379 1071 q 303 1017 319 1029 q 290 1043 293 1026 q 288 1069 288 1060 z "},"Ü":{"ha":979,"x_min":79,"x_max":901,"o":"m 813 374 q 809 267 813 314 q 797 184 806 221 q 772 119 788 147 q 733 67 757 90 q 636 7 693 26 q 508 -12 579 -12 q 346 9 411 -12 q 241 73 281 31 q 185 178 201 115 q 168 321 168 240 l 168 763 q 165 822 168 800 q 152 857 161 844 q 127 875 143 869 q 86 883 111 881 q 81 914 82 899 q 79 943 79 929 q 152 940 107 940 q 240 939 197 939 q 326 940 283 939 q 401 943 369 940 q 400 914 401 929 q 394 883 399 899 q 345 876 364 881 q 316 858 326 871 q 302 823 306 846 q 299 763 299 800 l 299 340 q 310 231 299 282 q 348 142 321 179 q 420 83 375 104 q 535 61 465 61 q 611 73 569 61 q 682 114 653 85 q 710 150 699 131 q 728 199 721 169 q 738 267 735 228 q 742 363 742 307 l 742 707 q 738 790 742 757 q 724 842 735 822 q 695 872 714 863 q 646 883 676 881 q 640 916 642 904 q 639 943 639 928 q 700 940 663 940 q 769 939 738 939 q 838 940 801 939 q 901 943 874 940 q 900 920 901 933 q 894 883 899 907 q 855 872 871 881 q 829 843 839 863 q 816 790 819 824 q 813 707 813 757 l 813 374 m 392 1038 q 334 1058 356 1038 q 313 1108 313 1078 q 331 1163 313 1139 q 389 1188 349 1188 q 449 1165 431 1188 q 468 1111 468 1143 q 446 1058 468 1079 q 392 1038 424 1038 m 660 1188 q 717 1168 694 1188 q 739 1117 739 1149 q 722 1063 739 1088 q 664 1039 706 1039 q 603 1060 624 1039 q 582 1117 582 1082 q 603 1169 582 1150 q 660 1188 625 1188 z "},"V":{"ha":953,"x_min":35,"x_max":918,"o":"m 313 732 q 429 458 372 596 q 536 196 482 332 q 629 439 585 319 q 726 714 679 572 q 742 833 753 790 q 665 883 731 876 q 660 915 661 899 q 658 943 658 932 q 717 940 689 940 q 776 939 744 939 q 848 940 808 939 q 918 943 888 940 q 917 913 918 928 q 911 883 915 899 q 844 831 868 872 q 794 719 819 789 q 663 359 729 539 q 526 -3 597 179 q 472 -8 503 -8 q 391 193 432 93 q 310 387 350 293 q 234 566 271 481 q 164 724 197 651 q 126 806 140 775 q 99 853 111 836 q 74 875 86 869 q 42 883 61 881 q 36 916 38 900 q 35 943 35 932 q 110 940 63 940 q 203 939 158 939 q 371 943 292 939 q 364 883 371 915 q 310 874 331 881 q 284 852 290 868 q 285 808 278 836 q 313 732 292 779 z "},"W":{"ha":1393,"x_min":35,"x_max":1358,"o":"m 35 943 q 114 940 68 940 q 192 939 160 939 l 229 939 q 273 940 250 939 q 318 941 296 940 q 360 943 340 942 q 358 916 360 932 q 353 883 357 900 q 296 876 317 881 q 267 856 275 871 q 265 814 260 842 q 288 740 271 786 q 335 604 310 676 q 385 458 360 532 q 433 310 410 383 q 461 224 447 265 l 699 943 q 724 949 710 947 q 760 950 738 950 q 833 762 794 860 q 908 564 871 664 q 982 365 946 464 q 1033 225 1008 293 l 1168 686 q 1188 774 1183 739 q 1184 833 1192 810 q 1156 867 1176 856 q 1101 883 1135 879 q 1094 915 1096 897 q 1092 943 1092 932 q 1226 939 1150 939 q 1294 940 1258 939 q 1358 943 1331 940 q 1356 914 1358 929 q 1349 883 1354 899 q 1317 869 1331 879 q 1290 836 1303 858 q 1263 777 1276 814 q 1232 682 1249 740 l 1029 -4 q 974 -12 1006 -12 q 906 172 942 76 q 833 365 869 268 q 758 558 796 463 q 694 721 725 642 l 458 -4 q 431 -10 447 -8 q 399 -12 414 -12 q 277 357 339 174 q 151 724 215 540 q 119 810 132 779 q 96 857 107 842 q 72 876 85 872 q 42 883 60 881 q 36 913 38 897 q 35 943 35 928 z "},"X":{"ha":886,"x_min":39,"x_max":854,"o":"m 371 735 q 483 560 429 646 l 586 719 q 626 794 614 764 q 635 842 639 824 q 615 870 632 861 q 565 883 597 879 q 560 915 561 899 q 558 943 558 932 q 631 940 593 940 q 700 939 668 939 q 772 940 732 939 q 838 943 811 940 q 837 914 838 929 q 832 883 836 899 q 800 872 815 879 q 767 847 785 864 q 726 800 749 829 q 672 724 703 771 l 524 497 q 536 476 529 486 q 694 218 617 349 q 744 139 724 169 q 783 91 765 108 q 815 66 800 74 q 846 56 829 58 q 854 -4 854 31 q 776 -1 824 -1 q 685 0 728 0 q 595 -1 642 0 q 517 -3 549 -1 q 518 25 517 10 q 522 56 519 40 q 565 65 549 58 q 586 86 582 71 q 581 128 590 101 q 544 200 571 156 q 426 394 486 297 l 306 215 q 256 103 253 138 q 329 56 260 68 q 335 25 333 40 q 336 -4 336 10 q 261 -1 300 -1 q 183 0 222 0 q 106 -1 144 0 q 39 -4 67 -1 q 40 25 39 7 q 47 58 42 43 q 121 98 81 67 q 213 200 161 129 l 390 454 l 388 458 q 221 717 307 586 q 162 804 183 772 q 125 852 140 836 q 98 874 110 868 q 69 882 86 879 q 63 913 64 899 q 61 943 61 928 q 144 940 97 940 q 231 939 190 939 q 318 940 269 939 q 399 942 367 940 q 397 914 399 929 q 393 883 396 899 q 347 869 364 878 q 327 843 331 860 q 335 800 324 826 q 371 735 346 774 z "},"Y":{"ha":875,"x_min":35,"x_max":840,"o":"m 508 410 l 508 226 q 512 139 508 171 q 526 90 515 107 q 558 67 538 74 q 615 56 579 60 q 624 -4 624 31 l 532 -1 q 447 0 486 0 l 397 0 q 344 -1 371 0 q 295 -2 318 -1 q 258 -3 272 -3 q 260 28 258 13 q 267 56 263 43 q 326 65 304 58 q 359 86 347 71 q 374 131 371 101 q 378 208 378 160 l 378 408 l 146 803 q 122 840 132 825 q 100 865 111 856 q 76 879 89 875 q 43 885 63 883 q 36 913 38 900 q 35 942 35 926 q 101 940 64 940 q 179 939 139 939 l 275 939 q 325 940 301 939 q 365 942 349 940 q 364 915 365 926 q 358 888 363 903 q 297 860 304 882 q 321 783 289 838 q 410 626 363 711 q 485 485 450 554 q 554 615 518 550 q 632 756 596 693 q 660 850 671 824 q 594 885 650 876 q 588 913 590 900 q 585 942 585 926 q 649 939 610 939 l 721 939 q 785 940 753 939 q 840 942 817 940 q 835 888 840 914 q 800 873 815 882 q 768 847 785 864 q 733 804 751 831 q 693 738 715 778 l 508 410 z "},"Ý":{"ha":875,"x_min":35,"x_max":840,"o":"m 508 410 l 508 226 q 512 139 508 171 q 526 90 515 107 q 558 67 538 74 q 615 56 579 60 q 624 -4 624 31 l 532 -1 q 447 0 486 0 l 397 0 q 344 -1 371 0 q 295 -2 318 -1 q 258 -3 272 -3 q 260 28 258 13 q 267 56 263 43 q 326 65 304 58 q 359 86 347 71 q 374 131 371 101 q 378 208 378 160 l 378 408 l 146 803 q 122 840 132 825 q 100 865 111 856 q 76 879 89 875 q 43 885 63 883 q 36 913 38 900 q 35 942 35 926 q 101 940 64 940 q 179 939 139 939 l 275 939 q 325 940 301 939 q 365 942 349 940 q 364 915 365 926 q 358 888 363 903 q 297 860 304 882 q 321 783 289 838 q 410 626 363 711 q 485 485 450 554 q 554 615 518 550 q 632 756 596 693 q 660 850 671 824 q 594 885 650 876 q 588 913 590 900 q 585 942 585 926 q 649 939 610 939 l 721 939 q 785 940 753 939 q 840 942 817 940 q 835 888 840 914 q 800 873 815 882 q 768 847 785 864 q 733 804 751 831 q 693 738 715 778 l 508 410 m 443 1044 q 498 1172 476 1114 q 533 1283 519 1231 q 590 1298 564 1294 q 636 1300 615 1301 q 659 1296 649 1299 q 676 1290 669 1293 q 582 1169 631 1238 q 493 1036 533 1100 q 467 1037 481 1035 q 443 1044 454 1039 z "},"Z":{"ha":876,"x_min":81,"x_max":789,"o":"m 142 942 q 206 941 163 942 q 298 940 249 940 q 396 939 347 939 l 611 939 q 747 942 672 939 q 758 922 754 935 q 763 896 763 910 q 504 457 633 669 q 257 58 383 256 l 471 58 q 577 65 535 58 q 647 90 619 71 q 690 143 674 108 q 717 235 706 178 q 789 211 763 231 q 772 108 778 165 q 764 -4 765 51 q 667 -2 713 -3 q 579 -1 622 -1 q 492 0 536 0 l 307 0 q 220 -1 261 0 q 146 -2 179 -1 q 92 -4 113 -3 q 83 17 86 7 q 81 40 81 26 q 343 467 214 256 q 590 883 468 672 l 393 883 q 315 877 347 883 q 259 851 282 871 q 221 797 236 832 q 194 706 206 763 q 153 708 176 706 q 115 719 129 711 q 135 824 128 764 q 142 942 142 885 z "},"`":{"ha":369,"x_min":-15,"x_max":217,"o":"m 217 746 q 190 740 204 739 q 161 743 175 740 q 71 874 113 818 q -15 978 29 931 q 48 993 13 992 q 118 989 83 994 q 160 869 136 929 q 217 746 183 808 z "},"´":{"ha":750,"x_min":311,"x_max":544,"o":"m 311 746 q 366 874 344 815 q 401 985 388 932 q 458 999 432 996 q 504 1001 483 1003 q 527 997 517 1000 q 544 992 538 994 q 450 870 499 939 q 361 738 401 801 q 335 738 349 736 q 311 746 322 740 z "},"ˆ":{"ha":750,"x_min":104,"x_max":569,"o":"m 104 771 q 216 867 157 811 q 322 979 275 922 q 346 983 333 982 q 367 985 358 985 q 456 874 404 933 q 569 751 507 814 q 528 726 556 733 q 481 760 506 742 l 431 796 q 381 830 406 814 q 333 858 356 846 q 288 832 317 850 q 228 793 260 814 q 166 751 196 772 q 119 718 136 731 q 107 744 110 728 q 104 771 104 761 z "},"˜":{"ha":750,"x_min":144,"x_max":592,"o":"m 158 718 q 144 744 144 726 q 224 844 186 818 q 296 871 261 871 q 344 862 321 871 q 390 842 367 853 q 435 823 413 832 q 481 814 457 814 q 522 824 501 814 q 565 857 543 833 q 578 855 571 857 q 592 846 586 853 q 522 740 556 768 q 457 713 489 713 q 410 722 433 713 q 364 742 388 731 q 316 763 340 754 q 265 772 292 772 q 214 760 240 772 q 158 718 188 749 z "},"¨":{"ha":750,"x_min":201,"x_max":628,"o":"m 281 739 q 223 759 244 739 q 201 810 201 779 q 219 865 201 840 q 278 889 238 889 q 338 867 319 889 q 357 813 357 844 q 335 760 357 781 q 281 739 313 739 m 549 889 q 606 869 583 889 q 628 818 628 850 q 611 765 628 789 q 553 740 594 740 q 492 762 513 740 q 471 818 471 783 q 492 870 471 851 q 549 889 514 889 z "},"˚":{"ha":750,"x_min":286,"x_max":567,"o":"m 286 853 q 328 946 286 908 q 431 983 369 983 q 481 976 456 983 q 524 954 506 969 q 555 916 543 939 q 567 863 567 893 q 525 768 567 806 q 421 731 483 731 q 370 739 394 731 q 327 763 346 747 q 297 802 308 779 q 286 853 286 825 m 363 858 q 381 804 363 826 q 435 782 400 782 q 474 799 457 782 q 492 849 492 817 q 474 907 492 878 q 421 936 457 936 q 378 915 394 936 q 363 858 363 894 z "},"¯":{"ha":750,"x_min":121,"x_max":626,"o":"m 626 876 q 614 817 626 847 l 551 817 q 440 816 506 817 q 292 815 374 815 q 121 813 210 814 q 124 842 121 821 q 133 876 126 864 l 626 876 z "},"¸":{"ha":750,"x_min":311,"x_max":504,"o":"m 450 22 l 383 -69 q 472 -112 439 -79 q 504 -196 504 -146 q 487 -257 504 -231 q 442 -301 469 -283 q 384 -327 415 -318 q 326 -336 353 -336 q 319 -315 321 -326 q 317 -292 317 -303 q 392 -272 358 -292 q 426 -215 426 -251 q 401 -160 426 -181 q 336 -140 375 -140 q 318 -119 325 -132 q 311 -87 311 -106 l 381 22 l 450 22 z "},"ﬁ":{"ha":893,"x_min":50,"x_max":821,"o":"m 607 446 q 603 494 607 474 q 583 528 599 515 q 540 549 568 542 q 463 558 511 557 q 415 557 442 558 q 364 553 389 556 q 317 548 339 551 q 286 542 296 544 l 286 176 q 308 84 286 110 q 382 56 329 58 q 388 29 386 43 q 389 -4 389 15 q 317 -1 361 -1 q 231 0 272 0 l 185 0 q 138 -1 161 0 q 93 -2 114 -1 q 58 -4 72 -3 q 65 56 58 36 q 141 83 121 58 q 161 176 161 107 l 161 544 q 110 556 144 551 q 50 561 75 561 q 54 591 50 574 q 69 622 58 608 l 161 622 l 161 678 q 185 802 161 744 q 252 902 208 860 q 358 969 296 944 q 499 993 421 993 q 614 981 564 993 q 708 950 664 969 q 705 878 706 906 q 704 822 704 850 q 651 801 685 808 q 585 801 617 794 q 555 890 585 858 q 463 921 525 921 q 326 872 367 921 q 286 721 286 822 l 286 622 l 518 622 q 613 629 563 624 q 701 649 663 635 q 725 629 718 642 q 732 589 732 617 l 732 176 q 751 83 732 107 q 814 56 769 58 q 819 27 818 43 q 821 -4 821 11 q 751 -1 793 -1 q 663 0 708 0 q 574 -1 617 0 q 504 -4 532 -1 q 506 28 504 14 q 511 56 507 42 q 587 83 567 58 q 607 176 607 107 l 607 446 z "},"ﬂ":{"ha":868,"x_min":50,"x_max":817,"o":"m 603 794 q 560 885 599 854 q 444 918 518 918 q 326 873 365 918 q 286 721 286 828 l 286 622 l 428 622 q 425 591 428 608 q 414 560 422 574 q 286 543 340 560 l 286 204 q 291 131 286 160 q 307 87 296 103 q 336 64 318 71 q 382 56 354 57 q 389 -4 389 36 q 228 0 324 0 q 133 -1 179 0 q 58 -4 86 -1 q 65 56 58 36 q 141 83 121 58 q 161 176 161 107 l 161 547 q 101 557 131 554 q 50 560 71 560 q 69 622 50 597 l 161 622 l 161 678 q 190 819 161 760 q 266 917 219 879 q 371 974 313 956 q 488 993 429 993 q 575 982 535 993 q 626 965 606 975 l 642 969 q 697 996 672 978 q 719 979 710 992 q 728 940 728 967 l 728 176 q 747 81 728 107 q 810 56 765 56 q 815 23 814 40 q 817 -4 817 6 q 740 -1 781 -1 q 660 0 700 0 q 577 -1 619 0 q 500 -4 535 -1 q 501 26 500 10 q 507 56 503 42 q 583 81 563 56 q 603 176 603 107 l 603 794 z "},"":{"ha":863,"x_min":50,"x_max":732,"o":"m 607 446 q 603 494 607 474 q 583 528 599 515 q 540 549 568 542 q 463 558 511 557 q 415 557 442 558 q 364 553 389 556 q 317 548 339 551 q 286 542 296 544 l 286 176 q 308 84 286 110 q 382 56 329 58 q 388 29 386 43 q 389 -4 389 15 q 317 -1 361 -1 q 231 0 272 0 l 185 0 q 138 -1 161 0 q 93 -2 114 -1 q 58 -4 72 -3 q 65 56 58 36 q 141 83 121 58 q 161 176 161 107 l 161 544 q 110 556 144 551 q 50 561 75 561 q 54 591 50 574 q 69 622 58 608 l 161 622 l 161 678 q 185 802 161 744 q 252 902 208 860 q 358 969 296 944 q 499 993 421 993 q 614 981 564 993 q 708 950 664 969 q 705 878 706 906 q 704 822 704 850 q 651 801 685 808 q 585 801 617 794 q 555 890 585 858 q 463 921 525 921 q 326 872 367 921 q 286 721 286 822 l 286 622 l 518 622 q 613 629 563 624 q 701 649 663 635 q 725 629 718 642 q 732 589 732 617 l 732 32 q 710 -99 732 -39 q 656 -206 689 -158 q 581 -290 622 -254 q 501 -346 540 -325 q 482 -331 490 -340 q 471 -307 474 -321 q 539 -219 513 -260 q 581 -140 565 -179 q 601 -59 596 -101 q 607 36 607 -17 l 607 446 z "},"":{"ha":958,"x_min":50,"x_max":917,"o":"m 599 622 l 599 767 q 557 857 596 826 q 443 890 517 890 q 325 845 364 890 q 286 693 286 800 l 286 622 l 428 622 q 425 591 428 608 q 414 560 422 574 q 286 543 340 560 l 286 204 q 293 131 286 158 q 315 86 300 103 q 353 63 331 69 q 410 56 376 57 q 417 -4 417 36 q 338 -1 385 -1 q 242 0 290 0 l 190 0 q 139 -1 164 0 q 93 -2 114 -1 q 58 -4 72 -3 q 65 56 58 36 q 141 83 121 58 q 161 176 161 107 l 161 547 q 101 557 131 554 q 50 560 71 560 q 69 622 50 597 l 161 622 l 161 650 q 190 792 161 732 q 265 890 218 851 q 369 947 311 928 q 486 965 428 965 q 575 954 533 965 q 638 928 611 944 q 693 954 668 936 q 715 938 706 950 q 725 899 725 925 l 725 622 l 904 622 q 892 561 904 592 q 725 543 790 557 l 725 196 q 746 94 725 125 q 804 63 767 63 q 855 71 833 63 q 896 96 876 79 q 917 50 914 75 q 849 6 893 24 q 760 -12 804 -12 q 638 29 676 -12 q 599 167 599 71 l 599 543 q 556 554 578 550 q 499 561 533 558 q 501 592 499 579 q 511 622 504 606 l 599 622 z "},"":{"ha":1407,"x_min":50,"x_max":1365,"o":"m 1047 622 l 1047 757 q 1006 857 1047 824 q 892 890 965 890 q 774 845 813 890 q 735 693 735 800 l 735 622 l 876 622 q 874 591 876 608 q 863 560 871 574 q 735 543 789 560 l 735 204 q 742 131 735 158 q 764 86 749 103 q 802 63 779 69 q 858 56 825 57 q 865 -4 865 36 q 786 -1 833 -1 q 690 0 739 0 l 639 0 q 588 -1 613 0 q 542 -2 563 -1 q 507 -4 521 -3 q 514 56 507 36 q 590 83 569 58 q 610 176 610 107 l 610 549 q 545 559 579 556 q 463 563 511 563 q 353 557 392 563 q 286 544 314 551 l 286 204 q 293 131 286 158 q 315 86 300 103 q 353 63 331 69 q 410 56 376 57 q 417 -4 417 36 q 338 -1 385 -1 q 242 0 290 0 l 190 0 q 139 -1 164 0 q 93 -2 114 -1 q 58 -4 72 -3 q 65 56 58 36 q 141 83 121 58 q 161 176 161 107 l 161 547 q 101 557 131 554 q 50 560 71 560 q 69 622 50 597 l 161 622 l 161 640 q 187 768 161 710 q 257 868 213 826 q 361 933 301 910 q 490 957 421 957 q 606 936 550 957 q 701 879 658 918 q 713 889 707 885 q 818 947 760 928 q 935 965 876 965 q 1024 954 982 965 q 1086 928 1060 944 q 1142 954 1117 936 q 1164 938 1154 950 q 1174 899 1174 925 l 1174 622 l 1353 622 q 1340 561 1353 592 q 1174 543 1239 557 l 1174 196 q 1194 94 1174 125 q 1253 63 1215 63 q 1303 71 1282 63 q 1344 96 1325 79 q 1365 50 1363 75 q 1297 6 1342 24 q 1208 -12 1253 -12 q 1086 29 1125 -12 q 1047 167 1047 71 l 1047 543 q 1004 554 1026 550 q 947 561 982 558 q 950 592 947 579 q 960 622 953 606 l 1047 622 m 610 622 l 610 650 q 631 776 610 722 q 571 849 606 821 q 469 885 528 885 q 338 838 390 885 q 286 679 286 790 l 286 622 l 610 622 z "},"!":{"ha":571,"x_min":201,"x_max":371,"o":"m 342 992 q 367 949 371 982 q 353 806 360 883 q 340 644 346 728 q 328 476 333 561 q 319 313 322 392 q 286 314 303 313 q 257 321 269 315 q 245 501 251 418 q 233 660 239 585 q 219 805 226 735 q 201 946 211 875 q 235 954 215 949 q 274 966 254 960 q 313 978 294 972 q 342 992 331 985 m 293 142 q 349 117 329 142 q 369 69 369 93 q 344 8 369 28 q 288 -11 319 -11 q 229 10 250 -11 q 208 63 208 31 q 232 118 208 94 q 293 142 256 142 z "},"?":{"ha":746,"x_min":167,"x_max":604,"o":"m 381 992 q 470 980 429 992 q 541 946 511 968 q 588 890 571 924 q 604 814 604 857 q 573 696 604 746 q 503 599 542 646 q 434 499 465 551 q 403 374 403 446 q 407 328 403 357 q 418 279 411 299 q 394 270 406 272 q 368 268 382 268 q 324 331 344 283 q 304 438 304 378 q 317 519 304 483 q 350 583 331 554 q 392 638 369 613 q 435 688 415 663 q 467 740 454 713 q 481 801 481 767 q 447 898 481 861 q 368 935 413 935 q 286 893 315 935 q 246 756 257 851 q 203 759 226 756 q 167 769 181 763 q 169 815 168 794 q 171 853 171 835 q 170 891 171 872 q 167 932 169 910 q 251 973 201 954 q 381 992 301 992 m 383 147 q 442 122 421 147 q 464 71 464 97 q 438 7 464 26 q 378 -12 411 -12 q 316 9 338 -12 q 294 64 294 31 q 319 123 294 99 q 383 147 343 147 z "},"¡":{"ha":571,"x_min":172,"x_max":342,"o":"m 201 -336 q 176 -293 172 -326 q 190 -153 183 -229 q 203 5 197 -76 q 215 169 210 86 q 224 329 221 251 q 257 328 240 329 q 286 322 274 328 q 298 144 292 226 q 310 -11 304 63 q 324 -153 317 -85 q 342 -290 332 -221 q 308 -299 328 -293 q 269 -310 289 -304 q 231 -324 249 -317 q 201 -336 213 -331 m 250 496 q 194 520 214 496 q 174 568 174 544 q 199 629 174 610 q 256 649 224 649 q 314 628 293 649 q 335 575 335 607 q 311 519 335 543 q 250 496 288 496 z "},"¿":{"ha":746,"x_min":125,"x_max":563,"o":"m 349 -336 q 188 -292 250 -336 q 125 -161 125 -247 q 156 -46 125 -94 q 226 49 188 3 q 295 147 264 96 q 326 269 326 199 q 322 315 326 286 q 311 363 318 343 q 335 372 324 369 q 361 374 347 374 q 405 312 385 358 q 425 207 425 265 q 397 94 425 139 q 337 12 369 49 q 276 -62 304 -25 q 249 -149 249 -99 q 258 -202 249 -178 q 283 -244 267 -226 q 319 -271 299 -261 q 361 -281 339 -281 q 443 -240 414 -281 q 483 -104 472 -199 q 526 -108 503 -104 q 563 -118 549 -111 q 558 -200 558 -167 q 563 -278 557 -233 q 478 -317 528 -299 q 349 -336 428 -336 m 349 489 q 290 514 311 489 q 268 564 268 539 q 294 628 268 608 q 354 649 321 649 q 416 627 394 649 q 438 572 438 606 q 413 513 438 538 q 349 489 389 489 z "},"'":{"ha":275,"x_min":83,"x_max":192,"o":"m 163 992 q 192 958 189 988 l 192 946 q 178 819 183 885 q 167 663 174 754 q 135 666 151 663 q 111 676 118 669 q 101 822 108 750 q 83 963 94 893 q 125 974 103 965 q 163 992 147 982 z "},"\"":{"ha":476,"x_min":83,"x_max":393,"o":"m 161 992 q 189 946 193 985 q 188 937 188 942 q 186 926 188 932 q 175 808 179 871 q 164 665 171 744 q 133 668 150 665 q 110 678 117 671 q 101 822 107 750 q 83 963 94 894 q 125 973 103 965 q 161 992 147 981 m 365 992 q 393 954 393 985 l 393 946 q 381 819 386 886 q 368 664 375 753 q 335 667 353 664 q 311 676 318 669 q 303 822 308 749 q 286 963 297 894 q 328 974 306 965 q 365 992 350 982 z "},"°":{"ha":533,"x_min":83,"x_max":450,"o":"m 264 972 q 402 924 354 972 q 450 804 450 876 q 437 736 450 768 q 399 681 424 704 q 340 644 375 657 q 264 631 306 631 q 131 679 178 631 q 83 803 83 728 q 97 869 83 839 q 134 923 110 900 q 191 959 158 946 q 264 972 224 972 m 256 919 q 202 892 224 919 q 181 829 181 865 q 212 725 181 764 q 283 686 243 686 q 333 711 313 686 q 353 789 353 736 q 326 885 353 850 q 256 919 300 919 z "},"*":{"ha":615,"x_min":83,"x_max":533,"o":"m 394 922 q 358 833 376 882 q 324 735 340 783 q 419 753 374 743 q 518 779 465 764 q 530 735 526 761 q 529 686 533 708 q 432 691 485 689 q 328 694 379 693 q 376 609 351 649 q 429 524 400 569 q 392 499 413 508 q 344 486 372 489 q 320 578 335 528 q 290 676 306 628 q 224 606 254 640 q 161 529 194 571 q 124 558 143 539 q 99 599 106 576 q 178 650 135 621 q 264 710 222 679 q 176 749 219 732 q 83 786 133 767 q 99 829 88 806 q 129 867 110 853 q 203 807 161 839 q 285 744 244 775 q 295 840 292 794 q 301 940 299 886 q 348 939 321 943 q 394 922 375 935 z "},".":{"ha":328,"x_min":83,"x_max":244,"o":"m 168 142 q 224 117 204 142 q 244 69 244 93 q 219 8 244 28 q 163 -11 194 -11 q 104 10 125 -11 q 83 63 83 31 q 107 118 83 94 q 168 142 131 142 z "},",":{"ha":360,"x_min":83,"x_max":276,"o":"m 229 135 q 276 35 276 117 q 265 -47 276 -7 q 232 -124 253 -86 q 184 -194 211 -161 q 128 -257 157 -228 q 83 -236 100 -257 q 149 -142 126 -187 q 172 -60 172 -96 q 107 10 172 1 q 109 49 107 24 q 118 93 111 75 q 178 110 150 100 q 229 135 206 119 z "},"ʼ":{"ha":360,"x_min":83,"x_max":276,"o":"m 229 999 q 276 899 276 981 q 265 817 276 857 q 232 740 253 778 q 184 669 211 703 q 128 607 157 636 q 83 628 100 607 q 149 722 126 676 q 172 804 172 768 q 107 874 172 865 q 109 913 107 888 q 118 957 111 939 q 178 974 150 964 q 229 999 206 983 z "},"…":{"ha":1194,"x_min":83,"x_max":1111,"o":"m 168 142 q 224 117 204 142 q 244 69 244 93 q 219 8 244 28 q 163 -11 194 -11 q 104 10 125 -11 q 83 63 83 31 q 107 118 83 94 q 168 142 131 142 m 613 142 q 669 117 649 142 q 689 69 689 93 q 664 8 689 28 q 607 -11 639 -11 q 549 10 569 -11 q 528 63 528 31 q 551 118 528 94 q 613 142 575 142 m 1035 142 q 1091 117 1071 142 q 1111 69 1111 93 q 1086 8 1111 28 q 1029 -11 1061 -11 q 971 10 992 -11 q 950 63 950 31 q 974 118 950 94 q 1035 142 997 142 z "},":":{"ha":333,"x_min":83,"x_max":250,"o":"m 174 188 q 230 163 210 188 q 250 115 250 139 q 225 54 250 74 q 168 35 200 35 q 110 56 131 35 q 89 108 89 76 q 113 164 89 140 q 174 188 136 188 m 168 601 q 224 577 204 601 q 244 529 244 553 q 219 468 244 488 q 163 449 194 449 q 104 469 125 449 q 83 522 83 490 q 107 578 83 554 q 168 601 131 601 z "},";":{"ha":360,"x_min":83,"x_max":276,"o":"m 199 585 q 255 560 235 585 q 275 513 275 536 q 250 451 275 471 q 193 432 225 432 q 135 453 156 432 q 114 506 114 474 q 138 561 114 538 q 199 585 161 585 m 229 135 q 276 35 276 117 q 265 -47 276 -7 q 232 -124 253 -86 q 184 -194 211 -161 q 128 -257 157 -228 q 83 -236 100 -257 q 149 -142 126 -187 q 172 -60 172 -96 q 107 10 172 1 q 109 49 107 24 q 118 93 111 75 q 178 110 150 100 q 229 135 206 119 z "},"‚":{"ha":336,"x_min":56,"x_max":225,"o":"m 178 136 q 225 36 225 118 q 199 -96 225 -40 q 122 -211 172 -153 q 91 -206 107 -211 q 67 -193 75 -201 q 95 -151 85 -168 q 111 -119 106 -133 q 119 -90 117 -104 q 121 -58 121 -75 q 56 11 121 3 q 58 51 56 25 q 67 94 60 76 q 126 111 99 101 q 178 136 154 121 z "},"„":{"ha":538,"x_min":56,"x_max":426,"o":"m 379 138 q 413 99 400 124 q 426 32 426 74 q 399 -92 426 -29 q 325 -207 371 -154 q 297 -204 314 -208 q 271 -193 281 -200 q 309 -124 293 -162 q 325 -57 325 -85 q 313 -10 325 -29 q 264 11 300 8 q 265 56 263 31 q 275 97 268 82 q 379 138 333 107 m 174 133 q 208 94 196 119 q 221 28 221 69 q 193 -92 221 -33 q 121 -204 165 -151 q 92 -201 108 -205 q 67 -190 76 -197 q 104 -122 88 -160 q 121 -57 121 -85 q 107 -10 121 -29 q 57 11 93 8 q 58 54 56 31 q 68 93 61 78 q 125 108 97 99 q 174 133 153 118 z "},"‘":{"ha":336,"x_min":83,"x_max":253,"o":"m 131 649 q 83 749 83 667 q 110 881 83 825 q 186 996 136 938 q 217 991 201 996 q 242 978 233 986 q 213 935 224 953 q 197 903 203 918 q 190 874 192 889 q 188 843 188 860 q 253 774 188 782 q 251 734 253 760 q 242 690 249 708 q 182 674 210 683 q 131 649 154 664 z "},"“":{"ha":538,"x_min":83,"x_max":454,"o":"m 131 649 q 97 688 110 663 q 83 754 83 713 q 111 878 83 815 q 185 993 139 940 q 213 990 196 994 q 239 979 229 986 q 201 910 217 949 q 185 843 185 871 q 197 797 185 815 q 246 775 210 778 q 244 730 247 756 q 235 689 242 704 q 131 649 176 679 m 336 653 q 301 692 314 667 q 289 758 289 717 q 317 878 289 819 q 389 990 344 938 q 417 988 401 992 q 443 976 433 983 q 406 908 422 946 q 389 843 389 871 q 403 797 389 815 q 453 775 417 778 q 451 732 454 756 q 442 693 449 708 q 385 678 413 688 q 336 653 357 668 z "},"’":{"ha":336,"x_min":56,"x_max":225,"o":"m 178 993 q 225 893 225 975 q 199 760 225 817 q 122 646 172 704 q 91 651 107 646 q 67 664 75 656 q 95 706 85 689 q 111 738 106 724 q 119 767 117 753 q 121 799 121 782 q 56 868 121 860 q 58 908 56 882 q 67 951 60 933 q 126 968 99 958 q 178 993 154 978 z "},"”":{"ha":538,"x_min":56,"x_max":426,"o":"m 379 996 q 413 957 400 982 q 426 890 426 932 q 399 767 426 829 q 325 651 371 704 q 297 654 314 650 q 271 665 281 658 q 309 735 293 696 q 325 801 325 774 q 313 848 325 829 q 264 869 300 867 q 265 915 263 889 q 275 956 268 940 q 379 996 333 965 m 174 992 q 208 953 196 978 q 221 886 221 928 q 193 766 221 825 q 121 654 165 707 q 92 657 108 653 q 67 668 76 661 q 104 736 88 699 q 121 801 121 774 q 107 848 121 829 q 57 869 93 867 q 58 913 56 889 q 68 951 61 936 q 125 967 97 957 q 174 992 153 976 z "},"‹":{"ha":417,"x_min":75,"x_max":336,"o":"m 289 581 q 336 560 318 578 q 301 517 321 543 q 261 465 281 492 q 226 413 242 438 q 201 371 210 388 q 229 322 214 349 q 262 267 244 294 q 297 212 279 239 q 331 163 315 185 q 324 135 331 147 q 308 115 317 122 q 186 235 246 178 q 75 333 126 293 q 83 381 75 356 q 192 479 140 428 q 289 581 243 531 z "},"›":{"ha":419,"x_min":72,"x_max":340,"o":"m 124 121 q 92 161 101 135 q 158 251 126 206 q 222 346 190 296 l 190 393 q 152 450 172 421 q 111 508 132 479 q 72 561 90 536 q 124 581 96 581 q 225 487 174 532 q 332 396 276 442 q 339 374 338 385 q 340 351 340 364 q 230 237 283 294 q 124 121 176 179 z "},"«":{"ha":700,"x_min":75,"x_max":550,"o":"m 290 579 q 339 557 321 575 q 301 509 321 535 q 261 458 281 483 q 224 408 242 432 q 194 367 207 385 q 259 261 225 313 q 329 163 293 210 q 301 115 325 131 q 185 230 239 178 q 75 333 131 282 q 83 381 75 356 q 191 479 142 432 q 290 579 240 526 m 503 574 q 550 553 532 571 q 431 371 483 458 q 487 264 457 318 q 544 161 517 210 q 513 122 536 133 q 461 183 485 156 q 415 235 438 210 q 371 283 393 260 q 324 333 349 307 q 326 360 324 349 q 332 379 329 372 q 421 478 381 432 q 503 574 461 524 z "},"»":{"ha":722,"x_min":104,"x_max":590,"o":"m 374 121 q 342 161 351 135 q 408 251 376 206 q 472 346 440 296 l 440 393 q 402 450 422 421 q 361 508 382 479 q 322 561 340 536 q 374 581 346 581 q 475 487 424 532 q 582 396 526 442 q 589 374 588 385 q 590 351 590 364 q 480 237 533 294 q 374 121 426 179 m 158 126 q 137 144 146 133 q 121 165 128 154 q 175 253 149 208 q 229 346 201 297 q 203 393 218 367 q 171 447 188 419 q 137 503 154 475 q 104 556 119 532 q 158 575 126 575 q 243 483 200 528 q 333 394 286 439 q 340 351 340 376 q 248 240 293 296 q 158 126 203 185 z "},"(":{"ha":404,"x_min":49,"x_max":356,"o":"m 299 1029 q 326 1027 317 1032 q 347 1013 336 1022 q 264 863 299 939 q 208 705 229 788 q 176 531 186 622 q 167 333 167 439 q 178 131 167 225 q 212 -48 189 38 q 270 -212 235 -133 q 356 -369 306 -292 q 332 -378 346 -376 q 306 -376 318 -379 q 116 -42 183 -214 q 49 333 49 131 q 63 508 49 424 q 107 676 76 592 q 185 847 138 760 q 299 1029 232 933 z "},")":{"ha":404,"x_min":49,"x_max":356,"o":"m 106 1029 q 219 847 172 933 q 297 676 267 760 q 342 508 328 592 q 356 333 356 424 q 288 -42 356 131 q 99 -376 221 -214 q 73 -378 88 -379 q 49 -369 58 -376 q 134 -212 99 -292 q 192 -48 169 -133 q 226 131 215 38 q 238 333 238 225 q 228 531 238 439 q 197 705 218 622 q 140 863 175 788 q 57 1013 106 939 q 78 1026 67 1021 q 106 1029 89 1031 z "},"[":{"ha":431,"x_min":97,"x_max":378,"o":"m 97 1031 q 167 1028 133 1028 l 293 1028 q 363 1031 322 1028 q 375 1008 372 1022 q 378 978 378 993 q 287 967 322 974 q 231 948 251 961 q 202 911 210 935 q 194 847 194 888 l 194 -218 q 205 -270 194 -251 q 236 -299 215 -289 q 289 -313 257 -310 q 363 -318 321 -317 q 375 -342 372 -329 q 378 -374 378 -354 q 310 -371 349 -371 l 171 -371 q 97 -374 133 -371 l 97 1031 z "},"]":{"ha":429,"x_min":61,"x_max":342,"o":"m 342 -374 q 267 -371 306 -371 l 128 -371 q 61 -374 90 -371 q 64 -342 61 -354 q 76 -318 67 -329 q 150 -313 118 -317 q 203 -299 182 -310 q 234 -270 224 -289 q 244 -218 244 -251 l 244 847 q 237 911 244 888 q 208 948 229 935 q 152 967 188 961 q 61 978 117 974 q 64 1008 61 993 q 76 1031 67 1022 q 144 1028 117 1028 l 271 1028 q 342 1031 306 1028 l 342 -374 z "},"{":{"ha":489,"x_min":49,"x_max":406,"o":"m 385 1029 q 397 992 397 1010 q 302 923 326 968 q 278 821 278 878 q 283 756 278 789 q 293 688 288 722 l 304 619 q 310 554 310 586 q 303 485 310 518 q 276 425 296 453 q 222 376 257 397 q 133 342 188 354 q 222 306 188 328 q 276 254 256 283 q 303 191 296 225 q 311 119 311 157 q 297 -20 311 51 q 283 -157 283 -92 q 289 -215 283 -187 q 308 -265 294 -242 q 346 -307 322 -289 q 406 -336 369 -325 q 405 -359 406 -350 q 397 -376 404 -368 q 283 -323 326 -354 q 214 -254 239 -292 q 181 -174 189 -217 q 172 -87 172 -132 q 178 17 172 -35 q 185 117 185 68 q 179 181 185 150 q 159 237 174 211 q 117 283 144 263 q 49 317 90 303 q 49 339 49 329 q 56 361 50 349 q 122 394 96 375 q 162 437 147 413 q 182 489 176 461 q 188 547 188 517 q 179 653 188 597 q 171 763 171 708 q 179 841 171 803 q 211 914 188 879 q 276 978 235 949 q 385 1029 318 1007 z "},"}":{"ha":460,"x_min":46,"x_max":403,"o":"m 67 1029 q 175 978 133 1007 q 240 914 217 949 q 272 841 264 879 q 281 763 281 803 q 272 653 281 708 q 264 547 264 597 q 269 489 264 517 q 290 437 275 461 q 330 394 304 413 q 396 361 356 375 q 402 339 401 349 q 403 317 403 329 q 334 283 361 303 q 292 237 307 263 q 272 181 278 211 q 267 117 267 150 q 273 17 267 68 q 279 -87 279 -35 q 271 -174 279 -132 q 238 -254 263 -217 q 169 -323 213 -292 q 54 -376 125 -354 q 47 -359 47 -368 q 46 -336 46 -350 q 143 -266 118 -314 q 168 -157 168 -218 q 154 -20 168 -92 q 140 119 140 51 q 148 191 140 157 q 176 254 156 225 q 230 306 196 283 q 318 342 264 328 q 229 376 264 354 q 175 425 194 397 q 149 485 156 453 q 142 554 142 518 q 147 619 142 586 l 158 688 q 169 756 164 722 q 174 821 174 789 q 149 923 174 878 q 54 992 125 968 q 67 1029 54 1010 z "},"|":{"ha":243,"x_min":86,"x_max":156,"o":"m 86 989 q 124 986 107 989 q 156 974 140 983 l 156 842 q 155 684 156 768 q 154 508 154 600 l 154 140 q 155 -37 154 49 q 156 -197 156 -122 l 156 -335 q 118 -331 140 -335 q 86 -319 96 -326 l 86 989 z "},"¦":{"ha":251,"x_min":86,"x_max":156,"o":"m 86 989 q 124 986 107 989 q 156 974 140 983 q 154 863 156 929 q 153 725 153 796 q 153 656 153 694 q 154 581 154 618 q 155 510 154 543 q 156 457 156 476 q 118 461 140 457 q 86 472 96 465 l 86 989 m 86 240 q 124 238 107 240 q 156 225 140 235 q 155 169 156 203 q 154 99 154 136 q 153 23 154 61 q 153 -46 153 -15 q 153 -108 153 -72 q 154 -184 154 -144 q 155 -262 154 -224 q 156 -335 156 -301 q 118 -331 140 -335 q 86 -319 96 -326 l 86 240 z "},"/":{"ha":507,"x_min":46,"x_max":464,"o":"m 106 -12 q 69 4 86 -6 q 46 24 53 14 l 404 990 q 437 976 419 986 q 464 954 454 965 l 106 -12 z "},"":{"ha":504,"x_min":65,"x_max":449,"o":"m 126 -47 q 90 -30 108 -42 q 65 -7 72 -18 l 388 706 q 426 688 411 699 q 449 667 440 678 l 126 -47 z "},"\\":{"ha":506,"x_min":35,"x_max":474,"o":"m 35 985 q 51 989 42 988 q 71 990 60 990 q 108 985 97 990 l 474 0 q 437 -6 463 -4 q 401 -4 411 -7 l 35 985 z "},"⁄":{"ha":858,"x_min":46,"x_max":813,"o":"m 101 -11 q 67 6 82 -4 q 46 25 53 15 l 757 992 q 788 977 772 988 q 813 956 803 967 l 101 -11 z "},"_":{"ha":786,"x_min":83,"x_max":703,"o":"m 703 -128 q 699 -165 703 -143 q 688 -197 694 -186 q 595 -197 635 -197 q 519 -196 556 -196 l 308 -196 q 242 -197 276 -196 q 169 -198 208 -197 q 83 -199 131 -199 q 99 -128 83 -153 l 703 -128 z "},"-":{"ha":582,"x_min":83,"x_max":499,"o":"m 499 415 q 494 369 499 393 q 481 325 490 344 q 390 324 443 325 q 281 323 336 324 q 173 322 225 322 q 83 319 121 321 q 90 370 83 343 q 106 415 96 397 l 499 415 z "},"–":{"ha":786,"x_min":83,"x_max":703,"o":"m 703 404 q 700 365 703 383 q 688 331 697 346 l 549 331 q 417 330 485 331 q 269 328 349 329 q 83 326 189 328 q 88 368 83 346 q 99 404 92 390 l 703 404 z "},"—":{"ha":1422,"x_min":83,"x_max":1339,"o":"m 1339 403 q 1336 364 1339 382 q 1324 331 1333 346 q 604 330 910 331 q 83 326 299 329 q 85 346 83 335 q 88 368 86 357 q 93 389 90 379 q 99 403 96 399 l 1339 403 z "},"¶":{"ha":750,"x_min":50,"x_max":724,"o":"m 385 440 q 353 439 371 439 q 226 451 282 439 q 131 492 171 464 q 71 568 92 521 q 50 685 50 615 q 69 786 50 739 q 131 868 89 833 q 240 922 174 903 q 399 942 306 942 q 512 940 464 942 q 610 939 560 939 l 664 939 q 724 942 694 939 q 722 913 724 926 q 715 883 721 899 q 666 875 685 882 q 638 853 647 868 q 625 817 628 839 q 622 764 622 794 l 622 -346 q 553 -332 586 -346 l 553 883 q 493 889 519 888 l 468 889 l 468 -346 q 432 -344 449 -346 q 399 -333 415 -342 l 399 442 q 385 440 392 440 m 306 881 q 231 848 260 871 q 189 786 201 825 q 176 689 176 747 q 192 601 176 638 q 235 540 208 564 q 298 504 263 515 q 372 493 333 493 l 399 493 l 399 890 q 306 881 344 889 z "},"§":{"ha":733,"x_min":85,"x_max":647,"o":"m 532 32 q 567 -37 557 -1 q 578 -117 578 -74 q 565 -201 578 -161 q 526 -271 553 -240 q 456 -319 499 -301 q 354 -336 414 -336 q 279 -330 311 -336 q 224 -313 247 -324 q 182 -290 200 -303 q 150 -265 164 -278 q 153 -170 153 -217 q 149 -78 153 -124 q 183 -72 164 -74 q 219 -69 203 -69 q 238 -173 225 -133 q 270 -235 251 -212 q 313 -265 289 -257 q 363 -272 336 -272 q 451 -242 419 -272 q 483 -160 483 -212 q 477 -108 483 -131 q 452 -65 471 -86 q 397 -20 433 -43 q 301 33 361 3 q 199 96 240 64 q 133 163 158 128 q 96 240 107 199 q 85 335 85 282 q 97 414 85 376 q 131 483 108 451 q 185 538 153 515 q 242 568 210 556 q 236 572 239 571 q 176 638 197 604 q 147 708 154 672 q 140 779 140 743 q 156 859 140 821 q 199 926 171 897 q 267 974 228 956 q 357 992 307 992 q 470 974 426 992 q 542 933 514 956 q 539 854 539 897 q 543 771 539 811 q 509 763 525 765 q 472 760 493 760 q 452 844 464 811 q 426 895 440 876 q 393 921 411 914 q 354 928 375 928 q 304 918 326 928 q 266 892 282 908 q 242 854 250 875 q 233 813 233 833 q 238 767 233 788 q 260 726 243 746 q 308 685 276 706 q 393 640 340 664 q 512 578 464 608 q 590 515 560 549 q 634 439 621 481 q 647 342 647 397 q 633 256 647 297 q 592 181 619 215 q 526 122 565 147 q 467 94 499 106 q 532 32 507 64 m 357 158 l 386 143 q 456 160 426 149 q 513 197 492 175 q 544 244 535 218 q 553 297 553 271 q 545 351 553 325 q 515 402 538 376 q 449 455 492 428 q 339 513 407 482 q 314 524 325 518 q 214 474 249 511 q 176 369 176 432 q 184 314 176 340 q 212 262 192 288 q 267 210 232 236 q 357 158 301 185 z "},"†":{"ha":651,"x_min":58,"x_max":601,"o":"m 392 879 q 376 636 383 758 l 601 636 q 588 581 600 613 q 561 532 575 549 q 508 540 533 536 q 455 547 482 543 q 396 553 428 550 q 374 554 385 553 q 350 -346 351 110 q 319 -342 335 -346 q 290 -329 303 -337 q 288 272 293 -29 q 279 556 285 414 q 250 554 264 556 q 183 549 215 551 q 122 542 151 546 q 58 533 92 538 q 66 590 58 565 q 85 636 74 614 l 275 636 q 263 879 269 757 q 318 902 297 889 q 365 935 339 915 q 389 913 385 925 q 392 879 393 901 z "},"‡":{"ha":661,"x_min":57,"x_max":601,"o":"m 382 0 q 385 -24 383 -12 q 391 -102 388 -67 q 398 -168 394 -137 q 406 -231 401 -199 q 356 -253 378 -240 q 313 -286 335 -267 q 288 -265 293 -276 q 286 -231 283 -253 q 299 -103 293 -172 q 304 0 301 -58 l 57 0 q 71 56 58 24 q 97 104 83 88 q 151 97 125 100 q 203 90 176 93 q 261 83 231 86 q 308 79 283 81 q 303 222 311 160 q 272 315 296 288 q 299 413 294 346 q 299 557 304 476 q 250 554 272 556 q 183 549 215 551 q 122 542 151 546 q 58 533 92 538 q 66 590 58 565 q 85 636 74 614 l 293 636 q 285 750 289 701 q 272 879 279 822 q 326 903 304 890 q 375 935 349 915 q 399 913 394 925 q 401 879 404 901 q 395 820 399 850 q 388 753 392 790 q 381 671 385 717 q 378 636 379 654 l 601 636 q 588 581 600 613 q 561 532 575 549 q 508 540 533 536 q 455 547 482 543 q 396 553 428 550 q 374 554 386 553 q 379 413 371 474 q 411 315 388 346 q 379 224 388 288 q 376 79 372 161 q 408 82 393 81 q 475 88 443 85 q 537 94 507 90 q 600 103 567 99 q 592 47 600 71 q 574 0 585 22 l 382 0 z "},"•":{"ha":469,"x_min":83,"x_max":386,"o":"m 238 560 q 301 548 274 560 q 348 517 329 536 q 376 472 367 497 q 386 418 386 446 q 347 310 386 353 q 238 268 308 268 q 169 281 197 268 q 121 315 140 293 q 92 363 101 336 q 83 419 83 390 q 126 520 83 481 q 238 560 168 560 z "},"·":{"ha":325,"x_min":83,"x_max":242,"o":"m 158 458 q 217 438 192 458 q 242 385 242 417 q 224 332 242 358 q 164 306 207 306 q 103 326 124 306 q 83 378 83 346 q 106 437 83 415 q 158 458 128 458 z "},"¹":{"ha":425,"x_min":74,"x_max":351,"o":"m 269 638 q 287 573 269 593 q 346 553 304 553 q 351 496 351 526 q 283 499 319 499 q 214 500 246 500 q 144 499 182 500 q 74 496 107 499 q 75 525 74 511 q 79 553 76 539 q 138 573 121 553 q 156 638 156 593 l 156 850 q 138 913 156 892 q 79 933 121 933 q 74 992 74 957 q 103 990 85 990 q 141 988 121 989 q 181 988 161 988 l 214 988 q 282 988 240 988 q 351 992 324 989 q 346 933 351 957 q 287 913 304 933 q 269 850 269 892 l 269 638 z "},"²":{"ha":514,"x_min":56,"x_max":451,"o":"m 263 996 q 314 990 288 996 q 362 968 340 983 q 397 928 383 953 q 411 869 411 904 q 390 779 411 815 q 324 703 368 743 q 267 652 299 679 q 201 594 236 625 l 313 594 q 366 611 346 594 q 389 672 386 628 q 417 671 404 672 q 440 667 429 669 q 442 597 440 631 q 451 525 444 563 q 435 506 446 514 q 407 497 425 497 q 327 499 375 497 q 229 500 279 500 q 135 499 178 500 q 68 497 92 497 q 58 520 61 508 q 56 543 56 532 q 140 622 100 586 q 206 679 181 657 q 276 761 254 724 q 299 850 299 799 q 278 913 299 889 q 228 936 257 936 q 178 906 193 936 q 154 799 164 875 q 119 800 139 799 q 86 807 100 801 q 89 879 89 840 q 85 950 89 918 q 167 985 128 975 q 263 996 206 996 z "},"³":{"ha":513,"x_min":49,"x_max":450,"o":"m 356 993 q 414 994 394 993 q 423 972 421 982 q 425 946 425 961 q 347 856 390 908 q 260 744 304 803 q 330 737 296 747 q 391 703 364 726 q 434 644 418 679 q 450 563 450 608 q 432 476 450 517 q 381 406 414 436 q 299 358 347 376 q 190 340 250 340 q 94 358 128 340 q 49 385 60 375 q 63 407 56 399 q 81 422 69 415 q 116 405 90 414 q 182 396 142 396 q 233 406 207 396 q 282 435 260 415 q 318 483 304 454 q 332 549 332 511 q 301 638 332 601 q 208 675 271 675 q 191 674 197 675 q 178 671 185 674 q 163 685 169 678 q 154 707 157 693 q 249 826 213 781 q 314 910 286 872 l 228 910 q 190 906 204 910 q 165 894 175 903 q 145 868 154 885 q 126 826 136 851 q 99 829 114 826 q 75 839 85 832 q 83 921 81 882 q 85 994 85 960 q 150 993 108 993 l 356 993 z "},"+":{"ha":803,"x_min":64,"x_max":738,"o":"m 364 193 q 365 289 365 242 l 365 331 l 333 331 q 242 330 289 331 q 150 328 196 329 q 64 328 104 328 q 67 366 64 343 q 78 399 71 389 l 365 399 l 365 515 q 365 592 365 551 q 364 688 364 633 q 396 699 379 697 q 433 701 413 701 l 433 399 l 738 399 q 735 361 738 378 q 724 329 733 344 q 629 330 669 329 q 554 331 589 331 l 433 331 l 433 22 q 401 12 424 15 q 363 8 378 8 q 363 97 363 50 q 364 193 364 144 z "},"−":{"ha":746,"x_min":36,"x_max":710,"o":"m 710 399 q 708 361 710 378 q 696 329 706 344 q 599 330 638 329 q 529 331 561 331 l 388 331 q 213 330 296 331 q 36 328 131 329 q 40 366 36 343 q 50 399 43 389 l 710 399 z "},"×":{"ha":860,"x_min":56,"x_max":801,"o":"m 161 -12 q 118 -7 139 -12 q 85 14 97 -1 l 374 321 q 56 619 217 468 q 86 644 68 635 q 128 653 104 653 l 424 374 l 703 669 q 740 656 725 664 q 768 632 754 647 q 635 494 713 575 q 475 325 558 414 l 801 21 q 725 -12 776 -12 q 426 272 576 131 q 308 147 367 210 q 161 -12 226 60 z "},"÷":{"ha":731,"x_min":28,"x_max":701,"o":"m 701 399 q 699 361 701 378 q 688 329 697 344 q 591 330 629 329 q 521 331 553 331 l 379 331 q 205 330 288 331 q 28 328 122 329 q 31 366 28 343 q 42 399 35 389 l 701 399 m 367 647 q 417 631 396 647 q 438 588 438 615 q 423 533 438 556 q 371 511 408 511 q 313 532 331 511 q 294 588 294 553 q 316 633 294 618 q 367 647 338 647 m 374 85 q 322 104 342 85 q 301 151 301 124 q 317 199 301 179 q 371 219 333 219 q 426 201 410 219 q 443 151 443 183 q 422 103 443 121 q 374 85 401 85 z "},"=":{"ha":750,"x_min":61,"x_max":689,"o":"m 688 272 q 685 236 688 251 q 672 206 682 221 q 597 206 631 206 q 532 207 564 207 l 300 207 q 225 206 263 207 q 148 205 188 206 q 61 204 108 204 q 65 241 61 219 q 76 272 69 263 l 688 272 m 689 501 q 686 465 689 481 q 674 435 683 450 q 599 435 632 435 q 535 436 567 436 l 303 436 q 228 435 265 436 q 151 434 190 435 q 65 433 113 433 q 69 470 65 449 q 81 501 74 492 l 689 501 z "},"±":{"ha":750,"x_min":50,"x_max":696,"o":"m 415 503 l 651 503 q 649 467 651 482 q 638 436 647 451 q 575 437 601 436 q 522 438 549 438 q 464 436 496 438 l 415 436 l 415 240 q 383 230 406 233 q 346 226 361 226 q 347 299 346 268 q 348 358 347 331 q 349 410 349 385 l 349 436 l 275 436 q 117 435 210 436 q 120 472 117 450 q 131 503 124 493 l 349 503 l 349 565 q 348 628 349 593 q 347 711 347 663 q 378 723 363 721 q 415 725 394 725 l 415 503 m 696 181 q 694 144 696 160 q 682 114 692 129 q 588 115 624 114 q 522 115 551 115 l 300 115 q 220 115 260 115 q 139 113 181 114 q 50 113 97 113 q 53 149 50 128 q 64 181 57 171 l 696 181 z "},"<":{"ha":692,"x_min":65,"x_max":625,"o":"m 603 26 q 603 -16 607 7 q 589 -51 600 -39 q 456 49 518 3 q 332 138 393 94 q 207 227 271 182 q 68 322 143 272 q 67 360 65 340 q 81 399 68 381 l 560 783 q 597 769 582 778 q 625 746 611 761 l 136 358 l 603 26 z "},">":{"ha":683,"x_min":63,"x_max":622,"o":"m 551 358 l 63 746 q 91 769 76 761 q 128 783 106 778 l 607 399 q 621 360 619 381 q 619 322 622 340 q 481 227 544 272 q 356 138 417 182 q 232 49 294 94 q 99 -51 169 3 q 84 -16 88 -39 q 85 26 81 7 l 551 358 z "},"µ":{"ha":782,"x_min":49,"x_max":761,"o":"m 586 -12 q 563 6 574 -8 q 551 56 551 19 q 554 111 551 83 l 554 124 q 513 65 540 93 q 344 -6 442 -6 q 257 7 296 -6 l 235 15 l 235 -56 q 240 -159 235 -118 q 254 -232 244 -200 q 225 -256 238 -244 q 202 -278 213 -267 q 181 -304 192 -290 q 156 -336 169 -318 q 138 -323 144 -332 q 128 -306 131 -314 q 135 -235 131 -275 q 140 -118 140 -196 l 140 451 q 138 494 140 476 q 126 524 136 513 q 99 542 117 536 q 49 550 81 549 q 50 577 49 565 q 58 601 51 589 q 103 608 79 603 q 151 619 128 613 q 197 633 175 625 q 235 649 218 640 q 256 631 247 644 q 265 588 265 618 l 265 272 q 293 123 265 167 q 390 79 321 79 q 446 93 418 79 q 495 136 474 107 q 530 210 517 165 q 543 317 543 256 l 543 458 q 540 501 543 483 q 525 531 536 519 q 494 549 514 543 q 439 557 474 556 q 440 584 439 572 q 449 608 442 596 q 554 622 503 611 q 638 649 606 633 q 659 631 650 644 q 668 588 668 618 l 668 185 q 671 146 668 163 q 683 116 674 128 q 711 98 693 104 q 761 90 729 92 q 760 60 761 75 q 753 31 758 46 q 714 27 738 31 q 666 18 690 24 q 620 4 642 13 q 586 -12 599 -4 z "},"#":{"ha":838,"x_min":75,"x_max":814,"o":"m 657 615 l 604 365 l 756 365 q 753 331 756 344 q 739 297 750 317 l 590 297 l 525 -11 q 487 1 499 -7 q 464 19 475 8 l 522 297 q 389 296 447 297 l 300 296 l 236 -11 q 176 25 193 -6 l 233 296 q 136 294 174 296 l 75 294 q 92 365 75 329 l 249 365 l 301 614 l 261 614 q 149 613 203 614 q 152 647 149 628 q 165 683 156 665 l 315 683 l 382 992 q 416 983 401 989 q 442 961 431 976 l 382 683 l 606 683 l 671 992 q 731 964 713 983 l 671 683 l 814 683 q 811 648 814 663 q 797 615 808 633 l 657 615 m 368 615 l 315 365 l 538 365 l 590 615 l 368 615 z "},"~":{"ha":813,"x_min":58,"x_max":754,"o":"m 88 296 q 58 332 63 307 q 167 437 115 408 q 267 465 218 465 q 343 453 306 465 q 417 426 381 440 q 492 399 454 411 q 567 386 529 386 q 637 400 601 386 q 710 449 672 414 q 734 444 725 447 q 754 431 743 440 q 646 328 696 356 q 551 300 596 300 q 478 313 514 300 q 408 343 443 326 q 336 373 372 360 q 261 386 300 386 q 178 367 221 386 q 88 296 136 347 z "},"^":{"ha":772,"x_min":60,"x_max":706,"o":"m 385 894 q 232 709 307 803 q 97 532 157 615 q 74 560 82 546 q 60 597 65 575 l 346 951 q 383 964 361 961 q 422 964 404 967 q 486 869 450 921 q 560 763 522 817 q 635 656 597 708 q 706 561 674 604 q 670 547 693 550 q 628 547 647 543 l 385 894 z "},"¤":{"ha":750,"x_min":93,"x_max":658,"o":"m 375 104 q 271 125 318 104 q 225 150 247 136 l 157 81 q 125 87 136 82 q 101 106 114 92 l 182 190 q 139 261 156 222 q 121 357 121 307 q 142 456 121 411 q 168 501 153 481 l 93 578 q 115 595 103 588 q 147 604 128 603 l 210 542 q 279 581 240 567 q 375 599 325 599 q 469 581 425 599 q 531 546 503 567 l 593 610 q 622 599 611 606 q 644 581 633 593 l 571 507 q 603 454 590 483 q 622 357 622 410 q 597 244 622 292 q 567 196 583 218 l 658 107 q 637 88 650 96 q 603 79 624 81 l 524 156 q 457 119 493 132 q 375 104 414 104 m 363 543 q 244 494 289 543 q 199 367 199 446 q 213 294 199 331 q 251 229 226 258 q 310 182 276 200 q 383 164 344 164 q 501 213 457 164 q 546 346 546 263 q 532 417 546 382 q 494 481 518 453 q 435 526 469 508 q 363 543 401 543 z "},"€":{"ha":1036,"x_min":63,"x_max":936,"o":"m 682 565 q 679 526 682 544 q 667 492 676 507 l 528 492 q 396 490 464 492 q 293 489 347 490 q 303 396 294 440 l 682 396 q 679 356 682 375 q 667 322 676 338 l 528 322 q 396 321 464 322 q 324 319 361 321 q 386 200 347 251 q 498 106 432 140 q 647 72 564 72 q 783 94 714 72 q 911 154 853 117 q 927 134 919 147 q 936 111 935 121 q 855 56 894 79 q 774 18 815 33 q 687 -5 732 3 q 589 -12 642 -12 q 410 23 492 -12 q 271 123 329 58 q 179 278 213 188 q 167 318 172 297 l 63 318 q 67 360 63 338 q 78 396 71 382 l 151 396 q 147 476 147 435 l 147 488 l 63 488 q 67 529 63 507 q 78 565 71 551 l 153 565 q 186 685 163 631 q 291 833 226 774 q 439 922 356 893 q 611 951 522 951 q 770 933 699 951 q 919 879 842 915 q 906 776 908 831 q 904 664 904 722 q 869 654 886 657 q 831 651 853 651 q 813 772 828 725 q 770 847 797 819 q 706 884 743 874 q 622 894 668 894 q 472 863 535 894 q 370 777 410 831 q 311 654 331 724 q 294 565 300 611 l 682 565 z "},"¢":{"ha":629,"x_min":56,"x_max":572,"o":"m 572 108 q 479 18 535 49 q 383 -10 438 -4 l 383 -75 q 385 -196 385 -132 q 347 -192 369 -196 q 315 -181 325 -187 l 315 -11 q 239 8 276 -7 q 147 70 188 29 q 81 172 106 111 q 56 315 56 233 q 74 438 56 378 q 130 544 93 497 q 219 619 167 592 q 315 647 263 642 l 315 850 q 353 847 336 850 q 385 835 369 844 l 385 724 q 383 647 385 688 q 554 586 488 639 q 546 507 547 546 q 544 428 544 468 q 515 419 533 421 q 481 417 496 417 q 433 540 472 497 q 383 575 411 564 l 383 67 q 538 147 476 67 q 558 131 549 142 q 572 108 568 121 m 224 519 q 185 336 185 456 q 198 235 185 283 q 236 149 211 186 q 297 89 261 111 q 315 79 306 83 l 315 582 q 224 519 258 575 z "},"$":{"ha":758,"x_min":94,"x_max":663,"o":"m 344 -11 q 294 -7 318 -10 q 227 8 258 -3 q 165 35 196 18 q 94 76 133 51 q 105 182 103 129 q 107 274 107 235 q 143 280 122 278 q 182 282 164 282 q 196 188 185 229 q 230 116 207 146 q 290 69 253 86 q 344 56 314 60 l 344 413 q 328 419 336 417 q 224 481 272 446 q 144 569 176 517 q 113 707 113 622 q 131 806 113 761 q 183 884 150 851 q 263 933 217 917 q 344 950 300 947 l 344 1033 q 379 1031 365 1033 q 408 1018 393 1028 q 407 950 408 990 q 500 932 460 946 q 585 890 556 914 q 586 797 585 850 q 593 707 588 744 q 556 697 578 700 q 515 694 535 694 q 490 792 504 754 q 458 852 476 831 q 415 882 439 874 q 406 885 411 883 l 406 544 l 447 524 q 551 462 503 497 q 631 376 599 426 q 663 250 663 326 q 641 149 663 197 q 582 65 619 101 q 493 8 544 29 q 407 -11 453 -7 q 408 -126 408 -76 q 374 -122 393 -126 q 344 -111 354 -118 l 344 -11 m 406 381 l 406 54 q 456 65 433 57 q 504 97 485 78 q 534 142 524 117 q 544 197 544 168 q 513 299 544 260 q 432 365 481 338 q 406 381 419 374 m 264 651 q 343 582 296 613 l 344 581 l 344 889 q 268 854 297 883 q 232 751 232 818 q 264 651 232 690 z "},"¥":{"ha":875,"x_min":35,"x_max":840,"o":"m 574 525 l 743 525 q 739 490 743 504 q 728 460 735 475 l 536 460 l 508 410 l 508 351 l 740 351 q 724 286 740 313 l 508 286 l 508 226 q 512 139 508 171 q 526 90 515 107 q 558 67 538 74 q 615 56 579 60 q 624 -4 624 31 l 532 -1 q 447 0 486 0 l 397 0 q 344 -1 371 0 q 295 -2 318 -1 q 258 -3 272 -3 q 260 28 258 13 q 267 56 263 43 q 326 65 304 58 q 359 86 347 71 q 374 131 371 101 q 378 208 378 160 l 378 286 l 146 286 q 150 319 146 301 q 161 351 154 338 l 378 353 l 378 408 l 347 460 l 158 460 q 172 525 158 494 l 310 525 l 146 803 q 122 840 132 825 q 100 865 111 856 q 76 879 89 875 q 43 885 63 883 q 36 913 38 900 q 35 942 35 926 q 101 940 64 940 q 179 939 139 939 l 275 939 q 325 940 301 939 q 365 942 349 940 q 364 915 365 926 q 358 888 363 903 q 297 860 304 882 q 321 783 289 838 q 410 626 363 711 q 485 485 450 554 q 554 615 518 550 q 632 756 596 693 q 660 850 671 824 q 594 885 650 876 q 588 913 590 900 q 585 942 585 926 q 649 939 610 939 l 721 939 q 785 940 753 939 q 840 942 817 940 q 835 888 840 914 q 800 873 815 882 q 768 847 785 864 q 733 804 751 831 q 693 738 715 778 l 574 525 z "},"£":{"ha":833,"x_min":106,"x_max":744,"o":"m 692 139 q 744 111 721 135 q 674 49 710 85 q 619 -12 638 14 q 542 3 574 -12 q 501 26 518 13 q 463 51 483 39 q 415 71 442 63 q 347 79 389 79 q 247 58 293 79 q 153 -11 200 36 q 106 31 124 0 q 176 102 144 68 q 228 172 207 136 q 261 246 250 207 q 272 331 272 285 q 263 401 272 369 l 211 401 q 117 400 157 401 q 120 435 117 422 q 132 464 124 447 l 240 464 l 226 497 q 195 581 210 536 q 181 686 181 625 q 197 784 181 736 q 247 869 214 832 q 328 929 279 907 q 439 951 376 951 q 560 940 514 951 q 653 903 607 928 q 650 816 649 860 q 654 719 651 772 q 616 708 635 710 q 579 707 597 706 q 535 844 572 803 q 422 886 497 886 q 333 844 369 886 q 297 736 297 803 q 312 650 297 686 q 344 581 326 614 q 376 511 363 547 q 389 464 386 489 l 553 464 q 549 430 553 443 q 539 401 546 417 q 451 403 493 403 l 390 403 q 358 270 386 333 q 274 135 331 207 q 297 150 286 143 q 342 174 321 165 q 384 185 364 182 q 426 188 404 188 q 494 176 464 188 q 551 151 525 165 q 598 126 576 138 q 639 115 619 115 q 664 121 650 115 q 692 139 678 126 z "},"%":{"ha":1158,"x_min":125,"x_max":1075,"o":"m 242 -10 q 209 15 222 1 q 192 42 196 28 l 960 953 q 992 938 979 949 q 1018 913 1006 928 l 242 -10 m 869 432 q 959 413 921 432 q 1023 365 997 394 q 1062 297 1049 335 q 1075 221 1075 258 q 1060 131 1075 174 q 1017 57 1046 89 q 948 6 989 25 q 854 -12 907 -12 q 759 6 800 -12 q 691 54 718 24 q 650 123 664 85 q 636 201 636 161 q 651 289 636 247 q 694 363 665 331 q 767 413 724 394 q 869 432 811 432 m 850 374 q 811 362 829 374 q 779 329 793 350 q 758 281 765 308 q 750 219 750 253 q 781 95 750 144 q 867 46 811 46 q 900 56 883 46 q 931 85 917 65 q 953 133 944 104 q 963 201 963 163 q 931 325 963 276 q 850 374 900 374 m 356 940 q 444 922 406 940 q 508 873 482 903 q 547 806 533 843 q 560 731 560 768 q 545 642 560 683 q 503 568 531 600 q 435 517 475 536 q 342 499 394 499 q 247 517 288 499 q 178 565 206 535 q 138 633 151 596 q 125 711 125 671 q 140 797 125 756 q 183 871 154 839 q 256 922 213 903 q 356 940 299 940 m 338 882 q 263 839 293 882 q 232 729 232 796 q 264 606 232 654 q 353 557 296 557 q 388 567 369 557 q 420 596 406 576 q 444 644 435 615 q 454 711 454 672 q 422 834 454 786 q 338 882 389 882 z "},"‰":{"ha":1681,"x_min":125,"x_max":1611,"o":"m 1406 432 q 1495 413 1457 432 q 1559 365 1533 394 q 1598 297 1585 335 q 1611 221 1611 258 q 1597 131 1611 174 q 1553 57 1582 89 q 1484 6 1525 25 q 1390 -12 1443 -12 q 1295 6 1336 -12 q 1228 54 1254 24 q 1188 123 1201 85 q 1175 201 1175 161 q 1190 289 1175 247 q 1233 363 1204 331 q 1304 413 1261 394 q 1406 432 1347 432 m 1386 374 q 1347 362 1365 374 q 1314 329 1328 350 q 1292 281 1300 308 q 1283 219 1283 253 q 1315 95 1283 144 q 1403 46 1347 46 q 1437 56 1419 46 q 1469 85 1454 65 q 1492 133 1483 104 q 1501 201 1501 163 q 1469 325 1501 276 q 1386 374 1436 374 m 242 -10 q 209 15 222 1 q 192 42 196 28 l 960 953 q 992 938 979 949 q 1018 913 1006 928 l 242 -10 m 869 432 q 959 413 921 432 q 1023 365 997 394 q 1062 297 1049 335 q 1075 221 1075 258 q 1060 131 1075 174 q 1017 57 1046 89 q 948 6 989 25 q 854 -12 907 -12 q 759 6 800 -12 q 691 54 718 24 q 650 123 664 85 q 636 201 636 161 q 651 289 636 247 q 694 363 665 331 q 767 413 724 394 q 869 432 811 432 m 850 374 q 811 362 829 374 q 779 329 793 350 q 758 281 765 308 q 750 219 750 253 q 781 95 750 144 q 867 46 811 46 q 900 56 883 46 q 931 85 917 65 q 953 133 944 104 q 963 201 963 163 q 931 325 963 276 q 850 374 900 374 m 356 940 q 444 922 406 940 q 508 873 482 903 q 547 806 533 843 q 560 731 560 768 q 545 642 560 683 q 503 568 531 600 q 435 517 475 536 q 342 499 394 499 q 247 517 288 499 q 178 565 206 535 q 138 633 151 596 q 125 711 125 671 q 140 797 125 756 q 183 871 154 839 q 256 922 213 903 q 356 940 299 940 m 338 882 q 263 839 293 882 q 232 729 232 796 q 264 606 232 654 q 353 557 296 557 q 388 567 369 557 q 420 596 406 576 q 444 644 435 615 q 454 711 454 672 q 422 834 454 786 q 338 882 389 882 z "},"➙":{"ha":915,"x_min":83,"x_max":832,"o":"m 592 410 q 557 472 574 446 q 526 515 540 497 q 506 563 506 542 q 513 583 506 575 q 536 599 521 592 q 601 541 564 571 q 677 484 638 511 q 753 435 717 457 q 818 400 790 413 q 829 374 826 386 q 832 346 832 361 q 681 256 743 301 q 563 158 619 211 q 535 149 553 149 q 503 163 517 149 q 553 242 531 199 q 592 324 576 285 q 472 322 540 324 q 333 319 404 321 q 197 314 263 317 q 83 310 131 311 q 89 362 83 333 q 106 410 94 390 l 592 410 z "},"&":{"ha":1031,"x_min":75,"x_max":954,"o":"m 794 142 q 827 112 811 124 q 860 93 843 100 q 900 82 878 86 q 954 76 922 78 q 953 46 954 63 q 946 14 951 29 q 899 12 926 14 q 842 6 871 10 q 786 -2 813 3 q 743 -12 760 -7 q 650 104 697 49 q 633 122 642 113 q 519 22 578 54 q 372 -14 454 -14 q 232 13 289 -14 q 140 84 175 40 q 90 182 106 128 q 75 289 75 236 q 91 388 75 342 q 134 472 107 433 q 199 543 161 511 q 253 585 225 565 l 242 604 q 209 694 221 649 q 197 789 197 739 q 213 865 197 828 q 257 932 228 903 q 328 978 286 961 q 425 996 371 996 q 527 984 485 996 q 614 947 569 972 q 606 869 608 911 q 607 785 604 826 q 570 776 590 778 q 533 774 550 774 q 501 899 528 863 q 417 935 474 935 q 338 903 368 935 q 307 815 307 872 q 313 757 307 785 q 333 699 318 729 q 372 631 347 668 q 438 543 397 593 q 488 482 460 515 q 556 402 515 449 q 654 292 597 356 q 672 272 664 282 q 726 369 707 326 q 760 464 749 418 q 751 542 774 518 q 656 582 728 567 q 649 611 651 596 q 646 640 646 626 q 714 637 675 638 q 788 636 753 636 q 863 637 822 636 q 926 640 903 638 q 925 612 926 628 q 921 583 924 596 q 858 543 878 568 q 825 469 839 518 q 779 346 807 407 q 717 224 756 293 q 794 142 753 186 m 390 93 q 503 115 453 93 q 588 175 544 135 q 556 213 572 194 q 463 319 510 267 q 368 426 415 371 q 296 517 328 474 l 279 539 q 222 461 247 504 q 192 329 192 407 q 208 227 192 271 q 251 153 224 183 q 314 108 278 124 q 390 93 350 93 z "},"@":{"ha":1389,"x_min":175,"x_max":1213,"o":"m 699 649 q 772 644 739 649 q 825 636 796 642 q 854 639 839 636 q 894 649 875 642 q 910 639 904 646 q 919 617 915 632 q 924 578 922 603 q 925 515 925 554 l 925 250 q 926 168 925 199 q 933 122 928 138 q 948 101 938 106 q 975 96 958 96 q 1025 121 996 96 q 1081 196 1054 146 q 1126 319 1107 246 q 1144 488 1144 392 q 1119 630 1144 563 q 1041 749 1093 697 q 912 830 989 800 q 732 860 835 860 q 526 819 614 860 q 378 708 438 779 q 290 540 319 638 q 261 329 261 443 q 291 122 261 221 q 382 -53 321 22 q 535 -174 443 -129 q 751 -218 626 -218 q 968 -181 867 -218 q 1143 -60 1069 -143 q 1186 -94 1178 -65 q 1106 -174 1154 -139 q 999 -232 1058 -208 q 872 -268 940 -256 q 732 -281 804 -281 q 485 -236 590 -281 q 312 -112 381 -192 q 209 78 243 -32 q 175 317 175 188 q 213 551 175 442 q 324 741 251 660 q 503 869 397 822 q 746 917 610 917 q 950 883 863 917 q 1096 793 1038 850 q 1183 660 1154 736 q 1213 499 1213 585 q 1183 292 1213 386 q 1109 131 1154 199 q 1008 26 1064 64 q 901 -12 953 -12 q 827 24 847 -12 q 807 124 807 60 l 807 226 q 778 143 794 181 q 705 30 747 72 q 611 -12 663 -12 q 486 53 533 -12 q 439 275 439 118 q 458 426 439 357 q 511 544 476 494 q 593 621 546 593 q 699 649 640 649 m 813 511 q 814 544 814 529 q 757 574 788 564 q 690 586 722 586 q 594 523 624 586 q 564 317 564 460 q 589 149 564 196 q 647 101 614 101 q 689 124 664 101 q 738 194 714 147 q 783 310 763 240 q 811 461 803 375 q 813 511 813 486 z "},"©":{"ha":1044,"x_min":49,"x_max":996,"o":"m 108 319 q 140 156 108 232 q 228 25 172 81 q 359 -62 283 -31 q 522 -93 435 -93 q 685 -61 610 -93 q 817 26 761 -29 q 904 157 872 82 q 936 319 936 232 q 904 483 936 407 q 817 614 872 558 q 685 701 761 669 q 522 733 610 733 q 360 701 435 733 q 228 614 285 669 q 140 483 172 558 q 108 319 108 407 m 49 319 q 85 506 49 419 q 186 656 122 592 q 336 756 250 719 q 522 793 422 793 q 708 756 621 793 q 858 656 794 719 q 959 506 922 592 q 996 319 996 419 q 959 134 996 221 q 858 -17 922 47 q 708 -117 794 -81 q 522 -154 621 -154 q 335 -117 422 -154 q 185 -17 249 -81 q 85 133 121 46 q 49 319 49 219 m 535 629 q 642 615 599 629 q 735 569 686 600 q 726 495 728 532 q 725 421 725 458 q 697 413 715 415 q 665 411 679 411 q 655 467 663 439 q 629 517 647 494 q 583 553 611 539 q 510 567 554 567 q 442 548 469 567 q 399 497 415 529 q 374 422 382 465 q 367 332 367 379 q 376 238 367 283 q 408 158 386 193 q 465 101 431 122 q 547 79 499 79 q 631 94 588 79 q 714 150 675 108 q 738 117 729 136 q 647 35 701 64 q 511 7 592 7 q 412 26 461 7 q 324 85 363 46 q 263 181 286 124 q 239 317 239 239 q 260 445 239 388 q 322 544 282 503 q 415 607 361 585 q 535 629 469 629 z "},"®":{"ha":688,"x_min":83,"x_max":604,"o":"m 83 690 q 103 792 83 744 q 159 876 124 840 q 242 931 194 911 q 343 951 289 951 q 447 931 399 951 q 529 876 494 911 q 584 792 564 840 q 604 690 604 744 q 584 588 604 635 q 529 506 564 540 q 447 451 494 471 q 343 431 399 431 q 242 451 289 431 q 159 506 194 471 q 103 588 124 540 q 83 690 83 635 m 129 690 q 146 606 129 644 q 191 538 163 567 q 258 493 219 510 q 343 476 297 476 q 430 493 390 476 q 498 538 469 510 q 542 606 526 567 q 558 690 558 644 q 542 776 558 736 q 498 844 526 815 q 430 889 469 872 q 343 906 390 906 q 258 889 297 906 q 191 844 219 872 q 146 776 163 815 q 129 690 129 736 m 392 686 q 381 682 386 683 q 403 654 394 665 q 428 619 413 642 q 458 584 447 592 q 488 576 468 576 l 488 563 q 485 551 488 557 q 450 551 469 551 q 417 547 431 550 q 376 614 396 585 q 331 674 357 643 q 319 675 326 675 l 319 625 q 325 588 319 597 q 347 575 331 578 q 351 563 350 568 q 351 550 351 557 q 319 551 336 551 l 267 551 q 231 550 254 551 l 231 561 q 233 575 231 568 q 260 587 254 578 q 267 625 267 596 l 267 764 q 260 804 267 796 q 231 813 254 813 q 228 824 228 818 l 228 836 l 357 836 q 435 816 411 836 q 458 764 458 796 q 448 729 458 744 q 423 703 438 714 q 392 686 408 692 m 329 813 q 319 810 326 813 l 319 697 q 384 709 363 699 q 406 750 406 719 q 391 794 406 776 q 339 813 376 813 l 329 813 z "},"ẞ":{"ha":1029,"x_min":78,"x_max":949,"o":"m 311 -1 q 271 0 292 0 l 188 0 q 149 -1 169 0 q 110 -2 129 -1 q 78 -4 92 -3 q 79 28 78 13 q 85 56 81 43 q 131 65 113 58 q 160 90 149 72 q 176 139 171 107 q 181 224 181 171 l 181 583 q 208 756 181 688 q 284 867 235 825 q 400 925 333 908 q 546 942 467 942 q 583 941 567 942 q 615 940 600 940 q 649 940 631 940 q 690 939 667 939 q 769 940 731 939 q 856 943 808 940 q 868 913 863 929 q 874 878 874 897 q 779 715 836 808 q 665 540 726 626 q 775 511 725 532 q 868 451 829 488 q 928 367 907 415 q 949 261 949 318 q 929 154 949 204 q 872 67 910 104 q 781 9 835 31 q 658 -12 726 -12 q 524 8 579 -12 q 417 63 469 28 q 429 162 426 111 q 432 249 432 213 q 472 255 449 253 q 513 257 496 257 q 523 170 517 208 q 545 106 529 132 q 588 67 561 81 q 658 54 614 54 q 719 69 693 54 q 764 110 746 85 q 790 171 782 136 q 799 244 799 206 q 783 331 799 290 q 733 404 767 372 q 646 458 699 436 q 521 489 593 481 q 510 515 514 500 q 506 544 506 529 q 628 729 567 628 q 713 879 675 807 q 674 881 692 881 q 597 885 633 883 q 517 886 560 886 q 431 874 469 886 q 367 827 393 861 q 326 734 340 793 q 311 583 311 675 l 311 -1 z "},"ﬄ":{"ha":1299,"x_min":50,"x_max":1265,"o":"m 1051 785 q 1009 885 1051 851 q 893 918 967 918 q 774 873 814 918 q 735 721 735 828 l 735 622 l 876 622 q 874 591 876 608 q 863 560 871 574 q 735 543 789 560 l 735 204 q 740 131 735 160 q 756 87 744 103 q 785 64 767 71 q 831 56 803 57 q 838 -4 838 36 q 676 0 772 0 q 581 -1 628 0 q 507 -4 535 -1 q 514 56 507 36 q 590 83 569 58 q 610 176 610 107 l 610 549 q 545 559 579 556 q 463 563 511 563 q 353 557 392 563 q 286 544 314 551 l 286 204 q 293 131 286 158 q 315 86 300 103 q 353 63 331 69 q 410 56 376 57 q 417 -4 417 36 q 338 -1 385 -1 q 242 0 290 0 l 190 0 q 139 -1 164 0 q 93 -2 114 -1 q 58 -4 72 -3 q 65 56 58 36 q 141 83 121 58 q 161 176 161 107 l 161 547 q 101 557 131 554 q 50 560 71 560 q 69 622 50 597 l 161 622 l 161 654 q 187 782 161 724 q 257 882 213 840 q 361 947 301 924 q 490 971 421 971 q 606 950 550 971 q 694 900 654 933 l 714 917 q 819 974 761 956 q 936 993 878 993 q 1024 982 983 993 q 1075 965 1054 975 q 1090 969 1082 967 q 1146 996 1121 978 q 1167 979 1158 992 q 1176 940 1176 967 l 1176 176 q 1195 81 1176 107 q 1258 56 1214 56 q 1264 23 1263 40 q 1265 -4 1265 6 q 1189 -1 1229 -1 q 1108 0 1149 0 q 1026 -1 1068 0 q 949 -4 983 -1 q 950 26 949 10 q 956 56 951 42 q 1031 81 1011 56 q 1051 176 1051 107 l 1051 785 m 610 622 l 610 678 q 628 796 610 744 q 571 863 604 836 q 469 899 528 899 q 338 851 390 899 q 286 693 286 804 l 286 622 l 610 622 z "},"ﬃ":{"ha":1335,"x_min":50,"x_max":1269,"o":"m 161 622 l 161 654 q 187 782 161 724 q 257 882 213 840 q 361 947 301 924 q 490 971 421 971 q 606 950 550 971 q 696 897 656 933 l 700 901 q 807 969 744 944 q 947 993 869 993 q 1063 981 1013 993 q 1157 950 1113 969 q 1153 878 1154 906 q 1153 822 1153 850 q 1099 801 1133 808 q 1033 801 1065 794 q 1003 890 1033 858 q 911 921 974 921 q 775 872 815 921 q 735 721 735 822 l 735 622 l 967 622 q 1061 629 1011 624 q 1150 649 1111 635 q 1174 629 1167 642 q 1181 589 1181 617 l 1181 176 q 1199 83 1181 107 q 1263 56 1218 58 q 1268 27 1267 43 q 1269 -4 1269 11 q 1199 -1 1242 -1 q 1111 0 1157 0 q 1023 -1 1065 0 q 953 -4 981 -1 q 954 28 953 14 q 960 56 956 42 q 1035 83 1015 58 q 1056 176 1056 107 l 1056 446 q 1051 494 1056 474 q 1032 528 1047 515 q 988 549 1017 542 q 911 558 960 557 q 864 557 890 558 q 813 553 838 556 q 766 548 788 551 q 735 542 744 544 l 735 176 q 756 84 735 110 q 831 56 778 58 q 836 29 835 43 q 838 -4 838 15 q 765 -1 810 -1 q 679 0 721 0 l 633 0 q 586 -1 610 0 q 542 -2 563 -1 q 507 -4 521 -3 q 514 56 507 36 q 590 83 569 58 q 610 176 610 107 l 610 549 q 545 559 579 556 q 463 563 511 563 q 353 557 392 563 q 286 544 314 551 l 286 204 q 293 131 286 158 q 315 86 300 103 q 353 63 331 69 q 410 56 376 57 q 417 -4 417 36 q 338 -1 385 -1 q 242 0 290 0 l 190 0 q 139 -1 164 0 q 93 -2 114 -1 q 58 -4 72 -3 q 65 56 58 36 q 141 83 121 58 q 161 176 161 107 l 161 547 q 101 557 131 554 q 50 560 71 560 q 69 622 50 597 l 161 622 m 610 678 q 629 793 610 739 q 571 863 604 836 q 469 899 528 899 q 338 851 390 899 q 286 693 286 804 l 286 622 l 610 622 l 610 678 z "},"¼":{"ha":1081,"x_min":36,"x_max":1036,"o":"m 142 810 q 121 887 142 867 q 36 907 100 907 q 38 936 36 919 q 47 967 40 953 q 146 985 99 974 q 231 1013 193 997 q 252 995 246 1007 q 258 951 258 983 l 258 592 q 263 519 258 547 q 278 474 268 490 q 305 452 289 458 q 342 444 321 446 q 346 418 344 433 q 347 386 347 403 q 288 389 332 388 q 196 390 244 390 q 105 389 143 390 q 44 386 67 388 q 50 444 44 422 q 90 451 72 446 q 119 472 107 457 q 136 513 131 486 q 142 582 142 539 l 142 810 m 226 -11 q 192 6 207 -4 q 171 25 178 15 l 882 992 q 913 977 897 988 q 938 956 928 967 l 226 -11 m 926 265 l 992 265 q 1036 251 1024 265 q 1020 213 1026 232 q 1011 165 1014 193 l 926 165 l 926 154 q 930 103 926 122 q 942 75 933 85 q 963 63 950 65 q 996 58 976 60 q 1001 31 999 50 q 1003 -4 1003 11 q 973 -3 990 -4 q 936 -1 956 -3 l 897 0 l 824 0 l 782 -1 q 744 -3 761 -3 q 717 -4 726 -4 q 718 31 717 11 q 722 58 719 51 q 763 63 746 60 q 792 77 781 67 q 808 106 803 88 q 813 154 813 124 l 813 164 q 732 163 768 163 q 642 159 681 161 q 574 154 604 157 q 549 222 549 182 q 623 315 583 265 q 703 419 663 365 q 784 527 744 472 q 860 635 824 582 q 926 619 896 635 l 926 265 m 813 265 l 813 469 l 663 265 l 813 265 z "},"½":{"ha":1218,"x_min":36,"x_max":1156,"o":"m 142 810 q 121 887 142 867 q 36 907 100 907 q 38 936 36 919 q 47 967 40 953 q 146 985 99 974 q 231 1013 193 997 q 252 995 246 1007 q 258 951 258 983 l 258 592 q 263 519 258 547 q 278 474 268 490 q 305 452 289 458 q 342 444 321 446 q 346 418 344 433 q 347 386 347 403 q 288 389 332 388 q 196 390 244 390 q 105 389 143 390 q 44 386 67 388 q 50 444 44 422 q 90 451 72 446 q 119 472 107 457 q 136 513 131 486 q 142 582 142 539 l 142 810 m 213 -11 q 178 6 193 -4 q 157 25 164 15 l 868 992 q 899 977 883 988 q 924 956 914 967 l 213 -11 m 921 624 q 997 615 961 624 q 1059 589 1032 607 q 1102 543 1086 571 q 1118 476 1118 515 q 1086 371 1118 418 q 1001 275 1054 324 q 921 196 957 233 q 840 108 885 158 l 1011 108 q 1065 122 1044 108 q 1085 172 1085 135 q 1117 172 1101 174 q 1146 165 1133 171 q 1147 88 1144 126 q 1156 21 1149 50 q 1133 3 1149 8 q 1086 -1 1118 -1 q 1032 -1 1071 -1 q 957 0 993 0 q 837 -1 894 0 q 718 -1 779 -1 q 708 17 711 6 q 706 39 706 28 q 753 92 726 63 q 799 142 779 121 l 925 272 q 980 354 963 313 q 997 454 997 396 q 973 537 997 503 q 896 571 949 571 q 826 540 847 571 q 796 444 806 510 q 728 454 756 444 q 732 512 732 482 q 726 579 732 542 q 921 624 811 624 z "},"¾":{"ha":1151,"x_min":50,"x_max":1103,"o":"m 269 1006 q 378 1007 336 1006 q 439 1008 419 1008 q 457 958 457 988 q 373 869 417 917 q 281 768 329 821 q 353 758 317 768 q 418 728 389 749 q 465 674 447 707 q 483 597 483 642 q 463 506 483 547 q 408 438 443 465 q 322 394 372 410 q 213 379 272 379 q 106 396 146 379 q 51 426 67 413 q 56 455 50 440 q 71 481 61 469 q 120 458 88 469 q 201 447 153 447 q 309 476 267 447 q 351 568 351 506 q 341 613 351 593 q 313 645 331 632 q 272 665 294 658 q 226 672 250 672 q 203 671 214 672 q 181 665 192 669 q 163 690 171 674 q 154 715 156 706 q 245 817 199 765 q 325 908 292 868 l 221 908 q 166 890 186 908 q 126 819 146 871 q 94 824 111 819 q 67 836 78 829 q 78 922 75 872 q 79 1008 81 972 q 156 1006 107 1007 q 269 1006 204 1006 m 268 -11 q 234 6 249 -4 q 213 25 219 15 l 924 992 q 954 977 939 988 q 979 956 969 967 l 268 -11 m 993 265 l 1058 265 q 1103 251 1090 265 q 1087 213 1093 232 q 1078 165 1081 193 l 993 165 l 993 154 q 997 103 993 122 q 1008 75 1000 85 q 1030 63 1017 65 q 1063 58 1043 60 q 1067 31 1065 50 q 1069 -4 1069 11 q 1040 -3 1057 -4 q 1003 -1 1022 -3 l 964 0 l 890 0 l 849 -1 q 810 -3 828 -3 q 783 -4 793 -4 q 785 31 783 11 q 789 58 786 51 q 830 63 813 60 q 858 77 847 67 q 874 106 869 88 q 879 154 879 124 l 879 164 q 799 163 835 163 q 709 159 747 161 q 640 154 671 157 q 615 222 615 182 q 690 315 650 265 q 770 419 729 365 q 851 527 811 472 q 926 635 890 582 q 993 619 963 635 l 993 265 m 879 265 l 879 469 l 729 265 l 879 265 z "},"¬":{"ha":746,"x_min":36,"x_max":682,"o":"m 610 413 l 356 413 q 36 411 204 414 q 40 449 36 426 q 50 482 43 472 l 682 482 l 682 161 q 610 142 650 142 l 610 413 z "},"­":{"ha":582,"x_min":83,"x_max":499,"o":"m 499 415 q 494 369 499 393 q 481 325 490 344 q 390 324 443 325 q 281 323 336 324 q 173 322 225 322 q 83 319 121 321 q 90 370 83 343 q 106 415 96 397 l 499 415 z "},"ª":{"ha":578,"x_min":69,"x_max":536,"o":"m 354 746 q 297 735 325 742 q 247 718 269 729 q 212 688 225 707 q 199 640 199 669 q 215 590 199 604 q 254 575 232 575 q 288 583 271 575 q 320 607 306 590 q 344 650 335 624 q 354 714 354 676 l 354 746 m 479 678 q 490 608 479 625 q 536 592 501 592 q 535 560 536 576 q 528 531 533 544 q 456 519 492 528 q 394 499 421 510 q 372 515 381 503 q 363 550 363 526 q 365 577 363 565 q 368 599 367 589 q 353 567 363 583 q 326 536 343 551 q 280 510 307 521 q 215 500 253 500 q 106 530 142 500 q 69 617 69 560 q 92 690 69 660 q 153 742 114 721 q 244 776 192 763 q 354 797 296 789 q 349 874 354 853 q 331 911 344 896 q 267 942 307 942 q 229 931 244 942 q 204 901 214 919 q 190 863 194 883 q 183 821 185 842 q 144 823 165 821 q 108 831 122 825 q 110 890 111 858 q 103 944 108 921 q 196 982 146 968 q 300 996 246 996 q 381 985 350 996 q 433 951 413 974 q 455 924 446 939 q 469 890 464 910 q 476 843 474 869 q 479 779 479 817 l 479 678 z "},"º":{"ha":581,"x_min":56,"x_max":526,"o":"m 183 769 q 215 610 183 668 q 301 553 246 553 q 376 601 350 553 q 401 729 401 650 q 366 885 401 829 q 281 940 331 940 q 208 892 232 940 q 183 769 183 844 m 56 743 q 74 847 56 800 q 123 926 92 893 q 198 978 154 960 q 292 996 242 996 q 467 927 407 996 q 526 749 526 858 q 510 645 526 692 q 462 565 493 599 q 387 514 431 532 q 289 496 343 496 q 117 563 179 496 q 56 743 56 631 z "},"ﬀ":{"ha":950,"x_min":50,"x_max":1032,"o":"m 161 628 l 161 654 q 187 782 161 724 q 257 882 213 840 q 361 947 301 924 q 490 971 421 971 q 606 950 550 971 q 690 903 651 933 l 700 913 q 794 972 742 953 q 900 992 846 992 q 981 981 954 992 q 1032 957 1008 971 q 1028 872 1029 913 q 1026 794 1026 832 q 988 786 1008 789 q 947 783 967 783 q 922 878 947 840 q 839 915 897 915 q 758 865 782 915 q 735 721 735 814 l 735 628 l 876 628 q 874 597 876 614 q 863 565 871 579 q 735 549 789 565 l 735 204 q 742 131 735 158 q 764 86 749 103 q 802 63 779 69 q 858 56 825 57 q 865 -4 865 36 q 786 -1 833 -1 q 690 0 739 0 l 639 0 q 588 -1 613 0 q 542 -2 563 -1 q 507 -4 521 -3 q 514 56 507 36 q 590 83 569 58 q 610 176 610 107 l 610 554 q 545 565 579 561 q 463 568 511 568 q 353 563 392 568 q 286 550 314 557 l 286 204 q 293 131 286 158 q 315 86 300 103 q 353 63 331 69 q 410 56 376 57 q 417 -4 417 36 q 338 -1 385 -1 q 242 0 290 0 l 190 0 q 139 -1 164 0 q 93 -2 114 -1 q 58 -4 72 -3 q 65 56 58 36 q 141 83 121 58 q 161 176 161 107 l 161 553 q 101 563 131 560 q 50 565 71 565 q 69 628 50 603 l 161 628 m 610 628 l 610 678 q 628 797 610 744 q 571 863 603 838 q 469 899 528 899 q 338 851 390 899 q 286 693 286 804 l 286 628 l 610 628 z "}," ":{"ha":278,"x_min":0,"x_max":0,"o":""}}}
